<?xml version="1.0" encoding="utf-8"?>
<!-- Generator: Adobe Illustrator 26.0.3, SVG Export Plug-In . SVG Version: 6.00 Build 0)  -->
<svg version="1.1" id="Layer_1" xmlns="http://www.w3.org/2000/svg" xmlns:xlink="http://www.w3.org/1999/xlink" x="0px" y="0px"
	 viewBox="0 0 400 400" style="enable-background:new 0 0 400 400;" xml:space="preserve">
<style type="text/css">
	.st0{fill:#FFB999;}
	.st1{fill:none;}
	.st2{fill:#AC93B8;}
	.st3{fill:#FFFFFF;}
	.st4{fill:#7177A9;}
</style>
<rect x="-3.5" y="-3.5" class="st0" width="407" height="407"/>
<g>
	<path class="st1" d="M571.9,129.1c7.4,0,13.5-6.1,13.5-13.5c0-6.8-5-12.3-11.5-13.3c-1,9.1-3.8,17.7-7.9,25.5
		C567.8,128.7,569.8,129.1,571.9,129.1z"/>
	<path class="st0" d="M561.9,134.7c3,1.6,6.4,2.5,10,2.5c11.9,0,21.5-9.6,21.5-21.5c0-11-8.3-20.1-19-21.3c0-0.1,0-0.1,0-0.2h-144
		c0,26.4,14.2,49.5,35.4,62h-29.9c-3,0-5.5,2.5-5.5,5.5s2.5,5.5,5.5,5.5h134c3,0,5.5-2.5,5.5-5.5s-2.5-5.5-5.5-5.5H539
		C548.1,150.7,556,143.4,561.9,134.7z M585.4,115.6c0,7.4-6.1,13.5-13.5,13.5c-2.1,0-4.1-0.5-5.8-1.4c4.1-7.8,6.8-16.4,7.9-25.5
		C580.4,103.3,585.4,108.9,585.4,115.6z"/>
	<path class="st2" d="M574.2,89.1c0-10.9-2.5-21.3-6.8-30.6l0.2,0.1l5.2-26.6l2.5-13c1.2-6-4.6-11.1-10.5-9.1l-12.6,4.3l-23.4,8
		c-8.3-3.3-17.3-5.1-26.7-5.1c-9.5,0-18.5,1.9-26.8,5.2l-23.6-8.1l-12.6-4.3c-5.8-2-11.6,3.1-10.5,9.1l2.5,13l5.2,26.6l0.8-0.7
		c-4.5,9.4-7.1,20-7.1,31.1H574.2z M517.3,59.2l24.5-7.5c1.1-0.3,2.2,0.3,2.5,1.3c0.3,1.1-0.3,2.2-1.3,2.5l-24.5,7.5
		c-0.2,0.1-0.4,0.1-0.6,0.1c-0.9,0-1.6-0.6-1.9-1.4C515.6,60.7,516.2,59.6,517.3,59.2z M514.9,70.3c0.1-1.1,1.1-1.9,2.2-1.7
		l16.5,2.1c1.1,0.1,1.9,1.1,1.7,2.2c-0.1,1-1,1.8-2,1.8c-0.1,0-0.2,0-0.2,0l-16.5-2.1C515.6,72.4,514.8,71.4,514.9,70.3z
		 M497.9,60.1h3.9h3.9c1.5,0,2.5,1.7,1.7,3l-2,3.4l-2,3.4c-0.8,1.3-2.7,1.3-3.5,0l-2-3.4l-2-3.4C495.4,61.8,496.3,60.1,497.9,60.1z
		 M489.4,70.3c0.1,1.1-0.6,2.1-1.7,2.2l-16.5,2.1c-0.1,0-0.2,0-0.2,0c-1,0-1.9-0.7-2-1.8c-0.1-1.1,0.6-2.1,1.7-2.2l16.5-2.1
		C488.2,68.5,489.2,69.3,489.4,70.3z M488.3,61.7c-0.3,0.9-1.1,1.4-1.9,1.4c-0.2,0-0.4,0-0.6-0.1l-24.5-7.5
		c-1.1-0.3-1.7-1.4-1.3-2.5c0.3-1.1,1.4-1.7,2.5-1.3l24.5,7.5C488,59.6,488.6,60.7,488.3,61.7z"/>
	<path class="st3" d="M498.1,66.6l2,3.4c0.8,1.3,2.7,1.3,3.5,0l2-3.4l2-3.4c0.8-1.3-0.2-3-1.7-3h-3.9h-3.9c-1.5,0-2.5,1.7-1.7,3
		L498.1,66.6z"/>
	<path class="st3" d="M460,53.1c-0.3,1.1,0.3,2.2,1.3,2.5l24.5,7.5c0.2,0.1,0.4,0.1,0.6,0.1c0.9,0,1.6-0.6,1.9-1.4
		c0.3-1.1-0.3-2.2-1.3-2.5l-24.5-7.5C461.4,51.4,460.3,52,460,53.1z"/>
	<path class="st3" d="M487.1,68.6l-16.5,2.1c-1.1,0.1-1.9,1.1-1.7,2.2c0.1,1,1,1.8,2,1.8c0.1,0,0.2,0,0.2,0l16.5-2.1
		c1.1-0.1,1.9-1.1,1.7-2.2C489.2,69.3,488.2,68.5,487.1,68.6z"/>
	<path class="st3" d="M517.9,63.1c0.2,0,0.4,0,0.6-0.1l24.5-7.5c1.1-0.3,1.7-1.4,1.3-2.5c-0.3-1.1-1.4-1.6-2.5-1.3l-24.5,7.5
		c-1.1,0.3-1.7,1.4-1.3,2.5C516.2,62.6,517,63.1,517.9,63.1z"/>
	<path class="st3" d="M516.7,72.6l16.5,2.1c0.1,0,0.2,0,0.2,0c1,0,1.9-0.7,2-1.8c0.1-1.1-0.6-2.1-1.7-2.2l-16.5-2.1
		c-1.1-0.1-2.1,0.6-2.2,1.7C514.8,71.4,515.6,72.4,516.7,72.6z"/>
</g>
<g>
	<path class="st1" d="M785.4,344.9c7.4,0,13.5-6.1,13.5-13.5c0-6.8-5-12.3-11.5-13.3c-1,9.1-3.8,17.7-7.9,25.5
		C781.4,344.4,783.3,344.9,785.4,344.9z"/>
	<path class="st4" d="M775.4,350.4c3,1.6,6.4,2.5,10,2.5c11.9,0,21.5-9.6,21.5-21.5c0-11-8.3-20.1-19-21.3c0-0.1,0-0.1,0-0.2h-144
		c0,26.4,14.2,49.5,35.4,62h-29.9c-3,0-5.5,2.5-5.5,5.5s2.5,5.5,5.5,5.5h134c3,0,5.5-2.5,5.5-5.5s-2.5-5.5-5.5-5.5h-30.9
		C761.7,366.5,769.5,359.2,775.4,350.4z M798.9,331.4c0,7.4-6.1,13.5-13.5,13.5c-2.1,0-4.1-0.5-5.8-1.4c4.1-7.8,6.8-16.4,7.9-25.5
		C793.9,319.1,798.9,324.7,798.9,331.4z"/>
	<path class="st2" d="M787.7,304.9c0-10.9-2.5-21.3-6.8-30.6l0.2,0.1l5.2-26.6l2.5-13c1.2-6-4.6-11.1-10.5-9.1l-12.6,4.3l-23.4,8
		c-8.3-3.3-17.3-5.1-26.7-5.1c-9.5,0-18.5,1.9-26.8,5.2l-23.6-8.1l-12.6-4.3c-5.8-2-11.6,3.1-10.5,9.1l2.5,13l5.2,26.6l0.8-0.7
		c-4.5,9.4-7.1,20-7.1,31.1H787.7z M730.8,275l24.5-7.5c1.1-0.3,2.2,0.3,2.5,1.3c0.3,1.1-0.3,2.2-1.3,2.5l-24.5,7.5
		c-0.2,0.1-0.4,0.1-0.6,0.1c-0.9,0-1.6-0.6-1.9-1.4C729.2,276.5,729.8,275.3,730.8,275z M728.5,286.1c0.1-1.1,1.1-1.9,2.2-1.7
		l16.5,2.1c1.1,0.1,1.9,1.1,1.7,2.2c-0.1,1-1,1.8-2,1.8c-0.1,0-0.2,0-0.2,0l-16.5-2.1C729.1,288.2,728.3,287.2,728.5,286.1z
		 M711.4,275.9h3.9h3.9c1.5,0,2.5,1.7,1.7,3l-2,3.4l-2,3.4c-0.8,1.3-2.7,1.3-3.5,0l-2-3.4l-2-3.4
		C708.9,277.6,709.9,275.9,711.4,275.9z M702.9,286.1c0.1,1.1-0.6,2.1-1.7,2.2l-16.5,2.1c-0.1,0-0.2,0-0.2,0c-1,0-1.9-0.7-2-1.8
		c-0.1-1.1,0.6-2.1,1.7-2.2l16.5-2.1C701.8,284.3,702.8,285,702.9,286.1z M701.8,277.5c-0.3,0.9-1.1,1.4-1.9,1.4
		c-0.2,0-0.4,0-0.6-0.1l-24.5-7.5c-1.1-0.3-1.7-1.4-1.3-2.5c0.3-1.1,1.4-1.7,2.5-1.3l24.5,7.5C701.6,275.3,702.2,276.5,701.8,277.5z
		"/>
</g>
<g>
	<path class="st4" d="M73,189.5l14.2-32h7.3l14.3,32h-7.8l-11.7-28.2h2.9l-11.7,28.2H73z M80.2,182.6l2-5.6h16.4l2,5.6H80.2z"/>
	<path class="st4" d="M122,189.8c-2.3,0-4.4-0.5-6.3-1.6c-1.9-1.1-3.3-2.5-4.4-4.4c-1.1-1.9-1.6-4.1-1.6-6.7c0-2.6,0.5-4.8,1.6-6.7
		c1.1-1.9,2.5-3.3,4.4-4.4c1.9-1,3.9-1.6,6.3-1.6c2.1,0,3.9,0.5,5.4,1.4c1.6,0.9,2.8,2.3,3.6,4.2c0.9,1.9,1.3,4.2,1.3,7.1
		c0,2.9-0.4,5.2-1.2,7.1c-0.8,1.9-2,3.3-3.5,4.2C126.1,189.4,124.2,189.8,122,189.8z M123.3,184c1.2,0,2.2-0.3,3.2-0.8
		c0.9-0.5,1.7-1.3,2.3-2.4c0.6-1,0.8-2.2,0.8-3.6c0-1.4-0.3-2.6-0.8-3.7c-0.6-1-1.3-1.8-2.3-2.3c-0.9-0.5-2-0.8-3.2-0.8
		c-1.2,0-2.3,0.3-3.2,0.8c-0.9,0.5-1.7,1.3-2.3,2.3c-0.6,1-0.8,2.2-0.8,3.7c0,1.4,0.3,2.6,0.8,3.6c0.6,1,1.3,1.8,2.3,2.4
		C121,183.7,122.1,184,123.3,184z M129.7,189.5v-5l0.1-7.3l-0.5-7.3v-14.3h7.1v33.9H129.7z"/>
	<path class="st4" d="M153.6,189.8c-2.3,0-4.4-0.5-6.3-1.6c-1.9-1.1-3.3-2.5-4.4-4.4c-1.1-1.9-1.6-4.1-1.6-6.7
		c0-2.6,0.5-4.8,1.6-6.7c1.1-1.9,2.5-3.3,4.4-4.4c1.9-1,3.9-1.6,6.3-1.6c2.1,0,3.9,0.5,5.4,1.4c1.6,0.9,2.8,2.3,3.6,4.2
		c0.9,1.9,1.3,4.2,1.3,7.1c0,2.9-0.4,5.2-1.2,7.1c-0.8,1.9-2,3.3-3.5,4.2C157.7,189.4,155.8,189.8,153.6,189.8z M154.9,184
		c1.2,0,2.2-0.3,3.2-0.8c0.9-0.5,1.7-1.3,2.3-2.4c0.6-1,0.8-2.2,0.8-3.6c0-1.4-0.3-2.6-0.8-3.7c-0.6-1-1.3-1.8-2.3-2.3
		c-0.9-0.5-2-0.8-3.2-0.8c-1.2,0-2.3,0.3-3.2,0.8c-0.9,0.5-1.7,1.3-2.3,2.3c-0.6,1-0.8,2.2-0.8,3.7c0,1.4,0.3,2.6,0.8,3.6
		c0.6,1,1.3,1.8,2.3,2.4C152.6,183.7,153.7,184,154.9,184z M161.3,189.5v-5l0.1-7.3l-0.5-7.3v-14.3h7.1v33.9H161.3z"/>
	<path class="st4" d="M188.1,189.5v-32H202c2.9,0,5.3,0.5,7.4,1.4c2.1,0.9,3.7,2.3,4.8,4c1.1,1.7,1.7,3.8,1.7,6.2
		c0,2.4-0.6,4.4-1.7,6.2c-1.1,1.7-2.7,3.1-4.8,4s-4.5,1.4-7.4,1.4h-9.7l3.3-3.3v12.1H188.1z M195.5,178.1l-3.3-3.5h9.3
		c2.3,0,4-0.5,5.1-1.5c1.1-1,1.7-2.3,1.7-4.1c0-1.8-0.6-3.1-1.7-4.1c-1.1-1-2.8-1.5-5.1-1.5h-9.3l3.3-3.5V178.1z"/>
	<path class="st4" d="M236,164.5c1.9,0,3.7,0.4,5.2,1.2c1.5,0.8,2.7,2,3.6,3.6c0.9,1.6,1.3,3.6,1.3,6.1v14.1H239v-13
		c0-2-0.4-3.4-1.3-4.4c-0.9-0.9-2.1-1.4-3.7-1.4c-1.1,0-2.1,0.2-3,0.7c-0.9,0.5-1.6,1.2-2.1,2.2c-0.5,1-0.8,2.2-0.8,3.7v12.1h-7.1
		v-33.9h7.1v16.1l-1.6-2.1c0.9-1.6,2.1-2.9,3.8-3.8C232,165,233.9,164.5,236,164.5z"/>
	<path class="st4" d="M264.5,189.8c-2.6,0-4.9-0.5-7-1.6s-3.6-2.6-4.8-4.5c-1.2-1.9-1.8-4.1-1.8-6.5c0-2.5,0.6-4.7,1.8-6.6
		c1.2-1.9,2.8-3.4,4.8-4.5c2-1.1,4.3-1.6,7-1.6c2.6,0,4.9,0.5,6.9,1.6c2,1.1,3.6,2.6,4.8,4.5c1.2,1.9,1.7,4.1,1.7,6.6
		c0,2.4-0.6,4.6-1.7,6.5c-1.2,1.9-2.8,3.4-4.8,4.5C269.4,189.3,267.1,189.8,264.5,189.8z M264.5,184c1.2,0,2.3-0.3,3.2-0.8
		c0.9-0.5,1.7-1.3,2.2-2.4c0.5-1,0.8-2.2,0.8-3.6c0-1.4-0.3-2.6-0.8-3.7c-0.5-1-1.3-1.8-2.2-2.3c-0.9-0.5-2-0.8-3.2-0.8
		s-2.3,0.3-3.2,0.8s-1.7,1.3-2.3,2.3c-0.6,1-0.8,2.2-0.8,3.7c0,1.4,0.3,2.6,0.8,3.6c0.6,1,1.3,1.8,2.3,2.4
		C262.2,183.7,263.3,184,264.5,184z"/>
	<path class="st4" d="M279.8,170.9v-5.5h17v5.5H279.8z M292.8,189.8c-2.9,0-5.1-0.7-6.8-2.2c-1.6-1.5-2.4-3.7-2.4-6.6v-21.6h7.1
		v21.5c0,1,0.3,1.8,0.8,2.4c0.5,0.6,1.3,0.8,2.2,0.8c1.1,0,2.1-0.3,2.9-0.9l1.9,5c-0.7,0.5-1.6,0.9-2.6,1.2
		C294.9,189.7,293.9,189.8,292.8,189.8z"/>
	<path class="st4" d="M313.5,189.8c-2.6,0-4.9-0.5-7-1.6s-3.6-2.6-4.8-4.5c-1.2-1.9-1.8-4.1-1.8-6.5c0-2.5,0.6-4.7,1.8-6.6
		c1.2-1.9,2.8-3.4,4.8-4.5c2-1.1,4.3-1.6,7-1.6c2.6,0,4.9,0.5,6.9,1.6c2,1.1,3.6,2.6,4.8,4.5c1.2,1.9,1.7,4.1,1.7,6.6
		c0,2.4-0.6,4.6-1.7,6.5c-1.2,1.9-2.8,3.4-4.8,4.5S316.1,189.8,313.5,189.8z M313.5,184c1.2,0,2.3-0.3,3.2-0.8
		c0.9-0.5,1.7-1.3,2.2-2.4c0.5-1,0.8-2.2,0.8-3.6c0-1.4-0.3-2.6-0.8-3.7c-0.5-1-1.3-1.8-2.2-2.3c-0.9-0.5-2-0.8-3.2-0.8
		s-2.3,0.3-3.2,0.8s-1.7,1.3-2.3,2.3c-0.6,1-0.8,2.2-0.8,3.7c0,1.4,0.3,2.6,0.8,3.6c0.6,1,1.3,1.8,2.3,2.4
		C311.2,183.7,312.3,184,313.5,184z"/>
	<path class="st4" d="M184.9,232.9v-8.3h32.2v8.3H184.9z M196.6,244.4v-31.3h8.7v31.3H196.6z"/>
</g>
<text transform="matrix(1 0 0 1 -369.8596 181.6032)"><tspan x="0" y="0" class="st4" style="font-family:'Montserrat-Bold'; font-size:45.67px;">Add Photo</tspan><tspan x="107.6" y="63" class="st4" style="font-family:'Montserrat-Bold'; font-size:67.67px; letter-spacing:1;">+</tspan></text>
</svg>
