<?xml version="1.0" encoding="utf-8"?>
<!-- Generator: Adobe Illustrator 26.0.3, SVG Export Plug-In . SVG Version: 6.00 Build 0)  -->
<svg version="1.1" id="Layer_1" xmlns="http://www.w3.org/2000/svg" xmlns:xlink="http://www.w3.org/1999/xlink" x="0px" y="0px"
	 viewBox="0 0 124.3 119" style="enable-background:new 0 0 124.3 119;" xml:space="preserve">
<style type="text/css">
	.st0{fill:#AB94B8;}
</style>
<g>
	<path class="st0" d="M60.5,0c1.1,0,2.2,0,3.3,0c0.2,0.1,0.3,0.2,0.5,0.2C71.8,1.6,76.4,8.6,74.5,16c-0.3,1.3-0.9,2.6-1.4,3.9
		c1.5,0.4,2.9,0.8,4.3,1.3c1.5,0.5,2.9,1,4.4,1.6c14.4,6.4,24,17.2,28.6,32.3c0.3,0.8,0.6,1.3,1.5,1.5c5.8,1.3,9.8,6.5,9.8,12.4
		c0,5.8-4,11-9.7,12.4c-1,0.2-1.4,0.7-1.7,1.6c-1.6,5.9-4.3,11.4-8.1,16.2c-13.1,16.3-30.1,22.7-50.7,18.8c-9.7-1.9-18-6.6-25-13.7
		c-6-6.1-10.2-13.3-12.6-21.5c-0.2-0.8-0.6-1.2-1.5-1.4c-3.1-0.7-5.5-2.4-7.4-4.9c-1.4-1.8-2-4-2.5-6.2c0-0.9,0-1.7,0-2.6
		c0.1-0.1,0.1-0.3,0.2-0.4c1-5.8,4.3-9.4,10-10.9c0.4-0.1,0.9-0.6,1-1c1.4-3.4,2.4-7,4.2-10.2c7.1-13,17.9-21.3,32.2-25
		c0.4-0.1,0.7-0.2,1.1-0.4c-0.2-0.3-0.3-0.6-0.4-0.8c-3.8-7.1-0.4-15.8,7.3-18.3C59,0.4,59.8,0.2,60.5,0z M103.3,56
		c-4.5-16.1-21.7-32.1-44.8-30.2C37.8,27.6,24.3,43.3,21.1,56C48.5,56,75.9,56,103.3,56z M62.1,74.7c15.2,0,30.4,0,45.6,0
		c0.6,0,1.2,0,1.7,0c3.5-0.3,5.9-3.7,5.1-7c-0.7-2.9-3-4.6-6.3-4.6c-30.8,0-61.5,0-92.3,0c-0.4,0-0.8,0-1.2,0
		c-3.7,0.4-6.1,4.1-4.9,7.7c0.9,2.6,3,4,6.3,4C31.5,74.7,46.8,74.7,62.1,74.7z M103.3,81.8c-9.9,0-19.7,0-29.6,0
		c0.2,0.4,0.3,0.8,0.4,1.1c2.5,6.2-0.4,13.7-6.6,16.3c-1.5,0.7-1.9,1.4-1.9,2.9c0.1,3.2,0,6.5,0,9.7C82,111.1,98.6,98.5,103.3,81.8z
		 M21,81.7c5,17.5,22.2,29.5,37.7,30c0-3.6,0-7.1,0-10.7c0-0.9-0.3-1.3-1.2-1.6c-5.6-2.1-9.1-8.1-8-14.1c0.2-1.2,0.6-2.4,1-3.7
		C40.7,81.7,30.9,81.7,21,81.7z M68,12.8C68,9.6,65.4,7,62.2,7c-3.2,0-5.8,2.6-5.8,5.9c0,3.2,2.6,5.8,5.8,5.8
		C65.4,18.6,68,16.1,68,12.8z M68,87.5c0-3.2-2.7-5.8-5.8-5.8c-3.2,0-5.8,2.7-5.8,5.9c0,3.2,2.7,5.8,5.8,5.8
		C65.4,93.4,68,90.8,68,87.5z"/>
</g>
</svg>
