<?xml version="1.0" encoding="utf-8"?>
<!-- Generator: Adobe Illustrator 26.0.3, SVG Export Plug-In . SVG Version: 6.00 Build 0)  -->
<svg version="1.1" id="Layer_1" xmlns="http://www.w3.org/2000/svg" xmlns:xlink="http://www.w3.org/1999/xlink" x="0px" y="0px"
	 viewBox="0 0 124.3 119" style="enable-background:new 0 0 124.3 119;" xml:space="preserve">
<style type="text/css">
	.st0{fill:#FD9F69;}
</style>
<g>
	<path class="st0" d="M2.6,67.3c0.5-1.5,0.9-3.2,1.7-4.5c2.4-4.3,6.3-6.6,11.2-6.6c7.3-0.1,14.5,0,21.8,0c23.7,0,47.5,0,71.2,0
		c6.4,0,11.4,3.8,12.9,9.8c1.9,7.7-3.8,15.5-11.8,15.8c-0.5,0-1,0-1.5,0c-30.6,0-61.2,0-91.8,0c-5.3,0-9.3-2-12-6.6
		c-0.8-1.4-1.1-3.1-1.7-4.7C2.6,69.4,2.6,68.3,2.6,67.3z"/>
	<path class="st0" d="M63.8,0c0.8,0.2,1.6,0.4,2.3,0.6c7.7,2.5,11.1,11.2,7.3,18.3c-0.1,0.2-0.2,0.5-0.4,0.9
		c7.9,1.8,14.9,5.2,21.1,10.3c6.2,5.1,10.9,11.4,14.2,18.9c-30.7,0-61.4,0-92.3,0C23.1,33.7,34.9,24,51.2,19.8
		c-0.5-1.3-1.1-2.6-1.4-3.9C47.9,8.6,52.6,1.6,60,0.2c0.2,0,0.4-0.1,0.5-0.2C61.6,0,62.7,0,63.8,0z M68,12.8C68,9.6,65.4,7,62.2,7
		c-3.2,0-5.8,2.6-5.8,5.8c0,3.2,2.6,5.8,5.8,5.8C65.4,18.7,68,16.1,68,12.8z"/>
	<path class="st0" d="M75,88.8c11.1,0,22.1,0,33.1,0c-6.5,16.6-24,29.2-42.4,30.1c0-0.3-0.1-0.7-0.1-1c0-5.6,0-11.2,0-16.9
		c0-0.8,0.2-1.1,0.9-1.4c4.5-1.8,7.3-5.1,8.2-9.9C74.8,89.4,74.9,89.1,75,88.8z"/>
	<path class="st0" d="M16,88.8c11.2,0,22.2,0,33.2,0c0.2,1,0.4,1.9,0.8,2.9c1.3,3.8,3.8,6.5,7.6,7.9c0.7,0.3,1.1,0.6,1.1,1.5
		c0,5.6,0,11.2,0,16.9c0,0.3,0,0.6,0,1.1c-8.2-0.6-15.7-3-22.6-7.2C27,106.3,20.4,98.6,16,88.8z"/>
</g>
</svg>
