<?xml version="1.0" encoding="utf-8"?>
<!-- Generator: Adobe Illustrator 26.0.3, SVG Export Plug-In . SVG Version: 6.00 Build 0)  -->
<svg version="1.1" id="Layer_1" xmlns="http://www.w3.org/2000/svg" xmlns:xlink="http://www.w3.org/1999/xlink" x="0px" y="0px"
	 viewBox="0 0 124.3 119" style="enable-background:new 0 0 124.3 119;" xml:space="preserve">
<style type="text/css">
	.st0{fill:#CDDFB8;}
	.st1{fill:#212120;}
	.st2{fill:#EEB3BA;}
	.st3{fill:#F2F2F2;}
	.st4{fill:#6DC07A;}
	.st5{fill:#473916;}
	.st6{fill:#473B3F;}
	.st7{fill:none;stroke:#473B3F;stroke-width:0.7868;stroke-linecap:round;stroke-miterlimit:10;}
	.st8{fill:none;stroke:#473B3F;stroke-width:1.5736;stroke-linecap:round;stroke-miterlimit:10;}
	.st9{fill:#FFFFFF;}
	.st10{fill:#EE485D;}
	.st11{fill:#DBA751;}
</style>
<g>
	<path class="st0" d="M121.7,59.5c0,27-18,49.8-42.7,57.1c-5.3,1.6-11,2.4-16.8,2.4C29.3,119,2.7,92.3,2.7,59.5
		C2.7,26.6,29.3,0,62.2,0c27.1,0,50,18.1,57.2,43C120.8,48.2,121.7,53.7,121.7,59.5z"/>
	<g>
		<path class="st1" d="M79.5,34.5c0,0,20-9.8,23.8-4.1c3.8,5.7-5.9,27.7-4.9,29.5c1,1.8-4.3,3.8-5.2,2.6
			C92.1,61.3,92.9,47.7,79.5,34.5z"/>
		<path class="st2" d="M94.9,56.1c-1.2-4.9-5-12-10.9-19.1c4-1.6,11.2-4.6,14.6-4.6c0.9,0,1.3,0.1,1.5,0.2
			c1.3,2.7-2.3,14.3-3.7,18.7C96.1,52.7,95.2,55.1,94.9,56.1z"/>
		<path class="st1" d="M44.9,34.5c0,0-20-9.8-23.8-4.1S27,58.1,26,59.9c-1,1.8,4.3,3.8,5.2,2.6C32.2,61.3,31.4,47.7,44.9,34.5z"/>
		<path class="st2" d="M29.4,56.1c-0.3-1-1.1-3.4-1.5-4.8c-1.4-4.4-4.9-16-3.7-18.7c0.2-0.1,0.6-0.2,1.5-0.2
			c3.5,0,10.3,3.1,14.3,4.7C34.1,44.3,30.6,51.1,29.4,56.1z"/>
		<path class="st3" d="M96.1,60.3c-1.3-13.2-10-24.6-22-29.4c-3.7-1.5-7.8-2.3-12-2.3c-0.6,0-1.2,0-1.8,0.1c-0.9,0-1.7,0.1-2.6,0.2
			c-0.9,0.1-1.9,0.3-2.8,0.5c-4.2,0.9-8,2.7-11.5,5C34.1,40.8,28,51.8,28,63.8c0,2.4,0.2,4.5,0.7,6.6c0.3,1.3,0.7,2.5,1.1,3.7
			c1.4,3.4,3.4,6.2,6.1,8.5c3.5,3,8,5.1,13.1,6.4c1.3,0.3,2.7,0.6,4.1,0.8c2.9,0.4,5.9,0.7,9.1,0.7c3.1,0,6.2-0.2,9.1-0.7
			c1.4-0.2,2.8-0.5,4.1-0.8c12-2.9,20.5-10.5,21-23.9c0-0.4,0-0.8,0-1.2C96.3,62.6,96.3,61.5,96.1,60.3z M67.4,46.8
			c-2.8-3.7-4.8-8.6-5.2-11.3c0.4,0.3,0.9,0.7,1.4,1c5.4,3.7,8.5,2.5,16.7,9.2c8.2,6.7,8.8,2.8,11.9,9.7c0.4,0.8,0.7,1.6,0.9,2.3
			C83.2,50.6,70.2,50.6,67.4,46.8z"/>
		<path class="st1" d="M54.3,37.7c-3.5,7.3-5,5.9-3.3,11.7c1.7,5.7,4.7,12.3-1.4,18.2c-4.4,4.3-13.9,6.8-19.8,6.5
			c-1.2-3-1.8-6.4-1.8-10.2C28,47.3,39.6,32.9,55,29.5C56.7,30.1,57.5,31.2,54.3,37.7z"/>
		<circle class="st4" cx="43.5" cy="64.4" r="7.6"/>
		<ellipse transform="matrix(0.9248 -0.3805 0.3805 0.9248 -21.2482 21.3882)" class="st5" cx="43.5" cy="64.4" rx="5.6" ry="5.6"/>
		<path class="st6" d="M35.9,62.4c0,0,0-0.3,0.2-0.8c0.1-0.2,0.2-0.5,0.3-0.9c0.2-0.3,0.3-0.7,0.6-1.1c0.1-0.2,0.2-0.4,0.4-0.6
			c0.1-0.2,0.3-0.4,0.5-0.6c0.3-0.4,0.7-0.8,1.2-1.1c0.2-0.2,0.5-0.3,0.7-0.5c0.2-0.2,0.5-0.3,0.8-0.4c0.5-0.3,1.1-0.4,1.7-0.6
			c0.6-0.1,1.2-0.2,1.8-0.2c0.3,0,0.6,0,0.9,0.1c0.3,0,0.6,0,0.8,0.1c0.5,0.1,1.1,0.2,1.5,0.4c0.5,0.2,0.9,0.4,1.3,0.5
			c0.4,0.2,0.7,0.4,1,0.6c0.3,0.2,0.6,0.3,0.8,0.5c0.4,0.3,0.7,0.4,0.7,0.4s-0.3-0.1-0.7-0.3c-0.5-0.2-1.1-0.5-1.9-0.7
			c-0.4-0.1-0.8-0.2-1.3-0.4c-0.5-0.1-1-0.2-1.5-0.3c-0.5-0.1-1,0-1.6-0.1c-0.5,0-1.1,0.1-1.6,0.2c-0.5,0.2-1.1,0.2-1.5,0.5
			c-0.2,0.1-0.5,0.2-0.7,0.3c-0.2,0.1-0.4,0.3-0.7,0.4c-0.2,0.1-0.4,0.3-0.6,0.5c-0.2,0.2-0.4,0.3-0.5,0.5c-0.3,0.3-0.7,0.7-0.9,1
			c-0.3,0.3-0.5,0.6-0.7,0.9c-0.2,0.3-0.4,0.5-0.5,0.8C36,62.1,35.9,62.4,35.9,62.4z"/>
		<line class="st7" x1="62.2" y1="73" x2="62.2" y2="76.8"/>
		<path class="st8" d="M52.8,74c0,0-0.8,6.5,9.4,3.1"/>
		<path class="st8" d="M71.5,74c0,0,0.8,6.5-9.4,3.1"/>
		<ellipse class="st9" cx="45.8" cy="63.3" rx="3.8" ry="4"/>
		<path class="st9" d="M44.6,68.8c0,0.7-0.5,1.2-1.2,1.2c-0.7,0-1.2-0.5-1.2-1.2c0-0.7,0.5-1.2,1.2-1.2
			C44.1,67.6,44.6,68.1,44.6,68.8z"/>
		<circle class="st4" cx="80.9" cy="64.4" r="7.6"/>
		<circle class="st5" cx="80.9" cy="64.4" r="5.6"/>
		<ellipse class="st9" cx="78.5" cy="63.3" rx="3.8" ry="4"/>
		<path class="st9" d="M79.7,68.8c0,0.7,0.5,1.2,1.2,1.2c0.7,0,1.2-0.5,1.2-1.2c0-0.7-0.5-1.2-1.2-1.2
			C80.2,67.6,79.7,68.1,79.7,68.8z"/>
		<path class="st6" d="M39.4,49c0,0,0-0.8,0.5-1.8c0.2-0.5,0.6-1.1,1.1-1.7c0.5-0.6,1.1-1.1,1.8-1.5c0.4-0.2,0.7-0.4,1.1-0.5
			c0.2-0.1,0.4-0.1,0.6-0.1c0.2,0,0.4,0,0.6,0c0.4,0,0.8,0,1.1,0.1c0.2,0,0.3,0,0.5,0.1c0.2,0.1,0.3,0.1,0.4,0.2
			c0.3,0.1,0.5,0.2,0.7,0.3c0.2,0.1,0.4,0.3,0.5,0.4c0.3,0.2,0.4,0.3,0.4,0.3s-0.2,0-0.5,0c-0.2,0-0.4,0-0.6,0c-0.2,0-0.5,0-0.7,0
			c-0.3,0-0.5,0-0.8,0.1c-0.3,0-0.5,0.1-0.8,0.2c-0.1,0-0.3,0.1-0.4,0.1c-0.1,0.1-0.3,0.1-0.4,0.2c-0.3,0.1-0.5,0.2-0.8,0.4
			c-0.3,0.1-0.5,0.3-0.8,0.5c-0.2,0.2-0.5,0.3-0.7,0.5c-0.5,0.4-0.9,0.8-1.3,1.1C40,48.5,39.4,49,39.4,49z"/>
		<path class="st10" d="M65.3,68.9c-1.3-0.4-2.3,0.4-3.1,1.3c-0.8-0.9-1.8-1.7-3.1-1.3c-1.7,0.5-1.9,1.6-1,2.9
			c0.9,1.3,4,2.2,4.1,2.2c0.1,0,3.3-1,4.1-2.2C67.2,70.5,67,69.3,65.3,68.9z"/>
		<path class="st9" d="M62.1,71.6c-0.7-0.2-1.9-0.7-2.2-1.1c-0.2-0.3-0.3-0.5-0.2-0.6c0-0.1,0.2-0.2,0.5-0.3c0.1,0,0.2,0,0.3,0
			c0.3,0,0.7,0.2,1.1,0.7c0.1,0.1,0.3,0.2,0.5,0.2l0,0c0.2,0,0.3-0.1,0.5-0.2c0.4-0.5,0.8-0.7,1.1-0.7c0.1,0,0.2,0,0.3,0
			c0.3,0.1,0.5,0.2,0.5,0.3c0,0.1,0,0.4-0.2,0.6C64,70.9,62.8,71.4,62.1,71.6z"/>
		<path class="st1" d="M96.3,63.8c0,0.4,0,0.8,0,1.2c-2.2-0.3-1.6-2.6-3.2-7.2c-0.2-0.7-0.5-1.5-0.9-2.3c-3-7-3.7-3-11.9-9.7
			C72.2,39,69,40.2,63.6,36.5c-0.5-0.3-1-0.7-1.4-1C58.9,33,57,30.6,57.8,29c1.4-0.2,2.9-0.3,4.3-0.3c4.2,0,8.3,0.8,12,2.3
			c11.9,4.7,20.6,16.2,22,29.4C96.3,61.5,96.3,62.6,96.3,63.8z"/>
		<path class="st11" d="M93.1,57.8c-9.9-7.2-22.9-7.2-25.7-11c-2.8-3.7-4.8-8.6-5.2-11.3c0.4,0.3,0.9,0.7,1.4,1
			c5.4,3.7,8.5,2.5,16.7,9.2c8.2,6.7,8.8,2.8,11.9,9.7C92.6,56.3,92.9,57.1,93.1,57.8z"/>
		<path class="st6" d="M73.3,58.3c0,0,0.2-0.2,0.7-0.4c0.2-0.1,0.5-0.3,0.8-0.5c0.3-0.2,0.6-0.4,1-0.6c0.4-0.2,0.8-0.4,1.3-0.6
			c0.5-0.2,1-0.3,1.5-0.4c0.3-0.1,0.5-0.1,0.8-0.1c0.3,0,0.6,0,0.9-0.1c0.6,0,1.2,0.1,1.8,0.2c0.6,0.2,1.2,0.3,1.7,0.6
			c0.3,0.1,0.5,0.3,0.8,0.4c0.2,0.2,0.5,0.3,0.7,0.5c0.4,0.3,0.8,0.7,1.2,1.1c0.2,0.2,0.3,0.4,0.5,0.6c0.1,0.2,0.3,0.4,0.4,0.6
			c0.3,0.4,0.4,0.7,0.6,1.1c0.1,0.3,0.3,0.6,0.3,0.9c0.2,0.5,0.2,0.8,0.2,0.8s-0.1-0.3-0.4-0.7c-0.1-0.2-0.3-0.5-0.5-0.8
			c-0.2-0.3-0.4-0.6-0.7-0.9c-0.3-0.3-0.6-0.7-0.9-1c-0.2-0.2-0.4-0.3-0.5-0.5c-0.2-0.1-0.4-0.3-0.6-0.5c-0.2-0.1-0.4-0.3-0.7-0.4
			c-0.2-0.1-0.5-0.2-0.7-0.3c-0.5-0.3-1-0.3-1.5-0.5c-0.5-0.1-1.1-0.2-1.6-0.2c-0.5,0-1.1,0-1.6,0.1c-0.5,0.1-1,0.1-1.5,0.3
			c-0.5,0.1-0.9,0.3-1.3,0.4c-0.8,0.2-1.5,0.5-1.9,0.7C73.6,58.2,73.3,58.3,73.3,58.3z"/>
		<path class="st6" d="M85,49c0,0-0.6-0.5-1.4-1.2c-0.4-0.3-0.8-0.7-1.3-1.1c-0.2-0.2-0.5-0.4-0.7-0.5c-0.3-0.2-0.5-0.3-0.8-0.5
			c-0.3-0.1-0.5-0.3-0.8-0.4c-0.1-0.1-0.3-0.1-0.4-0.2c-0.1,0-0.3-0.1-0.4-0.1c-0.3-0.1-0.6-0.1-0.8-0.2c-0.3-0.1-0.5-0.1-0.8-0.1
			c-0.2,0-0.5-0.1-0.7,0c-0.2,0-0.4,0-0.6,0c-0.3,0-0.5,0-0.5,0s0.1-0.1,0.4-0.3c0.1-0.1,0.3-0.2,0.5-0.4c0.2-0.1,0.4-0.2,0.7-0.3
			c0.1-0.1,0.3-0.1,0.4-0.2c0.2,0,0.3-0.1,0.5-0.1c0.3-0.1,0.7-0.1,1.1-0.1c0.2,0,0.4,0,0.6,0c0.2,0,0.4,0.1,0.6,0.1
			c0.4,0.1,0.8,0.3,1.1,0.5c0.7,0.4,1.3,0.9,1.8,1.5c0.5,0.5,0.8,1.1,1.1,1.7C85,48.2,85,49,85,49z"/>
	</g>
</g>
</svg>
