<?xml version="1.0" encoding="utf-8"?>
<!-- Generator: Adobe Illustrator 26.0.3, SVG Export Plug-In . SVG Version: 6.00 Build 0)  -->
<svg version="1.1" id="Layer_1" xmlns="http://www.w3.org/2000/svg" xmlns:xlink="http://www.w3.org/1999/xlink" x="0px" y="0px"
	 viewBox="0 0 124.3 119" style="enable-background:new 0 0 124.3 119;" xml:space="preserve">
<style type="text/css">
	.st0{fill:#F9A227;}
	.st1{fill:#FBD65D;}
	.st2{fill:#9C6700;}
	.st3{fill:#FFFBF0;}
	.st4{opacity:0.84;}
	.st5{clip-path:url(#SVGID_00000051343064038544225660000008337966923043886996_);fill:#E2DAC5;}
	.st6{clip-path:url(#SVGID_00000009584531948654718400000007636070996203211671_);fill:#E2DAC5;}
	.st7{opacity:0.38;}
	.st8{clip-path:url(#SVGID_00000019670519565630920030000017190534579271497625_);fill:#E2DAC5;}
	.st9{fill:#9B3118;}
	.st10{fill:#302813;}
	.st11{fill:#C9502B;}
	.st12{fill:#513B09;}
	.st13{fill:#E2DAC5;}
	.st14{fill:#FFFFFF;}
</style>
<g>
	<path class="st0" d="M121.7,59.5c0,27-18,49.9-42.7,57.1c-5.3,1.6-11,2.4-16.8,2.4C29.3,119,2.7,92.3,2.7,59.5
		C2.7,26.6,29.3,0,62.2,0c27.1,0,50,18.1,57.2,43C120.8,48.2,121.7,53.7,121.7,59.5z"/>
	<g>
		<g>
			<g>
				<path class="st1" d="M97.9,64.1c-1.2-3.1-4.2-5.1-6.6-7.6c-1.4-1.4-2.6-2.7-3.8-3.9c0,0,0-0.1,0-0.1c1.9-9.4,3.7-19,2.1-28.6
					c0,0,0,0,0,0c0-0.2-0.1-0.6-0.1-0.8c0-0.2-0.1-0.4-0.1-0.6c-0.1-0.5-0.2-1-0.4-1.5c-0.1-0.3-0.3-0.6-0.5-0.7
					c-0.5-0.7-1.4-0.8-2.1-0.2c-1.9,1.5-3.4,3.5-4.9,5.3c-1.6,1.9-3.2,3.9-4.7,6c-1.3,1.9-2.4,4-3.4,6.1c-0.5,1.2-1.1,2.6-1.3,4
					c-5.9-2.2-12.3-2.3-18.4-0.1c-0.4,0.2-0.9,0.3-1.3,0.5c-0.1-1.4-0.7-2.8-1.3-4.1c-0.9-2.2-2.1-4.2-3.4-6.2c-1.4-2.1-3-4.1-4.6-6
					c-1.5-1.8-3.1-3.8-4.9-5.3c-0.7-0.6-1.6-0.5-2.1,0.2c-0.2,0.2-0.4,0.4-0.5,0.7c-0.2,0.5-0.3,1-0.4,1.5c-0.1,0.2-0.1,0.4-0.1,0.6
					c0,0.2-0.1,0.6-0.1,0.8c0,0,0,0,0,0c-1.7,9.6,0.2,19.2,2.1,28.6c0,0.2,0.1,0.4,0.2,0.5c-4.6,4.9-10.7,8.4-11.4,14.6
					C24.9,76,32,84.7,39,88.2c7,3.4,12.5,9.4,20.3,10.8c8.5,1.6,14.1-4.5,21.3-8.5c5.6-3.1,12-6.3,15.3-12.2
					C98.4,73.9,99.4,68.3,97.9,64.1z"/>
			</g>
			<g>
				<g>
					<path class="st2" d="M99.6,63.7c-1-2.6-2.9-4.5-4.9-6.3c-2.1-1.9-4-4-6-6c0.2,0.6,0.3,1.2,0.5,1.8c0.3-1.1,0.4-2.2,0.7-3.3
						c0.2-1.2,0.4-2.3,0.6-3.5c0.4-2.3,0.8-4.6,1-6.9c0.5-4.5,0.7-9,0.1-13.5c-0.1-0.7-0.2-1.3-0.3-2c0-0.2-0.1-0.4-0.1-0.6
						c0.1,0.7,0-0.1,0-0.2c-0.1-1-0.3-2-0.6-3c-0.3-0.7-0.6-1.1-1.2-1.5c0.2,0.2-0.2-0.3-0.2-0.2c-0.2-0.1-0.3-0.2-0.5-0.3
						c-1.1-0.5-2.3-0.4-3.3,0.3c-1.7,1.2-3.1,3-4.5,4.7c-1.4,1.7-2.9,3.5-4.2,5.3c-1.5,1.9-2.8,4-3.9,6.1c-1.1,2.2-2.2,4.5-2.5,6.9
						c0.8-0.6,1.5-1.2,2.3-1.7c-6.7-2.5-14.1-2.3-20.7,0.4c0.8,0.6,1.5,1.2,2.3,1.7C54,39.6,53,37.5,52,35.4c-0.9-1.9-2-3.8-3.3-5.5
						c-1.3-1.8-2.7-3.6-4.2-5.4c-1.4-1.6-2.7-3.4-4.3-4.8c-0.8-0.8-1.7-1.5-2.8-1.6c-0.6,0-1.1,0.1-1.7,0.3
						c-0.5,0.3-0.8,0.6-1.1,0.9C33.9,20,33.7,21,33.5,22c-0.1,0.5-0.2,1-0.3,1.6c0,0.1-0.1,0.9,0,0.2c0,0.4-0.1,0.8-0.2,1.2
						c-0.7,4.6-0.6,9.3-0.2,14c0.3,2.6,0.7,5.2,1.1,7.8c0.2,1.3,0.5,2.5,0.7,3.8c0.2,1.2,0.3,2.7,1,3.8c0.1-0.7,0.2-1.5,0.3-2.2
						c-2.8,3-6.2,5.4-8.8,8.7c-1.3,1.6-2.3,3.4-2.8,5.4c-0.5,2.1-0.5,4.3-0.1,6.4c0.8,4.3,3.3,8.3,6.3,11.4c1.5,1.6,3.2,3,5,4.2
						c1.8,1.2,3.7,2,5.5,3.1c3.7,2.3,7.2,5,11.1,7c4.1,2.1,8.6,3.3,13.1,2.4c4.1-0.8,7.7-3.2,11.1-5.4c1.8-1.2,3.7-2.4,5.6-3.5
						c1.8-1,3.6-2,5.3-3c3.7-2.2,7.2-4.9,9.6-8.6c2.5-3.8,3.9-8.8,3.4-13.3C100.2,65.8,100,64.7,99.6,63.7c-0.3-0.9-1.2-1.5-2.2-1.3
						c-0.9,0.2-1.6,1.3-1.3,2.2c1.3,3.6,0.6,7.9-1.1,11.4c-1.7,3.6-4.4,6.2-7.6,8.4c-3.3,2.2-6.9,3.9-10.2,6c-3.2,2-6.5,4.6-9.9,5.9
						c-3.7,1.5-7.3,1.3-11.1-0.1c-3.8-1.4-7.1-3.9-10.4-6.1c-1.7-1.2-3.5-2.3-5.4-3.2c-1.7-0.9-3.3-1.8-4.7-2.9
						c-3-2.4-5.6-5.6-7-9.1c-0.7-1.8-1.1-3.5-1.2-5.4c0-1.7,0.4-3.2,1.2-4.7c1.8-3.1,4.9-5.5,7.6-8.1c0.7-0.7,1.5-1.4,2.1-2.1
						c0.5-0.6,0.7-1.5,0.3-2.2c-0.2-0.3,0,0.2-0.1-0.4c0-0.2-0.1-0.4-0.1-0.6c-0.1-0.5-0.2-1-0.3-1.4c-0.2-1.1-0.4-2.1-0.6-3.2
						c-0.4-2-0.7-3.9-1-5.9c-0.5-4.1-0.8-8.2-0.5-12.3c0.1-1.7,0.3-3.6,0.6-5.2c0-0.2,0.2-0.6,0.2-0.9c0,0,0.2-0.7,0.2-0.7
						c0.1,0-0.3,0.3-0.3,0.4c0.1-0.1,0.2-0.2,0.4-0.3c0.2-0.2,0.2-0.2,0.1-0.1c0,0-0.2,0.1-0.2,0.1c0,0.1-0.1-0.1-0.1,0
						c0,0,0.6,0.5,0.6,0.5c1.4,1.3,2.6,2.8,3.8,4.2c1.2,1.5,2.4,2.9,3.6,4.5c1.3,1.7,2.4,3.4,3.4,5.3c0.9,1.7,2,3.7,2.2,5.6
						c0.1,1,1.1,2.2,2.3,1.7c6-2.5,12.6-2.7,18.8-0.4c1.2,0.5,2.2-0.7,2.3-1.7c0.2-1.7,1.1-3.4,1.8-4.8c0.8-1.7,1.8-3.3,2.9-4.9
						c2.2-3,4.6-6.1,7.1-8.8c0.3-0.3,0.6-0.6,1-0.9c0.1-0.1,0.3-0.2,0.4-0.4c0.4-0.4,0.2-0.1,0.2-0.2c0,0-0.6-0.4-0.2,0
						c0.1,0,0.1,0.1,0.2,0.1c0.3,0.2,0.2,0.2-0.1-0.1c0-0.2,0-0.1,0.1,0.2c0,0.1,0.1,0.2,0.1,0.4c0.4,1.5,0.6,3.2,0.7,4.8
						c0.4,4,0.3,8-0.2,12c-0.2,2.2-0.6,4.4-1,6.5c-0.2,1.2-0.4,2.3-0.6,3.5c-0.2,1.1-0.4,2.2-0.7,3.3c-0.2,0.6,0,1.3,0.5,1.8
						c1.9,1.9,3.7,3.9,5.7,5.7c1.6,1.5,3.5,3,4.3,5c0.4,0.9,1.2,1.5,2.2,1.3C99.2,65.7,100,64.6,99.6,63.7z"/>
				</g>
			</g>
		</g>
		<g>
			<path class="st1" d="M35,24.2c0-0.1,0-0.1,0-0.2c0-0.3,0-0.5,0-0.8c0-0.2,0.1-0.4,0.1-0.5c0.1-0.5,0.2-1,0.4-1.5
				c0.1-0.3,0.3-0.6,0.5-0.7c0.5-0.7,1.4-0.8,2.1-0.2c1.9,1.5,3.4,3.5,4.9,5.3c1.5,1.8,3,3.7,4.4,5.7c1.4,2,2.6,4.1,3.5,6.3
				c0.9,2,2,4.5,0.9,6.6c-0.2,0.4-0.5,0.6-0.9,0.7c-0.1,0.1-0.2,0.2-0.4,0.3c-4,2.2-8.3,4.2-11.1,7.9c-0.6,0.9-2.3,1-2.5-0.3
				C35.2,43.4,33.3,33.8,35,24.2z"/>
		</g>
		<g>
			<path class="st3" d="M38.9,32.2c0,0,0-0.1,0-0.1c0-0.2,0-0.3,0-0.5c0-0.1,0-0.2,0.1-0.3c0.1-0.3,0.1-0.6,0.2-0.9
				c0.1-0.2,0.2-0.4,0.3-0.5c0.3-0.4,0.9-0.5,1.3-0.1c1.1,0.9,2.1,2.1,3,3.3c1,1.1,1.9,2.3,2.7,3.5c0.9,1.2,1.6,2.5,2.2,3.9
				c0.5,1.2,1.2,2.8,0.6,4.1C49.2,44.8,49,45,48.8,45c-0.1,0.1-0.1,0.2-0.3,0.2c-2.5,1.4-5.1,2.6-6.8,4.9c-0.4,0.5-1.4,0.6-1.6-0.2
				C39,44.1,37.9,38.2,38.9,32.2z"/>
		</g>
		<g>
			<path class="st1" d="M89.5,24c0-0.1,0-0.1,0-0.2c0-0.3,0-0.5,0-0.8c0-0.2-0.1-0.4-0.1-0.5c-0.1-0.5-0.2-1-0.4-1.5
				c-0.1-0.3-0.3-0.6-0.5-0.7c-0.5-0.7-1.4-0.8-2.1-0.2c-1.9,1.5-3.4,3.5-4.9,5.3c-1.5,1.8-3,3.7-4.4,5.7c-1.4,2-2.6,4.1-3.5,6.3
				c-0.9,2-2,4.5-0.9,6.6c0.2,0.4,0.5,0.6,0.9,0.7c0.1,0.1,0.2,0.2,0.4,0.3c4,2.2,8.3,4.2,11.1,7.9c0.6,0.9,2.3,1,2.5-0.3
				C89.4,43.2,91.2,33.6,89.5,24z"/>
		</g>
		<g>
			<path class="st3" d="M85,32.2c0,0,0-0.1,0-0.1c0-0.2,0-0.3,0-0.5c0-0.1,0-0.2-0.1-0.3c-0.1-0.3-0.1-0.6-0.2-0.9
				c-0.1-0.2-0.2-0.4-0.3-0.5c-0.3-0.4-0.9-0.5-1.3-0.1c-1.1,0.9-2.1,2.1-3,3.3c-1,1.1-1.9,2.3-2.7,3.5c-0.9,1.2-1.6,2.5-2.2,3.9
				c-0.5,1.2-1.2,2.8-0.6,4.1c0.1,0.2,0.3,0.4,0.5,0.4c0.1,0.1,0.1,0.2,0.3,0.2c2.5,1.4,5.1,2.6,6.8,4.9c0.4,0.5,1.4,0.6,1.6-0.2
				C84.9,44.1,86,38.2,85,32.2z"/>
		</g>
		<g class="st4">
			<g>
				<defs>
					<path id="SVGID_1_" d="M38.9,32.2c0,0,0-0.1,0-0.1c0-0.2,0-0.3,0-0.5c0-0.1,0-0.2,0.1-0.3c0.1-0.3,0.1-0.6,0.2-0.9
						c0.1-0.2,0.2-0.4,0.3-0.5c0.3-0.4,0.9-0.5,1.3-0.1c1.1,0.9,2.1,2.1,3,3.3c1,1.1,1.9,2.3,2.7,3.5c0.9,1.2,1.6,2.5,2.2,3.9
						c0.5,1.2,1.2,2.8,0.6,4.1C49.2,44.8,49,45,48.8,45c-0.1,0.1-0.1,0.2-0.3,0.2c-2.5,1.4-5.1,2.6-6.8,4.9
						c-0.4,0.5-1.4,0.6-1.6-0.2C39,44.1,37.9,38.2,38.9,32.2z"/>
				</defs>
				<clipPath id="SVGID_00000172438656318140101230000009531745383434243215_">
					<use xlink:href="#SVGID_1_"  style="overflow:visible;"/>
				</clipPath>
				
					<rect x="37.9" y="29.5" style="clip-path:url(#SVGID_00000172438656318140101230000009531745383434243215_);fill:#E2DAC5;" width="12.2" height="21.2"/>
				<path style="clip-path:url(#SVGID_00000172438656318140101230000009531745383434243215_);fill:#E2DAC5;" d="M41.9,37.7
					c3.3-1.3,7.6,2.2,9.8,7.8h-1v5.8h-8.8v2.5c-0.8-1.1-1.4-2.3-2-3.7C37.7,44.4,38.6,38.9,41.9,37.7z"/>
				
					<ellipse transform="matrix(0.9334 -0.3589 0.3589 0.9334 -14.082 19.6016)" style="clip-path:url(#SVGID_00000172438656318140101230000009531745383434243215_);fill:#E2DAC5;" cx="45.8" cy="47.7" rx="3.2" ry="5.4"/>
			</g>
		</g>
		<g class="st4">
			<g>
				<defs>
					<path id="SVGID_00000137816317274313543210000015780543299973310904_" d="M85,32.2c0,0,0-0.1,0-0.1c0-0.2,0-0.3,0-0.5
						c0-0.1,0-0.2-0.1-0.3c-0.1-0.3-0.1-0.6-0.2-0.9c-0.1-0.2-0.2-0.4-0.3-0.5c-0.3-0.4-0.9-0.5-1.3-0.1c-1.1,0.9-2.1,2.1-3,3.3
						c-1,1.1-1.9,2.3-2.7,3.5c-0.9,1.2-1.6,2.5-2.2,3.9c-0.5,1.2-1.2,2.8-0.6,4.1c0.1,0.2,0.3,0.4,0.5,0.4c0.1,0.1,0.1,0.2,0.3,0.2
						c2.5,1.4,5.1,2.6,6.8,4.9c0.4,0.5,1.4,0.6,1.6-0.2C84.9,44.1,86,38.2,85,32.2z"/>
				</defs>
				<clipPath id="SVGID_00000018223497092291443820000018100076183181733766_">
					<use xlink:href="#SVGID_00000137816317274313543210000015780543299973310904_"  style="overflow:visible;"/>
				</clipPath>
				
					<rect x="73.9" y="29.5" style="clip-path:url(#SVGID_00000018223497092291443820000018100076183181733766_);fill:#E2DAC5;" width="12.2" height="21.2"/>
				<path style="clip-path:url(#SVGID_00000018223497092291443820000018100076183181733766_);fill:#E2DAC5;" d="M81.5,36.5
					c3.7,1.3,5,7.3,2.9,13.3c-0.5,1.5-1.2,2.9-2,4.1v-2.6h-9.1v-6.1H71C73.1,39.1,77.8,35.2,81.5,36.5z"/>
				
					<ellipse transform="matrix(0.3289 -0.9444 0.9444 0.3289 7.2733 105.1978)" style="clip-path:url(#SVGID_00000018223497092291443820000018100076183181733766_);fill:#E2DAC5;" cx="77.7" cy="47.5" rx="5.8" ry="3.5"/>
			</g>
		</g>
		<g>
			<path class="st1" d="M97.9,64.1c-1.2-3.1-4.2-5.1-6.6-7.6C85,50.1,81.2,46.1,75.5,43c-6.7-3.6-14.4-4.3-21.8-1.6
				c-6.5,2.3-11.3,6.5-16,11.5c-5.2,5.5-11.1,8.9-11.9,15.3C24.9,76.4,32,84.5,39,88.2c7,3.6,12.5,9.4,20.3,10.8
				c8.5,1.6,14.1-4.5,21.3-8.5c5.6-3.1,12-6.3,15.3-12.2C98.4,73.9,99.4,68.3,97.9,64.1z"/>
		</g>
		<g>
			<g>
				<path class="st3" d="M39,88.2C46,91.8,51.6,97.5,59.4,99c8.5,1.6,14.1-4.5,21.3-8.5c5.6-3.1,12-6.3,15.3-12.2
					c0.2-0.4,0.4-0.8,0.6-1.3c1-3.4,1.9-8.2,0.1-11.3c-2.1-3.7-7.8-5.5-12.2-5.2c-4.1,0.3-6.6,1.1-10.3,2.8c-1,0.5-2,1-3,1.5
					c-1.4,0.4-2.8,0.7-4.2,1.1c-1.5,0.4-2.9,1-4.3,1.3c-0.5,0-0.9,0-1.4,0c-3.2-0.6-6.5-1.6-9.5-2.8c-2.7-1.3-5.3-3.1-8.3-3.5
					c-1.1-0.2-2.3-0.3-3.4-0.5c-2.3,0-4.4,0.6-6.4,1.7c-2.8,1.7-5.4,3.9-6.3,7c-0.5,1.8-0.6,4-0.3,5.8C28.7,80.3,32.6,84.8,39,88.2z
					"/>
			</g>
			<g class="st7">
				<g>
					<defs>
						<path id="SVGID_00000109715154646453560850000001647874732628263812_" d="M39,88.2c6.9,3.7,12.5,9.4,20.3,10.8
							c8.5,1.6,14.1-4.5,21.3-8.5c5.6-3.1,12-6.3,15.3-12.2c0.2-0.4,0.4-0.8,0.6-1.3c1-3.4,1.9-8.2,0.1-11.3
							c-2.1-3.7-7.8-5.5-12.2-5.2c-4.1,0.3-6.6,1.1-10.3,2.8c-1,0.5-2,1-3,1.5c-1.4,0.4-2.8,0.7-4.2,1.1c-1.5,0.4-2.9,1-4.3,1.3
							c-0.5,0-0.9,0-1.4,0c-3.2-0.6-6.5-1.6-9.5-2.8c-2.7-1.3-5.3-3.1-8.3-3.5c-1.1-0.2-2.3-0.3-3.4-0.5c-2.3,0-4.4,0.6-6.4,1.7
							c-2.8,1.7-5,4.4-5.9,7.6c-0.5,1.8-0.6,3.7-0.3,5.6C29.3,80.8,32.6,84.7,39,88.2z"/>
					</defs>
					<clipPath id="SVGID_00000005971420751212010900000014824469402427270832_">
						<use xlink:href="#SVGID_00000109715154646453560850000001647874732628263812_"  style="overflow:visible;"/>
					</clipPath>
					
						<rect x="27.2" y="60.2" style="clip-path:url(#SVGID_00000005971420751212010900000014824469402427270832_);fill:#E2DAC5;" width="71.2" height="40.4"/>
					<path style="clip-path:url(#SVGID_00000005971420751212010900000014824469402427270832_);fill:#E2DAC5;" d="M38,103.1
						c0-8.8,11.3-16,25.2-16s25.2,7.2,25.2,16v-1.9H38V103.1z"/>
					<path style="clip-path:url(#SVGID_00000005971420751212010900000014824469402427270832_);fill:#E2DAC5;" d="M50.6,103.1
						c0-4.4,5.6-8,12.6-8s12.6,3.6,12.6,8v-1.9H50.6V103.1z"/>
				</g>
			</g>
		</g>
		<g>
			<g>
				<path class="st9" d="M44.1,71.2c2.2,2.5,4.5,5,6.7,7.5c2.1,2.3,2.9,5.7,5.3,7.9c2,1.9,4.8,3.1,7.5,2.7c2.2-0.3,4.2-1.7,5.6-3.4
					c2.1-2.5,3.3-5.5,5.2-8.1c1.9-2.7,3.4-4.8,5.7-7.2"/>
			</g>
			<g>
				<g>
					<path class="st10" d="M43.5,71.8c1.4,1.6,2.8,3.2,4.3,4.8c1.2,1.4,2.6,2.7,3.6,4.3c0.9,1.4,1.5,2.9,2.4,4.3
						c0.9,1.4,2.1,2.5,3.5,3.4c2.9,1.9,6.5,2.3,9.6,0.6c3.1-1.8,4.9-5,6.6-8.1c2.1-3.5,4.5-7,7.4-9.9c0.8-0.8-0.5-2.1-1.3-1.3
						c-2.4,2.4-4.4,5.2-6.3,8c-1.9,2.8-3.2,6.2-5.8,8.5c-1.2,1.1-2.7,1.9-4.3,2c-1.6,0.1-3.2-0.4-4.6-1.2c-1.4-0.8-2.5-1.9-3.3-3.2
						c-0.8-1.3-1.4-2.7-2.2-4c-1-1.6-2.4-3-3.6-4.4c-1.5-1.7-3-3.4-4.6-5.1C44,69.6,42.7,70.9,43.5,71.8L43.5,71.8z"/>
				</g>
			</g>
		</g>
		<g>
			<g>
				<path class="st11" d="M72.1,81c-3.9-2.7-9.8-0.3-9.8-0.3s-4.2-2.8-9.6,0.6c1,1.8,1.9,3.8,3.4,5.2c2,1.9,4.8,3.1,7.5,2.7
					c2.2-0.3,4.2-1.7,5.6-3.4c1.2-1.4,2.2-3.1,3.1-4.7C72.3,81.1,72.2,81.1,72.1,81z"/>
			</g>
			<g>
				<g>
					<path class="st10" d="M72.6,80.2c-3-2-7.3-1.7-10.5-0.3c0.2,0,0.5,0.1,0.7,0.1c-3.2-2-7.5-1.2-10.5,0.6
						c-0.4,0.3-0.6,0.8-0.3,1.2c1.2,2.1,2.2,4.3,4.1,5.8c1.8,1.5,4,2.5,6.4,2.6c5.3,0.1,8.3-4.7,10.7-8.7
						C73.4,81.1,73.1,80.4,72.6,80.2C72.6,80.2,72.6,80.2,72.6,80.2c-1.1-0.5-2,1.1-0.9,1.6c0.2,0.1,0.3,0.1,0.5,0.2
						c-0.2-0.4-0.4-0.9-0.5-1.3c-2,3.4-4.5,7.9-9.1,7.8c-2,0-4-1-5.5-2.4c-1.6-1.4-2.5-3.3-3.5-5.1c-0.1,0.4-0.2,0.8-0.3,1.2
						c1.9-1.2,4.2-1.9,6.5-1.4c0.6,0.1,1.3,0.3,1.7,0.6c0.4,0.2,0.7,0.4,1.1,0.3c0.3-0.1,0.6-0.2,0.8-0.3c0.8-0.2,1.5-0.4,2.3-0.6
						c2-0.3,4.2-0.2,5.9,1C72.6,82.5,73.5,80.9,72.6,80.2z"/>
				</g>
			</g>
		</g>
		<g>
			<g>
				<path class="st12" d="M78.2,57c-0.1-0.9-0.8-1.5-1.8-1.3c-3.4,0.4-4.4,6.1-1.4,6.4C77.2,62.3,78.4,58.7,78.2,57z"/>
			</g>
			<g>
				<g>
					<path class="st10" d="M79.1,57c-0.1-1-0.7-2-1.8-2.2c-0.9-0.2-1.8,0.1-2.5,0.5c-1.2,0.7-2,2-2.3,3.4c-0.2,1.2-0.1,2.8,0.9,3.6
						c1.3,1.1,3,0.8,4.1-0.4c0.6-0.7,1-1.6,1.3-2.5C79.1,58.6,79.2,57.8,79.1,57c-0.1-0.5-0.4-0.9-0.9-0.9c-0.5,0-1,0.4-0.9,0.9
						c0,0.2,0,0.5,0,0.7c0,0.1,0,0.2,0,0.2c0-0.2,0-0.1,0,0c0,0.2-0.1,0.3-0.1,0.5c-0.1,0.3-0.2,0.6-0.3,0.9c0,0.1-0.1,0.1-0.1,0.2
						c0.1-0.2,0,0,0,0.1c-0.1,0.1-0.1,0.3-0.2,0.4c-0.1,0.1-0.1,0.2-0.2,0.4c0,0.1-0.1,0.2,0,0c-0.1,0.1-0.1,0.1-0.2,0.2
						c-0.1,0.1-0.2,0.2-0.3,0.3c-0.1,0.1,0,0,0.1,0c0,0-0.1,0.1-0.1,0.1c-0.1,0-0.1,0.1-0.2,0.1c0,0-0.1,0-0.1,0c0,0,0.2-0.1,0.1,0
						c-0.1,0-0.1,0-0.2,0.1c0,0-0.2,0.1-0.1,0c0.1,0-0.1,0-0.1,0c0,0-0.2,0-0.2,0c0,0,0.2,0,0,0c-0.1,0-0.1,0-0.2,0c0,0,0,0-0.1,0
						c-0.2-0.1,0,0,0.1,0c0,0-0.2-0.1-0.3-0.1c-0.1-0.1,0.1,0.1,0,0c0,0-0.1-0.1-0.1-0.1c0,0-0.2-0.1,0,0c0.1,0.1,0,0,0,0
						c0,0-0.2-0.2-0.2-0.3c0,0,0.1,0.2,0,0c0,0,0-0.1,0-0.1c0,0-0.1-0.3-0.1-0.3c0,0,0,0.2,0,0c0-0.1,0-0.1,0-0.2c0-0.1,0-0.2,0-0.4
						c0-0.1,0-0.1,0-0.2c0-0.1,0.1-0.3,0,0c0-0.1,0-0.3,0.1-0.4c0-0.1,0.1-0.2,0.1-0.3c0-0.1,0-0.1,0.1-0.2c0-0.1,0.1-0.2,0,0
						c0.1-0.2,0.2-0.5,0.4-0.7c0-0.1,0.1-0.1,0.1-0.2c0.1-0.1-0.1,0.1,0,0c0.1-0.1,0.2-0.2,0.3-0.3c0.1-0.1,0.1-0.1,0.2-0.1
						c0,0,0.2-0.2,0.1-0.1c-0.1,0.1,0.1,0,0.1-0.1c0.1,0,0.1-0.1,0.2-0.1c0.1,0,0.1-0.1,0.2-0.1c0.1-0.1-0.1,0-0.1,0
						c0,0,0.1,0,0.1,0c0.1,0,0.3-0.1,0.4-0.1c0,0,0.1,0,0.1,0c0.1,0-0.2,0,0,0c0.1,0,0.2,0,0.3,0c0,0,0.1,0,0,0c-0.1,0,0.1,0,0.1,0
						c0,0,0.1,0,0.1,0c-0.1,0-0.1,0,0,0c0,0,0.1,0,0.1,0.1c-0.1,0-0.1-0.1,0,0c0,0,0,0.1,0.1,0.1c0.1,0.1-0.1-0.1,0,0
						c0,0.1,0.1,0.2,0.1,0.1c0,0.1,0.1,0.3,0.1,0.2c0.1,0.5,0.4,0.9,0.9,0.9C78.7,57.9,79.2,57.5,79.1,57z"/>
				</g>
			</g>
		</g>
		<g>
			<g>
				<path class="st12" d="M48.2,55.6c-0.6-0.4-1.7-0.7-2.4,0c-1.2,1.1-0.1,4,0.8,4.9c0.8,0.8,2,1.3,2.9,0.7c0.6-0.5,0.8-1.3,0.7-2.1
					C50,58.2,50,56.8,48.2,55.6z"/>
			</g>
			<g>
				<g>
					<path class="st10" d="M48.6,54.9c-0.7-0.4-1.5-0.6-2.4-0.5c-0.8,0.2-1.5,0.8-1.8,1.6c-0.2,0.7-0.2,1.4-0.1,2.1
						c0.1,0.7,0.4,1.3,0.7,1.9c0.6,1.3,1.9,2.4,3.5,2.4c0.9,0,1.8-0.5,2.2-1.3c0.4-0.7,0.4-1.5,0.3-2.2c-0.1-0.7-0.2-1.3-0.5-2
						C50.1,56,49.4,55.3,48.6,54.9c-0.4-0.3-1-0.1-1.2,0.3c-0.2,0.4-0.1,1,0.3,1.2c0.1,0.1,0.2,0.1,0.3,0.2c0,0,0.2,0.2,0.1,0.1
						c0.1,0.1,0.2,0.2,0.3,0.3c0.1,0.1,0.2,0.2,0.3,0.3c0.1,0.1-0.1-0.2,0,0c0,0.1,0.1,0.2,0.1,0.2c0.1,0.1,0.1,0.2,0.1,0.3
						c-0.1-0.2,0,0.1,0.1,0.2c0.1,0.2,0.1,0.4,0.2,0.6c0,0,0,0.1,0,0.2c0-0.2,0-0.2,0-0.1c0,0.1,0,0.2,0,0.3c0,0.3,0,0.5,0,0.8
						c0,0.1,0.1-0.2,0,0c0,0.1,0,0.2-0.1,0.2c0,0-0.1,0.3,0,0.1c0,0,0,0.1-0.1,0.1c0,0-0.2,0.2,0,0.1c0,0.1-0.1,0.1-0.2,0.2
						c0,0,0.1-0.1,0,0c0,0-0.1,0.1-0.1,0.1c0.1,0,0.1,0,0,0c-0.1,0-0.1,0-0.2,0.1c0,0,0.2,0,0,0c-0.1,0-0.2,0-0.2,0c0.2,0,0,0-0.1,0
						c-0.1,0-0.1,0-0.2,0c0,0-0.3-0.1-0.1,0c-0.2-0.1-0.3-0.1-0.4-0.2c-0.1,0-0.1-0.1-0.2-0.1c0.1,0.1-0.1-0.1-0.1-0.1
						c-0.1-0.1-0.2-0.2-0.2-0.2c-0.1-0.1-0.1-0.1,0,0c0,0,0-0.1-0.1-0.1c-0.1-0.1-0.1-0.2-0.2-0.3c-0.1-0.2-0.2-0.4-0.3-0.6
						c-0.1-0.2,0.1,0.2,0,0c0-0.1-0.1-0.1-0.1-0.2c0-0.1-0.1-0.3-0.1-0.4c-0.1-0.2-0.1-0.5-0.2-0.8c0,0.2,0-0.1,0-0.2
						c0-0.1,0-0.3,0-0.4c0,0,0-0.2,0-0.2c0,0.1,0,0.2,0,0.1c0,0,0-0.1,0-0.1c0,0,0-0.1,0-0.1c0.1-0.2-0.1,0.1,0,0
						c0,0,0.1-0.1,0.1-0.1c0.1-0.1-0.1,0.1,0,0c0,0,0.2-0.1,0,0c0.1,0,0.1-0.1,0.2-0.1c-0.2,0.1,0,0,0.1,0c0,0,0.1,0,0.1,0
						c-0.1,0-0.1,0,0,0c0.1,0,0.1,0,0.2,0c0.1,0,0.1,0,0.2,0c-0.1,0-0.1,0,0,0c0.1,0,0.3,0.1,0.4,0.1c0.2,0.1-0.2-0.1,0,0
						c0.1,0,0.2,0.1,0.2,0.1c0.4,0.2,1,0.1,1.2-0.3C49.2,55.7,49,55.1,48.6,54.9z"/>
				</g>
			</g>
		</g>
		<g>
			<path class="st3" d="M77.4,52.4c0.5-0.7,0.5-1.5,0.1-2.2c0-0.2-0.1-0.4-0.3-0.6c-0.8-1.1-2.5-2-3.9-1.6c-2,0.6-1.5,2.9-0.3,4.1
				C74.1,53.2,76.3,53.8,77.4,52.4z"/>
		</g>
		<g>
			<path class="st3" d="M49.8,48.3c-0.6,0.2-1.5,0.4-2,0.8c-0.6,0.5-0.8,1.2-0.7,1.9c0,0.5,0.2,1.1,0.5,1.5c0.6,0.7,1.6,0.8,2.5,0.7
				c1.4-0.2,3.2-1.4,3.3-3C53.6,48.4,51.2,48,49.8,48.3z"/>
		</g>
		<g>
			<g>
				<path class="st3" d="M42.6,70.5c3.1,0.7,4.7,4.2,7.4,6c1.6,1.1,3.6,1.5,5.5,1.6c1,0.1,2.1,0,3.1-0.2c2-0.5,3.2-1.6,4-3.5
					c0.4,1.4,1.3,2.6,2.6,3.2c1.3,0.6,2.8,0.7,4.3,0.7c1.2,0,2.5-0.1,3.6-0.6c3.4-1.5,4.5-6.1,7.8-7.6"/>
			</g>
			<g>
				<g>
					<path class="st10" d="M42.4,71.4c1.9,0.5,3.2,2.1,4.5,3.5c1.5,1.6,3.1,2.9,5.3,3.5c2.3,0.7,5,0.9,7.3,0.1c1.9-0.7,3.2-2,4-3.9
						c-0.6,0-1.2,0-1.7,0c0.7,2.2,2.3,3.7,4.5,4.2c2.3,0.5,5.1,0.6,7.3-0.4c3.5-1.6,4.4-6,7.8-7.6c1.1-0.5,0.1-2.1-0.9-1.6
						c-3.1,1.5-4.1,5-6.7,7c-1.6,1.3-3.9,1.3-5.9,1c-1-0.1-2.1-0.3-2.9-0.9c-0.7-0.5-1.2-1.4-1.5-2.2c-0.3-0.9-1.4-0.8-1.7,0
						c-0.7,1.7-2.1,2.6-3.9,2.9c-2.1,0.3-4.7,0-6.6-1c-3.2-1.7-4.7-5.5-8.4-6.5C41.7,69.4,41.2,71.1,42.4,71.4L42.4,71.4z"/>
				</g>
			</g>
		</g>
		<g>
			<g>
				<path class="st13" d="M56.5,95c2.1,0.9,4.3,1.8,6.6,1.9c2.1,0.1,4.1-0.6,5.7-1.9c0.9-0.8-0.4-2-1.3-1.3
					c-2.9,2.5-7.1,1.1-10.1-0.2c-0.4-0.2-1-0.1-1.2,0.3C55.9,94.1,56,94.8,56.5,95L56.5,95z"/>
			</g>
		</g>
		<g>
			<path class="st14" d="M48.6,56.9c-1,0-1,1.5,0,1.5C49.6,58.4,49.6,56.9,48.6,56.9z"/>
		</g>
		<g>
			<path class="st14" d="M77.2,57.4c-1,0-1,1.5,0,1.5C78.2,58.9,78.2,57.4,77.2,57.4z"/>
		</g>
		<g>
			<g>
				<path class="st2" d="M36.7,54.5c3.2-3.1,6.9-5.5,10.2-8.3c0.9-0.8-0.4-2-1.3-1.3c-3.3,2.9-7,5.3-10.2,8.3
					C34.6,54,35.9,55.3,36.7,54.5L36.7,54.5z"/>
			</g>
		</g>
		<g>
			<g>
				<path class="st2" d="M90,53.2c-3.1-3.2-6.4-6.6-10.3-8.8c-1-0.6-1.9,1-0.9,1.6c3.8,2.1,7,5.3,10,8.5C89.5,55.3,90.8,54,90,53.2
					L90,53.2z"/>
			</g>
		</g>
		<g>
			<path class="st10" d="M70.9,67.8c0.5-1,0.3-5.9-5.1-5.6c-3,0.1-6-0.2-9.7,0.1c-2.3,0.4-4.3,2.9-3.5,5.2c1.2,3.3,7.5,7,9.7,6.9
				C64.9,74.2,69.5,70.6,70.9,67.8z"/>
		</g>
	</g>
</g>
</svg>
