<?xml version="1.0" encoding="utf-8"?>
<!-- Generator: Adobe Illustrator 26.0.3, SVG Export Plug-In . SVG Version: 6.00 Build 0)  -->
<svg version="1.1" id="Layer_1" xmlns="http://www.w3.org/2000/svg" xmlns:xlink="http://www.w3.org/1999/xlink" x="0px" y="0px"
	 viewBox="0 0 124.3 119" style="enable-background:new 0 0 124.3 119;" xml:space="preserve">
<style type="text/css">
	.st0{fill:#E6A7CA;}
	.st1{fill:#AF6928;}
	.st2{fill:#EEB3BA;}
	.st3{fill:#212120;}
	.st4{fill:#A36028;}
	.st5{fill:#EAD941;}
	.st6{fill:#473916;}
	.st7{fill:#473B3F;}
	.st8{fill:#AD6928;}
	.st9{fill:#1F1F1F;}
	.st10{fill:#FFFFFF;}
	.st11{fill:#AC6828;}
	.st12{fill:#EE485D;}
</style>
<g>
	<path class="st0" d="M121.6,59.5c0,27-18,49.8-42.7,57.1c-5.3,1.6-11,2.4-16.8,2.4C29.3,119,2.7,92.3,2.7,59.5
		C2.7,26.6,29.3,0,62.2,0c27.1,0,50,18.1,57.1,42.9C120.8,48.2,121.6,53.7,121.6,59.5z"/>
	<path class="st1" d="M79.5,34.5c0,0,20-9.8,23.8-4.1c3.8,5.7-5.9,27.7-4.9,29.5c1,1.8-4.3,3.8-5.2,2.6
		C92.1,61.3,92.9,47.7,79.5,34.5z"/>
	<path class="st2" d="M95.4,54.8c-1.2-4.9-5.5-10.9-11.5-18c4-1.6,11.2-4.4,14.7-4.4c0.9,0,1.3,0.1,1.5,0.2
		c1.3,2.7-2.3,14.3-3.7,18.7C96.1,52.7,95.7,53.8,95.4,54.8z"/>
	<path class="st3" d="M44.9,34.5c0,0-20-9.8-23.8-4.1C17.3,36.1,27,58.1,26,59.9c-1,1.8,4.3,3.8,5.2,2.6
		C32.2,61.3,31.4,47.7,44.9,34.5z"/>
	<path class="st2" d="M28.9,54.8c-0.3-1-0.6-2.1-1.1-3.5c-1.4-4.4-4.9-16-3.7-18.7c0.2-0.1,0.6-0.2,1.5-0.2c3.5,0,10.6,2.7,14.7,4.4
		C34.5,43.9,30.1,49.9,28.9,54.8z"/>
	<polygon class="st3" points="25.9,63.8 25.3,65.2 27.5,66.5 25.7,68.1 26,69.5 27.8,70.5 27.7,71.9 27.4,73.5 29.2,74.3 28.7,76 
		29,77.5 31,78 31.1,79.6 32,80.7 34.1,80.8 35.1,81.7 35.8,83 37.3,83.4 38.6,84 39.5,85.1 40.3,86.7 41.8,86.8 43.5,86.6 
		44.4,88.2 46.2,87.5 47.5,88.2 49.1,88 50.1,89.9 51.6,89.9 53,90.5 54.4,90.9 55.9,90 57.4,89.1 58.7,90.4 60,90.4 61,89.9 
		61.5,89.4 62.1,89 64.2,87.6 64.2,86.2 64.2,85.2 63.7,83.6 64.5,82.6 64.9,80.2 63.1,79.4 63.4,78.1 62.8,76.7 63.4,75.3 62.4,74 
		63.1,72.6 63.4,71.2 64,69.9 63.7,68.5 63.6,67.1 62.8,65.8 63.2,64.4 61.7,63 62.4,61.7 63,60.3 63.1,59.3 62.9,57.5 63.4,56.2 
		63.1,54.8 63.4,53.4 61.9,52.1 62.2,50.7 63.4,49.3 63.9,47.2 62,46.6 63.5,45.2 64.5,44.2 63.4,42.4 63,41.1 62.5,39.7 63,38.3 
		63.6,37 63.3,35.6 61.6,34.2 63.6,32.7 62.8,31.5 63.6,30.1 62.9,29.1 61.3,29.1 60,29.3 58.6,29.8 57.1,29.2 55.4,28.2 54.2,29.5 
		52.8,30.1 51.4,30.4 50.5,31.9 49.3,32.6 47.7,32.6 46.1,32.5 45.1,33.6 43.5,33.7 42.5,34.8 41.3,35.6 40.4,36.7 39,37.3 
		38.6,38.8 37.9,40 36.2,40.4 35.3,41.5 34.6,42.6 32.7,43.1 31.4,43.9 31.5,45.6 30.9,46.8 31.3,48.5 30.8,49.8 28.4,50.3 28,51.6 
		29.3,53.5 28.4,54.6 27,55.7 26.3,56.9 27.8,58.6 25.9,59.7 25.6,61 26.8,62.5 	"/>
	<polygon class="st4" points="61.3,28.3 61.3,30 62.3,31.4 63.1,32.8 61.4,34.1 62.9,35.5 63.1,36.9 62.7,38.3 61.2,39.6 62.3,41 
		61.9,42.4 63.1,43.7 62.7,45.1 61.2,46.5 63.1,47.8 61.5,49.2 61.2,50.6 61.4,51.9 63.4,53.3 61.5,54.7 61.5,56 63.1,57.4 
		61.9,58.8 62.2,60.2 61.9,61.5 61.3,62.9 63.3,64.3 61.4,65.6 61.5,67 63,68.4 62.5,69.8 61.8,71.1 63,72.5 61.9,73.9 61.4,75.2 
		62.7,76.6 61.9,78 61.8,79.4 63.2,80.7 63.2,82.1 62.7,83.5 63.1,84.9 63.4,86.2 62.8,87.6 61.7,89 62.3,90.4 63.7,89.6 65.1,90.8 
		66.3,89.5 67.7,89.8 68.9,89.1 70.4,90.6 71.7,90.1 73.2,90.2 74.7,90.1 75.8,88.9 76.9,87.5 78.6,88.3 79.9,87.8 81.1,87.1 
		82,85.6 83.4,85.5 84.8,85.1 86,84.4 86.9,83.3 88.2,82.8 88.8,81.4 90.6,81.3 91.8,80.5 92.9,79.6 93.3,78.1 94.5,77.2 94.3,75.6 
		95.5,74.6 96.3,73.4 97.3,72.3 97.4,70.8 97.6,69.4 97.1,67.9 97.6,66.6 96.3,65.1 96.9,63.8 97.5,62.4 96.5,61.1 97.2,59.7 
		97.5,58.3 97,57 97,55.6 95.2,54.6 95.1,53.3 95.7,51.6 94.1,50.8 93.4,49.6 94.1,47.8 92.6,47.1 92.7,45.4 91.6,44.5 90.5,43.6 
		90,42.2 89.6,40.8 88.5,39.9 86.3,40 85.4,39 84.4,38.1 84.6,35.9 83.1,35.5 82.2,34.3 80.5,34.4 79.1,34.1 78.3,32.7 77.7,31 
		76,31.2 74.6,31 73.3,30.4 71.7,31 70.3,30.8 69.2,29.9 68,28.9 66.5,29.2 65.2,28.4 63.8,28.7 	"/>
	<circle class="st5" cx="43.5" cy="64.5" r="7.6"/>
	<circle class="st6" cx="43.5" cy="64.5" r="5.6"/>
	<path class="st7" d="M35.9,62.4c0,0,0-0.3,0.2-0.8c0.1-0.2,0.2-0.5,0.3-0.9c0.2-0.3,0.3-0.7,0.6-1.1c0.1-0.2,0.2-0.4,0.4-0.6
		c0.1-0.2,0.3-0.4,0.5-0.6c0.3-0.4,0.7-0.8,1.2-1.1c0.2-0.2,0.5-0.3,0.7-0.5c0.2-0.2,0.5-0.3,0.8-0.4c0.5-0.3,1.1-0.4,1.7-0.6
		c0.6-0.1,1.2-0.2,1.8-0.2c0.3,0,0.6,0,0.9,0.1c0.3,0,0.6,0,0.8,0.1c0.5,0.1,1.1,0.2,1.5,0.4c0.5,0.2,0.9,0.4,1.3,0.5
		c0.4,0.2,0.7,0.4,1,0.6c0.3,0.2,0.6,0.3,0.8,0.5c0.4,0.3,0.7,0.4,0.7,0.4s-0.3-0.1-0.7-0.3c-0.5-0.2-1.1-0.5-1.9-0.7
		c-0.4-0.1-0.8-0.2-1.3-0.4c-0.5-0.1-1-0.2-1.5-0.3c-0.5-0.1-1,0-1.6-0.1c-0.5,0-1.1,0.1-1.6,0.2c-0.5,0.2-1.1,0.2-1.5,0.5
		c-0.2,0.1-0.5,0.2-0.7,0.3c-0.2,0.1-0.4,0.3-0.7,0.4c-0.2,0.1-0.4,0.3-0.6,0.5c-0.2,0.2-0.4,0.3-0.5,0.5c-0.3,0.3-0.7,0.7-0.9,1
		c-0.3,0.3-0.5,0.6-0.7,0.9c-0.2,0.3-0.4,0.5-0.5,0.8C36,62.1,35.9,62.4,35.9,62.4z"/>
	<g>
		<path class="st8" d="M57.2,78.6c-1.4,0-2.6-0.3-3.4-1c-1.7-1.4-1.4-3.5-1.4-3.6c0-0.3,0.3-0.4,0.5-0.4c0.3,0,0.4,0.3,0.4,0.5
			c0,0-0.2,1.7,1.1,2.8c1.4,1.1,4,1.1,7.7-0.2c0.2-0.1,0.3,0.1,0.4,0.3c0.1,0.2,0.1,0.5-0.1,0.6C60.3,78.2,58.6,78.6,57.2,78.6z"/>
	</g>
	<g>
		<path class="st9" d="M67.6,78.6c-1.4,0-3.2-0.3-5.2-1c-0.2-0.1-0.2-0.3-0.1-0.6c0.1-0.2,0.1-0.4,0.4-0.3c3.6,1.2,6.3,1.3,7.7,0.2
			c1.3-1,1.1-2.7,1.1-2.8c0-0.3,0.2-0.5,0.4-0.5c0.3,0,0.5,0.2,0.5,0.4c0,0.1,0.3,2.3-1.4,3.6C70.2,78.2,69,78.6,67.6,78.6z"/>
	</g>
	<ellipse class="st10" cx="45.8" cy="63.3" rx="3.8" ry="4"/>
	<circle class="st10" cx="43.5" cy="68.8" r="1.2"/>
	<circle class="st5" cx="80.9" cy="64.5" r="7.6"/>
	<circle class="st6" cx="80.9" cy="64.5" r="5.6"/>
	<path class="st7" d="M88.4,62.4c0,0-0.1-0.3-0.4-0.7c-0.1-0.2-0.3-0.5-0.5-0.8c-0.2-0.3-0.4-0.6-0.7-0.9c-0.3-0.3-0.6-0.7-0.9-1
		c-0.2-0.2-0.4-0.3-0.5-0.5c-0.2-0.1-0.4-0.3-0.6-0.5c-0.2-0.1-0.4-0.3-0.7-0.4c-0.2-0.1-0.5-0.2-0.7-0.3c-0.5-0.3-1-0.3-1.5-0.5
		c-0.5-0.1-1.1-0.2-1.6-0.2c-0.5,0-1.1,0-1.6,0.1c-0.5,0.1-1,0.1-1.5,0.3c-0.5,0.1-0.9,0.3-1.3,0.4c-0.8,0.2-1.5,0.5-1.9,0.7
		c-0.5,0.2-0.7,0.3-0.7,0.3s0.2-0.2,0.7-0.4c0.2-0.1,0.5-0.3,0.8-0.5c0.3-0.2,0.6-0.4,1-0.6c0.4-0.2,0.8-0.4,1.3-0.5
		c0.5-0.2,1-0.3,1.5-0.4c0.3-0.1,0.6-0.1,0.8-0.1c0.3,0,0.6,0,0.9-0.1c0.6,0,1.2,0.1,1.8,0.2c0.6,0.2,1.2,0.3,1.7,0.6
		c0.3,0.1,0.5,0.3,0.8,0.4c0.2,0.2,0.5,0.3,0.7,0.5c0.4,0.3,0.8,0.7,1.2,1.1c0.2,0.2,0.3,0.4,0.5,0.6c0.1,0.2,0.3,0.4,0.4,0.6
		c0.3,0.4,0.4,0.7,0.6,1.1c0.1,0.3,0.3,0.6,0.3,0.9C88.4,62.1,88.4,62.4,88.4,62.4z"/>
	<ellipse class="st10" cx="78.5" cy="63.3" rx="3.8" ry="4"/>
	<circle class="st10" cx="80.9" cy="68.8" r="1.2"/>
	<path class="st11" d="M39.4,49c0,0,0-0.8,0.5-1.8c0.2-0.5,0.6-1.1,1.1-1.7c0.5-0.6,1.1-1.1,1.8-1.5c0.4-0.2,0.7-0.4,1.1-0.5
		c0.2-0.1,0.4-0.1,0.6-0.1c0.2,0,0.4,0,0.6,0c0.4,0,0.8,0,1.1,0.1c0.2,0,0.3,0,0.5,0.1c0.2,0.1,0.3,0.1,0.4,0.2
		c0.3,0.1,0.5,0.2,0.7,0.3c0.2,0.1,0.4,0.3,0.5,0.4c0.3,0.2,0.4,0.3,0.4,0.3s-0.2,0-0.5,0c-0.2,0-0.4,0-0.6,0c-0.2,0-0.5,0-0.7,0
		c-0.2,0-0.5,0-0.8,0.1c-0.3,0-0.5,0.1-0.8,0.2c-0.1,0-0.3,0.1-0.4,0.1c-0.1,0.1-0.3,0.1-0.4,0.2c-0.3,0.1-0.5,0.2-0.8,0.4
		c-0.3,0.1-0.5,0.3-0.8,0.5c-0.2,0.2-0.5,0.3-0.7,0.5c-0.5,0.4-0.9,0.8-1.3,1.1C40,48.5,39.4,49,39.4,49z"/>
	<path class="st9" d="M85,49c0,0-0.6-0.5-1.4-1.2c-0.4-0.3-0.8-0.7-1.3-1.1c-0.2-0.2-0.5-0.4-0.7-0.5c-0.3-0.2-0.5-0.3-0.8-0.5
		c-0.3-0.1-0.5-0.3-0.8-0.4c-0.1-0.1-0.3-0.1-0.4-0.2c-0.1,0-0.3-0.1-0.4-0.1c-0.3-0.1-0.6-0.1-0.8-0.2c-0.3-0.1-0.5-0.1-0.8-0.1
		c-0.2,0-0.5-0.1-0.7,0c-0.2,0-0.4,0-0.6,0c-0.3,0-0.5,0-0.5,0s0.1-0.1,0.4-0.3c0.1-0.1,0.3-0.2,0.5-0.4c0.2-0.1,0.4-0.2,0.7-0.3
		c0.1-0.1,0.3-0.1,0.4-0.2c0.2,0,0.3-0.1,0.5-0.1c0.3-0.1,0.7-0.1,1.1-0.1c0.2,0,0.4,0,0.6,0c0.2,0,0.4,0.1,0.6,0.1
		c0.4,0.1,0.8,0.3,1.1,0.5c0.7,0.4,1.3,0.9,1.8,1.5c0.5,0.5,0.8,1.1,1.1,1.7C85,48.3,85,49,85,49z"/>
	<path class="st12" d="M65.3,68.9c-1.3-0.4-2.3,0.4-3.1,1.3c-0.8-0.9-1.8-1.7-3.1-1.3c-1.7,0.5-1.9,1.6-1,2.9c0.9,1.2,4,2.2,4.1,2.2
		c0.1,0,3.3-1,4.1-2.2C67.2,70.5,67,69.3,65.3,68.9z"/>
	<path class="st10" d="M62.1,71.7c-0.7-0.2-1.9-0.7-2.2-1.1c-0.2-0.3-0.3-0.5-0.2-0.6c0-0.1,0.2-0.2,0.5-0.3c0.1,0,0.2,0,0.3,0
		c0.3,0,0.7,0.2,1.1,0.7c0.1,0.1,0.3,0.2,0.5,0.2l0,0c0.2,0,0.3-0.1,0.5-0.2c0.4-0.5,0.8-0.7,1.1-0.7c0.1,0,0.2,0,0.3,0
		c0.3,0.1,0.5,0.2,0.5,0.3c0,0.1,0,0.4-0.2,0.6C64,71,62.8,71.5,62.1,71.7z"/>
</g>
</svg>
