<?xml version="1.0" encoding="utf-8"?>
<!-- Generator: Adobe Illustrator 26.0.3, SVG Export Plug-In . SVG Version: 6.00 Build 0)  -->
<svg version="1.1" id="Layer_1" xmlns="http://www.w3.org/2000/svg" xmlns:xlink="http://www.w3.org/1999/xlink" x="0px" y="0px"
	 viewBox="0 0 124.3 119" style="enable-background:new 0 0 124.3 119;" xml:space="preserve">
<style type="text/css">
	.st0{fill:#F9A227;}
	.st1{fill:#A8999D;}
	.st2{fill:#EEB3BA;}
	.st3{fill:#9B8E91;}
	.st4{fill:#FFFFFF;}
	.st5{fill:#EAD941;}
	.st6{fill:#473916;}
	.st7{fill:#473B3F;}
	.st8{fill:none;stroke:#473B3F;stroke-width:0.7868;stroke-miterlimit:10;}
	.st9{fill:#EE485D;}
	.st10{fill:none;stroke:#473B3F;stroke-width:1.5736;stroke-linecap:round;stroke-miterlimit:10;}
</style>
<g>
	<path class="st0" d="M121.6,59.5c0,27-18,49.8-42.7,57.1c-5.3,1.6-11,2.4-16.8,2.4C29.3,119,2.7,92.3,2.7,59.5
		C2.7,26.6,29.3,0,62.2,0c27.1,0,50,18.1,57.1,42.9C120.8,48.2,121.6,53.7,121.6,59.5z"/>
	<g>
		<path class="st1" d="M79.5,34.5c0,0,20-9.8,23.8-4.1c3.8,5.7-5.9,27.7-4.9,29.5c1,1.8-4.3,3.8-5.2,2.6
			C92.1,61.3,92.9,47.7,79.5,34.5z"/>
		<path class="st2" d="M95.4,54.8c-1.2-4.9-5.5-10.9-11.5-18c4-1.6,11.2-4.4,14.7-4.4c0.9,0,1.3,0.1,1.5,0.2
			c1.3,2.7-2.3,14.3-3.7,18.7C96.1,52.7,95.7,53.8,95.4,54.8z"/>
		<path class="st1" d="M44.9,34.5c0,0-20-9.8-23.8-4.1C17.3,36.1,27,58.1,26,59.9c-1,1.8,4.3,3.8,5.2,2.6
			C32.2,61.3,31.4,47.7,44.9,34.5z"/>
		<path class="st2" d="M28.9,54.8c-0.3-1-0.6-2.1-1.1-3.5c-1.4-4.4-4.9-16-3.7-18.7c0.2-0.1,0.6-0.2,1.5-0.2
			c3.5,0,10.6,2.7,14.7,4.4C34.5,43.9,30.1,49.8,28.9,54.8z"/>
		<path class="st3" d="M96.3,63.8c0,14.2-8.7,22.1-21,25.1c-1.3,0.3-2.7,0.6-4.1,0.8c-2.9,0.4-5.9,0.7-9.1,0.7s-6.2-0.2-9.1-0.7
			c-1.4-0.2-2.8-0.5-4.1-0.8c-12.4-3-21-10.9-21-25.1c0-18.9,15.3-35.1,34.2-35.1C81,28.7,96.3,44.9,96.3,63.8z"/>
		<path class="st4" d="M77.8,78.5c0,7.1-7,10-15.6,10c-8.6,0-15.6-2.9-15.6-10c0-7.1,7-13.2,15.6-13.2
			C70.8,65.3,77.8,71.4,77.8,78.5z"/>
		<path class="st5" d="M51,64.4c0,4.2-3.4,7.6-7.6,7.6c-4.2,0-7.6-3.4-7.6-7.6c0-4.2,3.4-7.6,7.6-7.6C47.6,56.9,51,60.3,51,64.4z"/>
		<path class="st6" d="M43.5,70.1c-3.1,0-5.6-2.5-5.6-5.6c0-3.1,2.5-5.7,5.6-5.7c3.1,0,5.6,2.5,5.6,5.7
			C49.1,67.6,46.6,70.1,43.5,70.1z"/>
		<path class="st7" d="M35.9,62.4c0,0,0-0.3,0.2-0.8c0.1-0.2,0.2-0.5,0.3-0.9c0.2-0.3,0.3-0.7,0.6-1.1c0.1-0.2,0.2-0.4,0.4-0.6
			c0.1-0.2,0.3-0.4,0.5-0.6c0.3-0.4,0.7-0.8,1.2-1.1c0.2-0.2,0.5-0.3,0.7-0.5c0.2-0.2,0.5-0.3,0.8-0.4c0.5-0.3,1.1-0.4,1.7-0.6
			c0.6-0.1,1.2-0.2,1.8-0.2c0.3,0,0.6,0,0.9,0.1c0.3,0,0.6,0,0.8,0.1c0.5,0.1,1.1,0.2,1.5,0.4c0.5,0.2,0.9,0.4,1.3,0.5
			c0.4,0.2,0.7,0.4,1,0.6c0.3,0.2,0.6,0.3,0.8,0.5c0.4,0.3,0.7,0.4,0.7,0.4s-0.3-0.1-0.7-0.3c-0.5-0.2-1.1-0.5-1.9-0.7
			c-0.4-0.1-0.8-0.2-1.3-0.4c-0.5-0.1-1-0.2-1.5-0.3c-0.5-0.1-1,0-1.6-0.1c-0.5,0-1.1,0.1-1.6,0.2c-0.5,0.2-1.1,0.2-1.5,0.5
			c-0.2,0.1-0.5,0.2-0.7,0.3c-0.2,0.1-0.4,0.3-0.7,0.4c-0.2,0.1-0.4,0.3-0.6,0.5c-0.2,0.2-0.4,0.3-0.5,0.5c-0.3,0.3-0.7,0.7-0.9,1
			c-0.3,0.3-0.5,0.6-0.7,0.9c-0.2,0.3-0.4,0.5-0.5,0.8C36,62.1,35.9,62.4,35.9,62.4z"/>
		<line class="st8" x1="62.2" y1="73" x2="62.2" y2="76.8"/>
		<path class="st9" d="M65.3,68.9c-1.3-0.4-2.3,0.4-3.1,1.3c-0.8-0.9-1.8-1.7-3.1-1.3c-1.7,0.5-1.9,1.6-1,2.9c0.9,1.3,4,2.2,4.1,2.2
			c0.1,0,3.3-1,4.1-2.2C67.2,70.5,67,69.3,65.3,68.9z"/>
		<path class="st4" d="M62.2,71.5c-0.7-0.2-1.9-0.7-2.2-1.1c-0.2-0.3-0.3-0.5-0.2-0.6c0-0.1,0.2-0.2,0.5-0.3c0.1,0,0.2,0,0.3,0
			c0.3,0,0.7,0.2,1.1,0.7c0.1,0.1,0.3,0.2,0.5,0.2l0,0c0.2,0,0.3-0.1,0.5-0.2c0.4-0.5,0.8-0.7,1.1-0.7c0.1,0,0.2,0,0.3,0
			c0.3,0.1,0.5,0.2,0.5,0.3c0,0.1,0,0.4-0.2,0.6C64,70.8,62.8,71.3,62.2,71.5z"/>
		<path class="st10" d="M52.8,74c0,0-0.8,6.5,9.4,3.1"/>
		<path class="st10" d="M71.5,74c0,0,0.8,6.5-9.4,3.1"/>
		<path class="st4" d="M42,63.3c0,2.2,1.7,4,3.8,4c2.1,0,3.8-1.8,3.8-4c0-2.2-1.7-4-3.8-4C43.7,59.3,42,61.1,42,63.3z"/>
		<path class="st4" d="M44.6,68.8c0,0.7-0.5,1.2-1.2,1.2c-0.7,0-1.2-0.5-1.2-1.2c0-0.7,0.5-1.2,1.2-1.2
			C44.1,67.6,44.6,68.1,44.6,68.8z"/>
		<path class="st5" d="M73.3,64.4c0,4.2,3.4,7.6,7.6,7.6c4.2,0,7.6-3.4,7.6-7.6c0-4.2-3.4-7.6-7.6-7.6
			C76.7,56.9,73.3,60.3,73.3,64.4z"/>
		<path class="st6" d="M80.9,70.1c-3.1,0-5.6-2.5-5.6-5.6c0-3.1,2.5-5.7,5.6-5.7c3.1,0,5.6,2.5,5.6,5.7C86.5,67.6,84,70.1,80.9,70.1
			z"/>
		<path class="st7" d="M88.4,62.4c0,0-0.1-0.3-0.4-0.7c-0.1-0.2-0.3-0.5-0.5-0.8c-0.2-0.3-0.4-0.6-0.7-0.9c-0.3-0.3-0.6-0.7-0.9-1
			c-0.2-0.2-0.4-0.3-0.5-0.5c-0.2-0.1-0.4-0.3-0.6-0.5c-0.2-0.1-0.4-0.3-0.7-0.4c-0.2-0.1-0.5-0.2-0.7-0.3c-0.5-0.3-1-0.3-1.5-0.5
			c-0.5-0.1-1.1-0.2-1.6-0.2c-0.5,0-1.1,0-1.6,0.1c-0.5,0.1-1,0.1-1.5,0.3c-0.5,0.1-0.9,0.3-1.3,0.4c-0.8,0.2-1.5,0.5-1.9,0.7
			c-0.5,0.2-0.7,0.3-0.7,0.3s0.2-0.2,0.7-0.4c0.2-0.1,0.5-0.3,0.8-0.5c0.3-0.2,0.6-0.4,1-0.6c0.4-0.2,0.8-0.4,1.3-0.5
			c0.5-0.2,1-0.3,1.5-0.4c0.3-0.1,0.6-0.1,0.8-0.1c0.3,0,0.6,0,0.9-0.1c0.6,0,1.2,0.1,1.8,0.2c0.6,0.2,1.2,0.3,1.7,0.6
			c0.3,0.1,0.5,0.3,0.8,0.4c0.2,0.2,0.5,0.3,0.7,0.5c0.4,0.3,0.8,0.7,1.2,1.1c0.2,0.2,0.3,0.4,0.5,0.6c0.1,0.2,0.3,0.4,0.4,0.6
			c0.3,0.4,0.4,0.7,0.6,1.1c0.1,0.3,0.3,0.6,0.3,0.9C88.4,62.1,88.4,62.4,88.4,62.4z"/>
		<path class="st4" d="M82.3,63.3c0,2.2-1.7,4-3.8,4c-2.1,0-3.8-1.8-3.8-4c0-2.2,1.7-4,3.8-4C80.6,59.3,82.3,61.1,82.3,63.3z"/>
		<path class="st4" d="M79.7,68.8c0,0.7,0.5,1.2,1.2,1.2c0.7,0,1.2-0.5,1.2-1.2c0-0.7-0.5-1.2-1.2-1.2
			C80.2,67.6,79.7,68.1,79.7,68.8z"/>
		<path class="st7" d="M39.4,49c0,0,0-0.8,0.5-1.8c0.2-0.5,0.6-1.1,1.1-1.7c0.5-0.6,1.1-1.1,1.8-1.5c0.4-0.2,0.7-0.4,1.1-0.5
			c0.2-0.1,0.4-0.1,0.6-0.1c0.2,0,0.4,0,0.6,0c0.4,0,0.8,0,1.1,0.1c0.2,0,0.3,0,0.5,0.1c0.2,0.1,0.3,0.1,0.4,0.2
			c0.3,0.1,0.5,0.2,0.7,0.3c0.2,0.1,0.4,0.3,0.5,0.4c0.3,0.2,0.4,0.3,0.4,0.3s-0.2,0-0.5,0c-0.2,0-0.4,0-0.6,0c-0.2,0-0.5,0-0.7,0
			c-0.2,0-0.5,0-0.8,0.1c-0.3,0-0.5,0.1-0.8,0.2c-0.1,0-0.3,0.1-0.4,0.1c-0.1,0.1-0.3,0.1-0.4,0.2c-0.3,0.1-0.5,0.2-0.8,0.4
			c-0.3,0.1-0.5,0.3-0.8,0.5c-0.2,0.2-0.5,0.3-0.7,0.5c-0.5,0.4-0.9,0.8-1.3,1.1C40,48.5,39.4,49,39.4,49z"/>
		<path class="st7" d="M85,49c0,0-0.6-0.5-1.4-1.2c-0.4-0.3-0.8-0.7-1.3-1.1c-0.2-0.2-0.5-0.4-0.7-0.5c-0.3-0.2-0.5-0.3-0.8-0.5
			c-0.3-0.1-0.5-0.3-0.8-0.4c-0.1-0.1-0.3-0.1-0.4-0.2c-0.1,0-0.3-0.1-0.4-0.1c-0.3-0.1-0.6-0.1-0.8-0.2c-0.3-0.1-0.5-0.1-0.8-0.1
			c-0.2,0-0.5-0.1-0.7,0c-0.2,0-0.4,0-0.6,0c-0.3,0-0.5,0-0.5,0s0.1-0.1,0.4-0.3c0.1-0.1,0.3-0.2,0.5-0.4c0.2-0.1,0.4-0.2,0.7-0.3
			c0.1-0.1,0.3-0.1,0.4-0.2c0.2,0,0.3-0.1,0.5-0.1c0.3-0.1,0.7-0.1,1.1-0.1c0.2,0,0.4,0,0.6,0c0.2,0,0.4,0.1,0.6,0.1
			c0.4,0.1,0.8,0.3,1.1,0.5c0.7,0.4,1.3,0.9,1.8,1.5c0.5,0.5,0.8,1.1,1.1,1.7C85,48.2,85,49,85,49z"/>
	</g>
</g>
</svg>
