<?xml version="1.0" encoding="utf-8"?>
<!-- Generator: Adobe Illustrator 26.0.3, SVG Export Plug-In . SVG Version: 6.00 Build 0)  -->
<svg version="1.1" id="Layer_1" xmlns="http://www.w3.org/2000/svg" xmlns:xlink="http://www.w3.org/1999/xlink" x="0px" y="0px"
	 viewBox="0 0 124.3 119" style="enable-background:new 0 0 124.3 119;" xml:space="preserve">
<style type="text/css">
	.st0{fill:#BBD1CF;}
	.st1{fill:#F2F2F2;}
	.st2{fill:#212120;}
	.st3{fill:#EEB3BA;}
	.st4{fill:#45AFE3;}
	.st5{fill:#473916;}
	.st6{fill:#473B3F;}
	.st7{fill:none;stroke:#473B3F;stroke-width:0.7868;stroke-linecap:round;stroke-miterlimit:10;}
	.st8{fill:none;stroke:#473B3F;stroke-width:1.5736;stroke-linecap:round;stroke-miterlimit:10;}
	.st9{fill:#FFFFFF;}
	.st10{fill:#EE485D;}
</style>
<g>
	<path class="st0" d="M121.7,59.5c0,0.6,0,1.1,0,1.7c0,0.3,0,0.6,0,0.9c0,0.4,0,0.7,0,1.1c0,0.6-0.1,1.2-0.1,1.8
		c0,0.4-0.1,0.7-0.1,1.1c0,0.4-0.1,0.7-0.1,1.1c-0.1,0.6-0.2,1.2-0.3,1.8c-0.1,0.4-0.2,0.9-0.2,1.3c-0.1,0.3-0.1,0.7-0.2,1
		c-0.1,0.3-0.1,0.6-0.2,0.9c-0.2,1.1-0.5,2.2-0.8,3.2c-0.1,0.4-0.2,0.8-0.3,1.2c-0.1,0.4-0.2,0.7-0.3,1.1c-0.8,2.5-1.8,5-2.9,7.4
		c-0.1,0.3-0.3,0.6-0.4,0.9c-1,2-2.1,3.9-3.2,5.7c-0.7,1-1.4,2-2.1,3c-2.8,3.8-6.1,7.3-9.7,10.4c-1,0.9-2.1,1.7-3.2,2.5
		c-0.6,0.4-1.1,0.8-1.7,1.2c-1.1,0.8-2.3,1.5-3.4,2.2c-0.6,0.3-1.2,0.7-1.8,1c-0.6,0.3-1.2,0.6-1.8,0.9v0c-3.1,1.5-6.3,2.8-9.6,3.8
		c-2.7,0.8-5.5,1.4-8.3,1.8c-2.7,0.4-5.6,0.6-8.4,0.6C29.3,119,2.7,92.3,2.7,59.5C2.7,26.6,29.3,0,62.2,0c27.1,0,50,18.1,57.2,43
		C120.8,48.2,121.7,53.7,121.7,59.5z"/>
	<path class="st1" d="M33.8,73.8c-0.4-0.1-0.8-0.2-1.2-0.1c-0.1-0.4-0.2-0.8-0.4-1.2c-0.6-1.4-1.2-2.1-1.7-2.4
		c0-0.5-0.1-0.9-0.2-1.4c-1.8-5-3-1.1-4.7-0.2c-2.2,1.1-4.4-0.1-4.4-0.1s1.9,3.7,4.4,4.9c-1.3,0.2-2.5-0.3-2.5-0.3s1.8,2.8,4.1,4.6
		c-0.9,1.1-1.5,2-1.5,2s2.8-1.1,4.4,0.7c1.3,1.4,2.5,4.6,4.7-0.1C35.8,78.2,35.6,74.5,33.8,73.8z"/>
	<path class="st1" d="M90.4,73.8c0.4-0.1,0.8-0.2,1.2-0.1c0.1-0.4,0.2-0.8,0.4-1.2c0.6-1.4,1.2-2.1,1.7-2.4c0-0.5,0.1-0.9,0.2-1.4
		c1.8-5,3-1.1,4.7-0.2c2.2,1.1,4.4-0.1,4.4-0.1s-1.9,3.7-4.4,4.9c1.3,0.2,2.5-0.3,2.5-0.3s-1.8,2.8-4.1,4.6c0.9,1.1,1.5,2,1.5,2
		s-2.8-1.1-4.4,0.7c-1.3,1.4-2.4,4.6-4.7-0.1C88.4,78.2,88.6,74.5,90.4,73.8z"/>
	<path class="st2" d="M79.5,34.5c0,0,20-9.8,23.8-4.1c3.8,5.7-5.9,27.7-4.9,29.5c1,1.8-4.3,3.8-5.2,2.6
		C92.1,61.3,92.9,47.7,79.5,34.5z"/>
	<path class="st3" d="M94.9,56.1c-1.2-4.9-5-12-10.9-19.1c4-1.6,11.2-4.6,14.6-4.6c0.9,0,1.3,0.1,1.5,0.2c1.3,2.7-2.3,14.3-3.7,18.7
		C96.1,52.7,95.2,55.1,94.9,56.1z"/>
	<path class="st2" d="M44.9,34.5c0,0-20-9.8-23.8-4.1C17.3,36.1,27,58.1,26,59.9c-1,1.8,4.3,3.8,5.2,2.6
		C32.2,61.3,31.4,47.7,44.9,34.5z"/>
	<path class="st3" d="M29.4,56.1c-0.3-1-1.1-3.4-1.5-4.8c-1.4-4.4-4.9-16-3.7-18.7c0.2-0.1,0.6-0.2,1.5-0.2c3.5,0,10.3,3.1,14.3,4.7
		C34.1,44.3,30.6,51.1,29.4,56.1z"/>
	<path class="st1" d="M96.3,63.8c0,14.2-8.7,22.1-21,25.1c-1.3,0.3-2.7,0.6-4.1,0.8c-2.9,0.4-5.9,0.7-9.1,0.7
		c-3.1,0-6.2-0.2-9.1-0.7c-1.4-0.2-2.8-0.5-4.1-0.8c-12.3-3-21-10.9-21-25.1c0-18.9,15.3-35.1,34.2-35.1
		C81,28.7,96.3,44.9,96.3,63.8z"/>
	<circle class="st4" cx="43.5" cy="65.4" r="7.6"/>
	<circle class="st5" cx="43.5" cy="65.4" r="5.6"/>
	<path class="st6" d="M35.9,63.3c0,0,0-0.3,0.2-0.8c0.1-0.2,0.2-0.5,0.3-0.9c0.2-0.3,0.3-0.7,0.6-1.1c0.1-0.2,0.2-0.4,0.4-0.6
		c0.1-0.2,0.3-0.4,0.5-0.6c0.3-0.4,0.7-0.8,1.2-1.1c0.2-0.2,0.5-0.3,0.7-0.5c0.2-0.2,0.5-0.3,0.8-0.4c0.5-0.3,1.1-0.4,1.7-0.6
		c0.6-0.1,1.2-0.2,1.8-0.2c0.3,0,0.6,0,0.9,0.1c0.3,0,0.6,0,0.8,0.1c0.5,0.1,1.1,0.2,1.5,0.4c0.5,0.2,0.9,0.4,1.3,0.5
		c0.4,0.2,0.7,0.4,1,0.6c0.3,0.2,0.6,0.3,0.8,0.5c0.4,0.3,0.7,0.4,0.7,0.4s-0.3-0.1-0.7-0.3c-0.5-0.2-1.1-0.5-1.9-0.7
		c-0.4-0.1-0.8-0.2-1.3-0.4c-0.5-0.1-1-0.2-1.5-0.3c-0.5-0.1-1,0-1.6-0.1c-0.5,0-1.1,0.1-1.6,0.2c-0.5,0.2-1.1,0.2-1.5,0.5
		c-0.2,0.1-0.5,0.2-0.7,0.3c-0.2,0.1-0.4,0.3-0.6,0.4c-0.2,0.1-0.4,0.3-0.6,0.5c-0.2,0.2-0.4,0.3-0.5,0.5c-0.3,0.3-0.7,0.7-0.9,1
		c-0.3,0.3-0.5,0.6-0.7,0.9c-0.2,0.3-0.4,0.5-0.5,0.8C36,63,35.9,63.3,35.9,63.3z"/>
	<line class="st7" x1="62.2" y1="74" x2="62.2" y2="77.7"/>
	<path class="st8" d="M52.8,74.9c0,0-0.8,6.5,9.4,3.1"/>
	<path class="st8" d="M71.5,74.9c0,0,0.8,6.5-9.4,3.1"/>
	<ellipse class="st9" cx="45.8" cy="64.3" rx="3.8" ry="4"/>
	<path class="st9" d="M44.6,69.7c0,0.7-0.5,1.2-1.2,1.2c-0.7,0-1.2-0.5-1.2-1.2c0-0.7,0.5-1.2,1.2-1.2
		C44.1,68.5,44.6,69.1,44.6,69.7z"/>
	<circle class="st4" cx="80.9" cy="65.4" r="7.6"/>
	<circle class="st5" cx="80.9" cy="65.4" r="5.6"/>
	<path class="st6" d="M88.4,63.3c0,0-0.1-0.3-0.4-0.7c-0.1-0.2-0.3-0.5-0.5-0.8c-0.2-0.3-0.4-0.6-0.7-0.9c-0.3-0.3-0.6-0.7-0.9-1
		c-0.2-0.2-0.4-0.3-0.5-0.5c-0.2-0.1-0.4-0.3-0.6-0.5c-0.2-0.1-0.4-0.3-0.6-0.4c-0.2-0.1-0.5-0.2-0.7-0.3c-0.5-0.3-1-0.3-1.5-0.5
		c-0.5-0.1-1.1-0.2-1.6-0.2c-0.5,0-1.1,0-1.6,0.1c-0.5,0.1-1,0.1-1.5,0.3c-0.5,0.1-0.9,0.3-1.3,0.4c-0.8,0.2-1.5,0.5-1.9,0.7
		c-0.5,0.2-0.7,0.3-0.7,0.3s0.2-0.2,0.7-0.4c0.2-0.1,0.5-0.3,0.8-0.5c0.3-0.2,0.6-0.4,1-0.6c0.4-0.2,0.8-0.4,1.3-0.5
		c0.5-0.2,1-0.3,1.5-0.4c0.3-0.1,0.6-0.1,0.8-0.1c0.3,0,0.6,0,0.9-0.1c0.6,0,1.2,0.1,1.8,0.2c0.6,0.2,1.2,0.3,1.7,0.6
		c0.3,0.1,0.5,0.3,0.8,0.4c0.2,0.2,0.5,0.3,0.7,0.5c0.4,0.3,0.8,0.7,1.2,1.1c0.2,0.2,0.3,0.4,0.5,0.6c0.1,0.2,0.3,0.4,0.4,0.6
		c0.3,0.4,0.4,0.7,0.6,1.1c0.1,0.3,0.3,0.6,0.3,0.9C88.4,63,88.4,63.3,88.4,63.3z"/>
	<path class="st9" d="M82.3,64.3c0,2.2-1.7,4-3.8,4c-2.1,0-3.8-1.8-3.8-4c0-2.2,1.7-4,3.8-4C80.6,60.2,82.3,62,82.3,64.3z"/>
	<path class="st9" d="M79.7,69.7c0,0.7,0.5,1.2,1.2,1.2c0.7,0,1.2-0.5,1.2-1.2c0-0.7-0.5-1.2-1.2-1.2C80.2,68.5,79.7,69.1,79.7,69.7
		z"/>
	<path class="st6" d="M39.4,50c0,0,0-0.8,0.5-1.8c0.2-0.5,0.6-1.1,1.1-1.7c0.5-0.6,1.1-1.1,1.8-1.5c0.4-0.2,0.7-0.4,1.1-0.5
		c0.2-0.1,0.4-0.1,0.6-0.1c0.2,0,0.4,0,0.6,0c0.4,0,0.8,0,1.1,0.1c0.2,0,0.3,0,0.5,0.1c0.2,0.1,0.3,0.1,0.4,0.2
		c0.3,0.1,0.5,0.2,0.7,0.3c0.2,0.1,0.4,0.3,0.5,0.4c0.3,0.2,0.4,0.3,0.4,0.3s-0.2,0-0.5,0c-0.2,0-0.4,0-0.6,0c-0.2,0-0.5,0-0.7,0
		c-0.3,0-0.5,0-0.8,0.1c-0.3,0-0.5,0.1-0.8,0.2c-0.1,0-0.3,0.1-0.4,0.1c-0.1,0.1-0.3,0.1-0.4,0.2c-0.3,0.1-0.5,0.2-0.8,0.4
		c-0.3,0.1-0.5,0.3-0.8,0.5c-0.2,0.2-0.5,0.3-0.7,0.5c-0.5,0.4-0.9,0.8-1.3,1.1C40,49.5,39.4,50,39.4,50z"/>
	<path class="st6" d="M85,50c0,0-0.6-0.5-1.4-1.2c-0.4-0.3-0.8-0.7-1.3-1.1c-0.2-0.2-0.5-0.4-0.7-0.5c-0.3-0.2-0.5-0.3-0.8-0.5
		c-0.3-0.1-0.5-0.3-0.8-0.4c-0.1-0.1-0.3-0.1-0.4-0.2c-0.1,0-0.3-0.1-0.4-0.1c-0.3-0.1-0.6-0.1-0.8-0.2c-0.3-0.1-0.5-0.1-0.8-0.1
		c-0.2,0-0.5-0.1-0.7,0c-0.2,0-0.4,0-0.6,0c-0.3,0-0.5,0-0.5,0s0.1-0.1,0.4-0.3c0.1-0.1,0.3-0.2,0.5-0.4c0.2-0.1,0.4-0.2,0.7-0.3
		c0.1-0.1,0.3-0.1,0.4-0.2c0.2,0,0.3-0.1,0.5-0.1c0.3-0.1,0.7-0.1,1.1-0.1c0.2,0,0.4,0,0.6,0c0.2,0,0.4,0.1,0.6,0.1
		c0.4,0.1,0.8,0.3,1.1,0.5c0.7,0.4,1.3,0.9,1.8,1.5c0.5,0.5,0.8,1.1,1.1,1.7C85,49.2,85,50,85,50z"/>
	<path class="st10" d="M65.3,69.8c-1.3-0.4-2.3,0.4-3.1,1.3c-0.8-0.9-1.8-1.7-3.1-1.3c-1.7,0.5-1.9,1.6-1,2.9c0.9,1.2,4,2.2,4.1,2.2
		c0.1,0,3.3-1,4.1-2.2C67.2,71.5,67,70.3,65.3,69.8z"/>
	<path class="st9" d="M62.1,72.6c-0.7-0.2-1.9-0.7-2.2-1.1c-0.2-0.3-0.3-0.5-0.2-0.6c0-0.1,0.2-0.2,0.5-0.3c0.1,0,0.2,0,0.3,0
		c0.3,0,0.7,0.2,1.1,0.7c0.1,0.1,0.3,0.2,0.5,0.2l0,0c0.2,0,0.3-0.1,0.5-0.2c0.4-0.5,0.8-0.7,1.1-0.7c0.1,0,0.2,0,0.3,0
		c0.3,0.1,0.5,0.2,0.5,0.3c0,0.1,0,0.4-0.2,0.6C64,71.9,62.8,72.4,62.1,72.6z"/>
</g>
</svg>
