<?xml version="1.0" encoding="utf-8"?>
<!-- Generator: Adobe Illustrator 26.0.3, SVG Export Plug-In . SVG Version: 6.00 Build 0)  -->
<svg version="1.1" id="Layer_1" xmlns="http://www.w3.org/2000/svg" xmlns:xlink="http://www.w3.org/1999/xlink" x="0px" y="0px"
	 viewBox="0 0 124.3 119" style="enable-background:new 0 0 124.3 119;" xml:space="preserve">
<style type="text/css">
	.st0{fill:#B7BFDE;}
	.st1{fill:#212120;}
	.st2{fill:#EEB3BA;}
	.st3{fill:#F2F2F2;}
	.st4{fill:#6DC07A;}
	.st5{fill:#473916;}
	.st6{fill:#473B3F;}
	.st7{fill:none;stroke:#473B3F;stroke-width:0.7868;stroke-linecap:round;stroke-miterlimit:10;}
	.st8{fill:none;stroke:#473B3F;stroke-width:1.5736;stroke-linecap:round;stroke-miterlimit:10;}
	.st9{fill:#FFFFFF;}
	.st10{fill:#EE485D;}
</style>
<path class="st0" d="M121.7,59.5c0,27-18,49.8-42.7,57.1c-5.3,1.6-11,2.4-16.8,2.4C29.3,119,2.7,92.3,2.7,59.5
	C2.7,26.6,29.3,0,62.2,0c27.1,0,50,18.1,57.2,43C120.8,48.2,121.7,53.7,121.7,59.5z"/>
<g>
	<path class="st1" d="M79.5,34.5c0,0,20-9.8,23.8-4.1c3.8,5.7-5.9,27.7-4.9,29.5c1,1.8-4.3,3.8-5.2,2.6
		C92.1,61.3,92.9,47.7,79.5,34.5z"/>
	<path class="st2" d="M94.9,56.1c-1.2-4.9-5-12-10.9-19.1c4-1.6,11.2-4.6,14.6-4.6c0.9,0,1.3,0.1,1.5,0.2c1.3,2.7-2.3,14.3-3.7,18.7
		C96.1,52.7,95.2,55.1,94.9,56.1z"/>
	<path class="st1" d="M44.9,34.5c0,0-20-9.8-23.8-4.1C17.3,36.1,27,58.1,26,59.9c-1,1.8,4.3,3.8,5.2,2.6
		C32.2,61.3,31.4,47.7,44.9,34.5z"/>
	<path class="st2" d="M29.4,56.1c-0.3-1-1.1-3.4-1.5-4.8c-1.4-4.4-4.9-16-3.7-18.7c0.2-0.1,0.6-0.2,1.5-0.2c3.5,0,10.3,3.1,14.3,4.7
		C34.1,44.3,30.6,51.1,29.4,56.1z"/>
	<path class="st1" d="M96.3,63.8c0,6.4-1.8,11.6-4.9,15.5c-0.4,0.6-0.9,1.1-1.4,1.6c-3.7,3.9-8.8,6.5-14.8,8
		c-1.3,0.3-2.7,0.6-4.1,0.8c-2.9,0.4-5.9,0.7-9.1,0.7c-3.1,0-6.2-0.2-9.1-0.7c-1.4-0.2-2.8-0.5-4.1-0.8c-5.9-1.5-11-4-14.7-7.9
		c-0.5-0.5-1-1.1-1.4-1.6c-3.1-4-4.9-9.1-4.9-15.6c0-18.9,15.3-35.1,34.2-35.1C81,28.7,96.3,44.9,96.3,63.8z"/>
	<path class="st3" d="M90,80.9c-3.7,3.9-8.8,6.5-14.8,8c-1.3,0.3-2.7,0.6-4.1,0.8c-2.9,0.4-5.9,0.7-9.1,0.7c-3.1,0-6.2-0.2-9.1-0.7
		c-1.4-0.2-2.8-0.5-4.1-0.8c-5.9-1.5-11-4-14.7-7.9c6.2-9,16.4-15.1,27.9-15.1C73.7,65.9,83.9,71.9,90,80.9z"/>
	<ellipse transform="matrix(0.1602 -0.9871 0.9871 0.1602 -27.0984 97.0259)" class="st4" cx="43.5" cy="64.4" rx="7.6" ry="7.6"/>
	<circle class="st5" cx="43.5" cy="64.4" r="5.6"/>
	<path class="st6" d="M35.9,62.4c0,0,0-0.3,0.2-0.8c0.1-0.2,0.2-0.5,0.3-0.9c0.2-0.3,0.3-0.7,0.6-1.1c0.1-0.2,0.2-0.4,0.4-0.6
		c0.1-0.2,0.3-0.4,0.5-0.6c0.3-0.4,0.7-0.8,1.2-1.1c0.2-0.2,0.5-0.3,0.7-0.5c0.2-0.2,0.5-0.3,0.8-0.4c0.5-0.3,1.1-0.4,1.7-0.6
		c0.6-0.1,1.2-0.2,1.8-0.2c0.3,0,0.6,0,0.9,0.1c0.3,0,0.6,0,0.8,0.1c0.5,0.1,1.1,0.2,1.5,0.4c0.5,0.2,0.9,0.4,1.3,0.5
		c0.4,0.2,0.7,0.4,1,0.6c0.3,0.2,0.6,0.3,0.8,0.5c0.4,0.3,0.7,0.4,0.7,0.4s-0.3-0.1-0.7-0.3c-0.5-0.2-1.1-0.5-1.9-0.7
		c-0.4-0.1-0.8-0.2-1.3-0.4c-0.5-0.1-1-0.2-1.5-0.3c-0.5-0.1-1,0-1.6-0.1c-0.5,0-1.1,0.1-1.6,0.2c-0.5,0.2-1.1,0.2-1.5,0.5
		c-0.2,0.1-0.5,0.2-0.7,0.3c-0.2,0.1-0.4,0.3-0.6,0.4c-0.2,0.1-0.4,0.3-0.6,0.5c-0.2,0.2-0.4,0.3-0.5,0.5c-0.3,0.3-0.7,0.7-0.9,1
		c-0.3,0.3-0.5,0.6-0.7,0.9c-0.2,0.3-0.4,0.5-0.5,0.8C36,62.1,35.9,62.4,35.9,62.4z"/>
	<line class="st7" x1="62.2" y1="73.1" x2="62.2" y2="76.8"/>
	<path class="st8" d="M52.8,74c0,0-0.8,6.5,9.4,3.1"/>
	<path class="st8" d="M71.5,74c0,0,0.8,6.5-9.4,3.1"/>
	<ellipse class="st9" cx="45.8" cy="63.3" rx="3.8" ry="4"/>
	<path class="st9" d="M44.6,68.8c0,0.7-0.5,1.2-1.2,1.2c-0.7,0-1.2-0.5-1.2-1.2c0-0.7,0.5-1.2,1.2-1.2
		C44.1,67.6,44.6,68.1,44.6,68.8z"/>
	<ellipse transform="matrix(0.9871 -0.1602 0.1602 0.9871 -9.2777 13.7841)" class="st4" cx="80.9" cy="64.4" rx="7.6" ry="7.6"/>
	<circle class="st5" cx="80.9" cy="64.4" r="5.6"/>
	<path class="st6" d="M88.4,62.4c0,0-0.1-0.3-0.4-0.7c-0.1-0.2-0.3-0.5-0.5-0.8c-0.2-0.3-0.4-0.6-0.7-0.9c-0.3-0.3-0.6-0.7-0.9-1
		c-0.2-0.2-0.4-0.3-0.5-0.5c-0.2-0.1-0.4-0.3-0.6-0.5c-0.2-0.1-0.4-0.3-0.6-0.4c-0.2-0.1-0.5-0.2-0.7-0.3c-0.5-0.3-1-0.3-1.5-0.5
		c-0.5-0.1-1.1-0.2-1.6-0.2c-0.5,0-1.1,0-1.6,0.1c-0.5,0.1-1,0.1-1.5,0.3c-0.5,0.1-0.9,0.3-1.3,0.4c-0.8,0.2-1.5,0.5-1.9,0.7
		c-0.5,0.2-0.7,0.3-0.7,0.3s0.2-0.2,0.7-0.4c0.2-0.1,0.5-0.3,0.8-0.5c0.3-0.2,0.6-0.4,1-0.6c0.4-0.2,0.8-0.4,1.3-0.5
		c0.5-0.2,1-0.3,1.5-0.4c0.3-0.1,0.6-0.1,0.8-0.1c0.3,0,0.6,0,0.9-0.1c0.6,0,1.2,0.1,1.8,0.2c0.6,0.2,1.2,0.3,1.7,0.6
		c0.3,0.1,0.5,0.3,0.8,0.4c0.2,0.2,0.5,0.3,0.7,0.5c0.4,0.3,0.8,0.7,1.2,1.1c0.2,0.2,0.3,0.4,0.5,0.6c0.1,0.2,0.3,0.4,0.4,0.6
		c0.3,0.4,0.4,0.7,0.6,1.1c0.1,0.3,0.3,0.6,0.3,0.9C88.4,62.1,88.4,62.4,88.4,62.4z"/>
	<path class="st9" d="M82.3,63.3c0,2.2-1.7,4-3.8,4c-2.1,0-3.8-1.8-3.8-4c0-2.2,1.7-4,3.8-4C80.6,59.3,82.3,61.1,82.3,63.3z"/>
	<path class="st9" d="M79.7,68.8c0,0.7,0.5,1.2,1.2,1.2c0.7,0,1.2-0.5,1.2-1.2c0-0.7-0.5-1.2-1.2-1.2C80.2,67.6,79.7,68.1,79.7,68.8
		z"/>
	<path class="st9" d="M39.4,49c0,0,0-0.8,0.5-1.8c0.2-0.5,0.6-1.1,1.1-1.7c0.5-0.6,1.1-1.1,1.8-1.5c0.4-0.2,0.7-0.4,1.1-0.5
		c0.2-0.1,0.4-0.1,0.6-0.1c0.2,0,0.4,0,0.6,0c0.4,0,0.8,0,1.1,0.1c0.2,0,0.3,0,0.5,0.1c0.2,0.1,0.3,0.1,0.4,0.2
		c0.3,0.1,0.5,0.2,0.7,0.3c0.2,0.1,0.4,0.3,0.5,0.4c0.3,0.2,0.4,0.3,0.4,0.3s-0.2,0-0.5,0c-0.2,0-0.4,0-0.6,0c-0.2,0-0.5,0-0.7,0
		c-0.3,0-0.5,0-0.8,0.1c-0.3,0-0.5,0.1-0.8,0.2c-0.1,0-0.3,0.1-0.4,0.1c-0.1,0.1-0.3,0.1-0.4,0.2c-0.3,0.1-0.5,0.2-0.8,0.4
		c-0.3,0.1-0.5,0.3-0.8,0.5c-0.2,0.2-0.5,0.3-0.7,0.5c-0.5,0.4-0.9,0.8-1.3,1.1C40,48.5,39.4,49,39.4,49z"/>
	<path class="st9" d="M85,49c0,0-0.6-0.5-1.4-1.2c-0.4-0.3-0.8-0.7-1.3-1.1c-0.2-0.2-0.5-0.4-0.7-0.5c-0.3-0.2-0.5-0.3-0.8-0.5
		c-0.3-0.1-0.5-0.3-0.8-0.4c-0.1-0.1-0.3-0.1-0.4-0.2c-0.1,0-0.3-0.1-0.4-0.1c-0.3-0.1-0.6-0.1-0.8-0.2c-0.3-0.1-0.5-0.1-0.8-0.1
		c-0.2,0-0.5-0.1-0.7,0c-0.2,0-0.4,0-0.6,0c-0.3,0-0.5,0-0.5,0s0.1-0.1,0.4-0.3c0.1-0.1,0.3-0.2,0.5-0.4c0.2-0.1,0.4-0.2,0.7-0.3
		c0.1-0.1,0.3-0.1,0.4-0.2c0.2,0,0.3-0.1,0.5-0.1c0.3-0.1,0.7-0.1,1.1-0.1c0.2,0,0.4,0,0.6,0c0.2,0,0.4,0.1,0.6,0.1
		c0.4,0.1,0.8,0.3,1.1,0.5c0.7,0.4,1.3,0.9,1.8,1.5c0.5,0.5,0.8,1.1,1.1,1.7C85,48.2,85,49,85,49z"/>
	<path class="st10" d="M65.3,68.9c-1.3-0.4-2.3,0.4-3.1,1.3c-0.8-0.9-1.8-1.7-3.1-1.3c-1.7,0.5-1.9,1.6-1,2.9c0.9,1.2,4,2.2,4.1,2.2
		c0.1,0,3.3-1,4.1-2.2C67.2,70.5,67,69.3,65.3,68.9z"/>
	<path class="st9" d="M62.1,71.6c-0.7-0.2-1.9-0.7-2.2-1.1c-0.2-0.3-0.3-0.5-0.2-0.6c0-0.1,0.2-0.2,0.5-0.3c0.1,0,0.2,0,0.3,0
		c0.3,0,0.7,0.2,1.1,0.7c0.1,0.1,0.3,0.2,0.5,0.2l0,0c0.2,0,0.3-0.1,0.5-0.2c0.4-0.5,0.8-0.7,1.1-0.7c0.1,0,0.2,0,0.3,0
		c0.3,0.1,0.5,0.2,0.5,0.3c0,0.1,0,0.4-0.2,0.6C64,70.9,62.8,71.4,62.1,71.6z"/>
</g>
</svg>
