<?xml version="1.0" encoding="utf-8"?>
<!-- Generator: Adobe Illustrator 26.0.3, SVG Export Plug-In . SVG Version: 6.00 Build 0)  -->
<svg version="1.1" id="Layer_1" xmlns="http://www.w3.org/2000/svg" xmlns:xlink="http://www.w3.org/1999/xlink" x="0px" y="0px"
	 viewBox="0 0 124.3 119" style="enable-background:new 0 0 124.3 119;" xml:space="preserve">
<style type="text/css">
	.st0{fill:#7FA1C5;}
	.st1{fill:#FBD65D;}
	.st2{fill:#9C6700;}
	.st3{fill:#FFFBF0;}
	.st4{opacity:0.84;}
	.st5{clip-path:url(#SVGID_00000010276095273555281020000016621486071491909779_);fill:#E2DAC5;}
	.st6{clip-path:url(#SVGID_00000060712773199988877510000016338952420145685643_);fill:#E2DAC5;}
	.st7{opacity:0.38;}
	.st8{clip-path:url(#SVGID_00000111182969345215819480000016325669406206186904_);fill:#E2DAC5;}
	.st9{fill:#302813;}
	.st10{fill:#E2DAC5;}
</style>
<g>
	<path class="st0" d="M121.7,59.5c0,27-18,49.9-42.7,57.1c-5.3,1.6-11,2.4-16.8,2.4C29.3,119,2.7,92.3,2.7,59.5
		C2.7,26.6,29.3,0,62.2,0c27.1,0,50,18.1,57.2,43C120.8,48.2,121.7,53.7,121.7,59.5z"/>
	<g>
		<g>
			<g>
				<path class="st1" d="M97.9,64.1c-1.2-3.1-4.2-5.1-6.6-7.6c-1.4-1.4-2.6-2.7-3.8-3.9c0,0,0-0.1,0-0.1c1.9-9.4,3.7-19,2.1-28.6
					c0,0,0,0,0,0c0-0.2-0.1-0.6-0.1-0.8c0-0.2-0.1-0.4-0.1-0.6c-0.1-0.5-0.2-1-0.4-1.5c-0.1-0.3-0.3-0.6-0.5-0.7
					c-0.5-0.7-1.4-0.8-2.1-0.2c-1.9,1.5-3.4,3.5-4.9,5.3c-1.6,1.9-3.2,3.9-4.7,6c-1.3,1.9-2.4,4-3.4,6.1c-0.5,1.2-1.1,2.6-1.3,4
					c-5.9-2.2-12.3-2.3-18.4-0.1c-0.4,0.2-0.9,0.3-1.3,0.5c-0.1-1.4-0.7-2.8-1.3-4.1c-0.9-2.2-2.1-4.2-3.4-6.2c-1.4-2.1-3-4.1-4.6-6
					c-1.5-1.8-3.1-3.8-4.9-5.3c-0.7-0.6-1.6-0.5-2.1,0.2c-0.2,0.2-0.4,0.4-0.5,0.7c-0.2,0.5-0.3,1-0.4,1.5c-0.1,0.2-0.1,0.4-0.1,0.6
					c0,0.2-0.1,0.6-0.1,0.8c0,0,0,0,0,0c-1.7,9.6,0.2,19.2,2.1,28.6c0,0.2,0.1,0.4,0.2,0.5c-4.6,4.9-10.7,8.4-11.4,14.6
					C24.9,76,32,84.7,39,88.2c7,3.4,12.5,9.4,20.3,10.8c8.5,1.6,14.1-4.5,21.3-8.5c5.6-3.1,12-6.3,15.3-12.2
					C98.4,73.9,99.4,68.3,97.9,64.1z"/>
			</g>
			<g>
				<g>
					<path class="st2" d="M99.6,63.7c-1-2.6-2.9-4.5-4.9-6.3c-2.1-1.9-4-4-6-6c0.2,0.6,0.3,1.2,0.5,1.8c0.3-1.1,0.4-2.2,0.7-3.3
						c0.2-1.2,0.4-2.3,0.6-3.5c0.4-2.3,0.8-4.6,1-6.9c0.5-4.5,0.7-9,0.1-13.5c-0.1-0.7-0.2-1.3-0.3-2c0-0.2-0.1-0.4-0.1-0.6
						c0.1,0.7,0-0.1,0-0.2c-0.1-1-0.3-2-0.6-3c-0.3-0.7-0.6-1.1-1.2-1.5c0.2,0.2-0.2-0.3-0.2-0.2c-0.2-0.1-0.3-0.2-0.5-0.3
						c-1.1-0.5-2.3-0.4-3.3,0.3c-1.7,1.2-3.1,3-4.5,4.7c-1.4,1.7-2.9,3.5-4.2,5.3c-1.5,1.9-2.8,4-3.9,6.1c-1.1,2.2-2.2,4.5-2.5,6.9
						c0.8-0.6,1.5-1.2,2.3-1.7c-6.7-2.5-14.1-2.3-20.7,0.4c0.8,0.6,1.5,1.2,2.3,1.7C54,39.6,53,37.5,52,35.4c-0.9-1.9-2-3.8-3.3-5.5
						c-1.3-1.8-2.7-3.6-4.2-5.4c-1.4-1.6-2.7-3.4-4.3-4.8c-0.8-0.8-1.7-1.5-2.8-1.6c-0.6,0-1.1,0.1-1.7,0.3
						c-0.5,0.3-0.8,0.6-1.1,0.9C33.9,20,33.7,21,33.5,22c-0.1,0.5-0.2,1-0.3,1.6c0,0.1-0.1,0.9,0,0.2c0,0.4-0.1,0.8-0.2,1.2
						c-0.7,4.6-0.6,9.3-0.2,14c0.3,2.6,0.7,5.2,1.1,7.8c0.2,1.3,0.5,2.5,0.7,3.8c0.2,1.2,0.3,2.7,1,3.8c0.1-0.7,0.2-1.5,0.3-2.2
						c-2.8,3-6.2,5.4-8.8,8.7c-1.3,1.6-2.3,3.4-2.8,5.4c-0.5,2.1-0.5,4.3-0.1,6.4c0.8,4.3,3.3,8.3,6.3,11.4c1.5,1.6,3.2,3,5,4.2
						c1.8,1.2,3.7,2,5.5,3.1c3.7,2.3,7.2,5,11.1,7c4.1,2.1,8.6,3.3,13.1,2.4c4.1-0.8,7.7-3.2,11.1-5.4c1.8-1.2,3.7-2.4,5.6-3.5
						c1.8-1,3.6-2,5.3-3c3.7-2.2,7.2-4.9,9.6-8.6c2.5-3.8,3.9-8.8,3.4-13.3C100.2,65.8,100,64.7,99.6,63.7c-0.3-0.9-1.2-1.5-2.2-1.3
						c-0.9,0.2-1.6,1.3-1.3,2.2c1.3,3.6,0.6,7.9-1.1,11.4c-1.7,3.6-4.4,6.2-7.6,8.4c-3.3,2.2-6.9,3.9-10.2,6c-3.2,2-6.5,4.6-9.9,5.9
						c-3.7,1.5-7.3,1.3-11.1-0.1c-3.8-1.4-7.1-3.9-10.4-6.1c-1.7-1.2-3.5-2.3-5.4-3.2c-1.7-0.9-3.3-1.8-4.7-2.9
						c-3-2.4-5.6-5.6-7-9.1c-0.7-1.8-1.1-3.5-1.2-5.4c0-1.7,0.4-3.2,1.2-4.7c1.8-3.1,4.9-5.5,7.6-8.1c0.7-0.7,1.5-1.4,2.1-2.1
						c0.5-0.6,0.7-1.5,0.3-2.2c-0.2-0.3,0,0.2-0.1-0.4c0-0.2-0.1-0.4-0.1-0.6c-0.1-0.5-0.2-1-0.3-1.4c-0.2-1.1-0.4-2.1-0.6-3.2
						c-0.4-2-0.7-3.9-1-5.9c-0.5-4.1-0.8-8.2-0.5-12.3c0.1-1.7,0.3-3.6,0.6-5.2c0-0.2,0.2-0.6,0.2-0.9c0,0,0.2-0.7,0.2-0.7
						c0.1,0-0.3,0.3-0.3,0.4c0.1-0.1,0.2-0.2,0.4-0.3c0.2-0.2,0.2-0.2,0.1-0.1c0,0-0.2,0.1-0.2,0.1c0,0.1-0.1-0.1-0.1,0
						c0,0,0.6,0.5,0.6,0.5c1.4,1.3,2.6,2.8,3.8,4.2c1.2,1.5,2.4,2.9,3.6,4.5c1.3,1.7,2.4,3.4,3.4,5.3c0.9,1.7,2,3.7,2.2,5.6
						c0.1,1,1.1,2.2,2.3,1.7c6-2.5,12.6-2.7,18.8-0.4c1.2,0.5,2.2-0.7,2.3-1.7c0.2-1.7,1.1-3.4,1.8-4.8c0.8-1.7,1.8-3.3,2.9-4.9
						c2.2-3,4.6-6.1,7.1-8.8c0.3-0.3,0.6-0.6,1-0.9c0.1-0.1,0.3-0.2,0.4-0.4c0.4-0.4,0.2-0.1,0.2-0.2c0,0-0.6-0.4-0.2,0
						c0.1,0,0.1,0.1,0.2,0.1c0.3,0.2,0.2,0.2-0.1-0.1c0-0.2,0-0.1,0.1,0.2c0,0.1,0.1,0.2,0.1,0.4c0.4,1.5,0.6,3.2,0.7,4.8
						c0.4,4,0.3,8-0.2,12c-0.2,2.2-0.6,4.4-1,6.5c-0.2,1.2-0.4,2.3-0.6,3.5c-0.2,1.1-0.4,2.2-0.7,3.3c-0.2,0.6,0,1.3,0.5,1.8
						c1.9,1.9,3.7,3.9,5.7,5.7c1.6,1.5,3.5,3,4.3,5c0.4,0.9,1.2,1.5,2.2,1.3C99.2,65.7,100,64.6,99.6,63.7z"/>
				</g>
			</g>
		</g>
		<g>
			<path class="st1" d="M35,24.2c0-0.1,0-0.1,0-0.2c0-0.3,0-0.5,0-0.8c0-0.2,0.1-0.4,0.1-0.5c0.1-0.5,0.2-1,0.4-1.5
				c0.1-0.3,0.3-0.6,0.5-0.7c0.5-0.7,1.4-0.8,2.1-0.2c1.9,1.5,3.4,3.5,4.9,5.3c1.5,1.8,3,3.7,4.4,5.7c1.4,2,2.6,4.1,3.5,6.3
				c0.9,2,2,4.5,0.9,6.6c-0.2,0.4-0.5,0.6-0.9,0.7c-0.1,0.1-0.2,0.2-0.4,0.3c-4,2.2-8.3,4.2-11.1,7.9c-0.6,0.9-2.3,1-2.5-0.3
				C35.2,43.4,33.3,33.8,35,24.2z"/>
		</g>
		<g>
			<path class="st3" d="M38.9,32.2c0,0,0-0.1,0-0.1c0-0.2,0-0.3,0-0.5c0-0.1,0-0.2,0.1-0.3c0.1-0.3,0.1-0.6,0.2-0.9
				c0.1-0.2,0.2-0.4,0.3-0.5c0.3-0.4,0.9-0.5,1.3-0.1c1.1,0.9,2.1,2.1,3,3.3c1,1.1,1.9,2.3,2.7,3.5c0.9,1.2,1.6,2.5,2.2,3.9
				c0.5,1.2,1.2,2.8,0.6,4.1C49.2,44.8,49,45,48.8,45c-0.1,0.1-0.1,0.2-0.3,0.2c-2.5,1.4-5.1,2.6-6.8,4.9c-0.4,0.5-1.4,0.6-1.6-0.2
				C39,44.1,37.9,38.2,38.9,32.2z"/>
		</g>
		<g>
			<path class="st1" d="M89.5,24c0-0.1,0-0.1,0-0.2c0-0.3,0-0.5,0-0.8c0-0.2-0.1-0.4-0.1-0.5c-0.1-0.5-0.2-1-0.4-1.5
				c-0.1-0.3-0.3-0.6-0.5-0.7c-0.5-0.7-1.4-0.8-2.1-0.2c-1.9,1.5-3.4,3.5-4.9,5.3c-1.5,1.8-3,3.7-4.4,5.7c-1.4,2-2.6,4.1-3.5,6.3
				c-0.9,2-2,4.5-0.9,6.6c0.2,0.4,0.5,0.6,0.9,0.7c0.1,0.1,0.2,0.2,0.4,0.3c4,2.2,8.3,4.2,11.1,7.9c0.6,0.9,2.3,1,2.5-0.3
				C89.4,43.2,91.2,33.6,89.5,24z"/>
		</g>
		<g>
			<path class="st3" d="M85,32.2c0,0,0-0.1,0-0.1c0-0.2,0-0.3,0-0.5c0-0.1,0-0.2-0.1-0.3c-0.1-0.3-0.1-0.6-0.2-0.9
				c-0.1-0.2-0.2-0.4-0.3-0.5c-0.3-0.4-0.9-0.5-1.3-0.1c-1.1,0.9-2.1,2.1-3,3.3c-1,1.1-1.9,2.3-2.7,3.5c-0.9,1.2-1.6,2.5-2.2,3.9
				c-0.5,1.2-1.2,2.8-0.6,4.1c0.1,0.2,0.3,0.4,0.5,0.4c0.1,0.1,0.1,0.2,0.3,0.2c2.5,1.4,5.1,2.6,6.8,4.9c0.4,0.5,1.4,0.6,1.6-0.2
				C84.9,44.1,86,38.2,85,32.2z"/>
		</g>
		<g class="st4">
			<g>
				<defs>
					<path id="SVGID_1_" d="M38.9,32.2c0,0,0-0.1,0-0.1c0-0.2,0-0.3,0-0.5c0-0.1,0-0.2,0.1-0.3c0.1-0.3,0.1-0.6,0.2-0.9
						c0.1-0.2,0.2-0.4,0.3-0.5c0.3-0.4,0.9-0.5,1.3-0.1c1.1,0.9,2.1,2.1,3,3.3c1,1.1,1.9,2.3,2.7,3.5c0.9,1.2,1.6,2.5,2.2,3.9
						c0.5,1.2,1.2,2.8,0.6,4.1C49.2,44.8,49,45,48.8,45c-0.1,0.1-0.1,0.2-0.3,0.2c-2.5,1.4-5.1,2.6-6.8,4.9
						c-0.4,0.5-1.4,0.6-1.6-0.2C39,44.1,37.9,38.2,38.9,32.2z"/>
				</defs>
				<clipPath id="SVGID_00000170964551681384368100000008570373286852945050_">
					<use xlink:href="#SVGID_1_"  style="overflow:visible;"/>
				</clipPath>
				
					<rect x="37.9" y="29.5" style="clip-path:url(#SVGID_00000170964551681384368100000008570373286852945050_);fill:#E2DAC5;" width="12.2" height="21.2"/>
				<path style="clip-path:url(#SVGID_00000170964551681384368100000008570373286852945050_);fill:#E2DAC5;" d="M41.9,37.7
					c3.3-1.3,7.6,2.2,9.8,7.8h-1v5.8h-8.8v2.5c-0.8-1.1-1.4-2.3-2-3.7C37.7,44.4,38.6,38.9,41.9,37.7z"/>
				
					<ellipse transform="matrix(0.9334 -0.3589 0.3589 0.9334 -14.082 19.6016)" style="clip-path:url(#SVGID_00000170964551681384368100000008570373286852945050_);fill:#E2DAC5;" cx="45.8" cy="47.7" rx="3.2" ry="5.4"/>
			</g>
		</g>
		<g class="st4">
			<g>
				<defs>
					<path id="SVGID_00000069386818791167301120000010167240811323365269_" d="M85,32.2c0,0,0-0.1,0-0.1c0-0.2,0-0.3,0-0.5
						c0-0.1,0-0.2-0.1-0.3c-0.1-0.3-0.1-0.6-0.2-0.9c-0.1-0.2-0.2-0.4-0.3-0.5c-0.3-0.4-0.9-0.5-1.3-0.1c-1.1,0.9-2.1,2.1-3,3.3
						c-1,1.1-1.9,2.3-2.7,3.5c-0.9,1.2-1.6,2.5-2.2,3.9c-0.5,1.2-1.2,2.8-0.6,4.1c0.1,0.2,0.3,0.4,0.5,0.4c0.1,0.1,0.1,0.2,0.3,0.2
						c2.5,1.4,5.1,2.6,6.8,4.9c0.4,0.5,1.4,0.6,1.6-0.2C84.9,44.1,86,38.2,85,32.2z"/>
				</defs>
				<clipPath id="SVGID_00000103950953873246695760000000454125623006194834_">
					<use xlink:href="#SVGID_00000069386818791167301120000010167240811323365269_"  style="overflow:visible;"/>
				</clipPath>
				
					<rect x="73.9" y="29.5" style="clip-path:url(#SVGID_00000103950953873246695760000000454125623006194834_);fill:#E2DAC5;" width="12.2" height="21.2"/>
				<path style="clip-path:url(#SVGID_00000103950953873246695760000000454125623006194834_);fill:#E2DAC5;" d="M81.5,36.5
					c3.7,1.3,5,7.3,2.9,13.3c-0.5,1.5-1.2,2.9-2,4.1v-2.6h-9.1v-6.1H71C73.1,39.1,77.8,35.2,81.5,36.5z"/>
				
					<ellipse transform="matrix(0.3289 -0.9444 0.9444 0.3289 7.2733 105.1978)" style="clip-path:url(#SVGID_00000103950953873246695760000000454125623006194834_);fill:#E2DAC5;" cx="77.7" cy="47.5" rx="5.8" ry="3.5"/>
			</g>
		</g>
		<g>
			<path class="st1" d="M97.9,64.1c-1.2-3.1-4.2-5.1-6.6-7.6C85,50.1,81.2,46.1,75.5,43c-6.7-3.6-14.4-4.3-21.8-1.6
				c-6.5,2.3-11.3,6.5-16,11.5c-5.2,5.5-11.1,8.9-11.9,15.3C24.9,76.4,32,84.5,39,88.2c7,3.6,12.5,9.4,20.3,10.8
				c8.5,1.6,14.1-4.5,21.3-8.5c5.6-3.1,12-6.3,15.3-12.2C98.4,73.9,99.4,68.3,97.9,64.1z"/>
		</g>
		<g>
			<g>
				<path class="st3" d="M39,88.2C46,91.8,51.6,97.5,59.4,99c8.5,1.6,14.1-4.5,21.3-8.5c5.6-3.1,12-6.3,15.3-12.2
					c0.2-0.4,0.4-0.8,0.6-1.3c1-3.4,1.9-8.2,0.1-11.3c-2.1-3.7-7.8-5.5-12.2-5.2c-4.1,0.3-6.6,1.1-10.3,2.8c-1,0.5-2,1-3,1.5
					c-1.4,0.4-2.8,0.7-4.2,1.1c-1.5,0.4-2.9,1-4.3,1.3c-0.5,0-0.9,0-1.4,0c-3.2-0.6-6.5-1.6-9.5-2.8c-2.7-1.3-5.3-3.1-8.3-3.5
					c-1.1-0.2-2.3-0.3-3.4-0.5c-2.3,0-4.4,0.6-6.4,1.7c-2.8,1.7-5.4,3.9-6.3,7c-0.5,1.8-0.6,4-0.3,5.8C28.7,80.3,32.6,84.8,39,88.2z
					"/>
			</g>
			<g class="st7">
				<g>
					<defs>
						<path id="SVGID_00000177447076341851666060000003052118977501375114_" d="M39,88.2c6.9,3.7,12.5,9.4,20.3,10.8
							c8.5,1.6,14.1-4.5,21.3-8.5c5.6-3.1,12-6.3,15.3-12.2c0.2-0.4,0.4-0.8,0.6-1.3c1-3.4,1.9-8.2,0.1-11.3
							c-2.1-3.7-7.8-5.5-12.2-5.2c-4.1,0.3-6.6,1.1-10.3,2.8c-1,0.5-2,1-3,1.5c-1.4,0.4-2.8,0.7-4.2,1.1c-1.5,0.4-2.9,1-4.3,1.3
							c-0.5,0-0.9,0-1.4,0c-3.2-0.6-6.5-1.6-9.5-2.8c-2.7-1.3-5.3-3.1-8.3-3.5c-1.1-0.2-2.3-0.3-3.4-0.5c-2.3,0-4.4,0.6-6.4,1.7
							c-2.8,1.7-5,4.4-5.9,7.6c-0.5,1.8-0.6,3.7-0.3,5.6C29.3,80.8,32.6,84.7,39,88.2z"/>
					</defs>
					<clipPath id="SVGID_00000036249407282307253220000012917232815105083582_">
						<use xlink:href="#SVGID_00000177447076341851666060000003052118977501375114_"  style="overflow:visible;"/>
					</clipPath>
					
						<rect x="27.2" y="60.2" style="clip-path:url(#SVGID_00000036249407282307253220000012917232815105083582_);fill:#E2DAC5;" width="71.2" height="40.4"/>
					<path style="clip-path:url(#SVGID_00000036249407282307253220000012917232815105083582_);fill:#E2DAC5;" d="M38,103.1
						c0-8.8,11.3-16,25.2-16s25.2,7.2,25.2,16v-1.9H38V103.1z"/>
					<path style="clip-path:url(#SVGID_00000036249407282307253220000012917232815105083582_);fill:#E2DAC5;" d="M50.6,103.1
						c0-4.4,5.6-8,12.6-8s12.6,3.6,12.6,8v-1.9H50.6V103.1z"/>
				</g>
			</g>
		</g>
		<g>
			<path class="st9" d="M70.9,67.8c0.5-1,0.3-5.9-5.1-5.6c-3,0.1-6-0.2-9.7,0.1c-2.3,0.4-4.3,2.9-3.5,5.2c1.2,3.3,7.5,7,9.7,6.9
				C64.9,74.2,69.5,70.6,70.9,67.8z"/>
		</g>
		<g>
			<g>
				<path class="st9" d="M79.2,59c0.4-0.8,0-2.5-0.9-2.9c-3.1-1.5-5.8,2.7-5.8,4.9c0,1.3,1.5-1.5,3.5-2.4
					C77.1,57.9,78.9,59.6,79.2,59z"/>
			</g>
			<g>
				<g>
					<path class="st9" d="M80,59.4c0.4-0.9,0.3-2-0.1-2.9c-0.4-0.9-1.2-1.4-2.2-1.6c-2-0.3-3.6,0.8-4.7,2.3
						c-0.5,0.7-0.9,1.4-1.1,2.2c-0.2,0.6-0.4,1.6-0.1,2.2c0.3,0.5,0.9,0.6,1.4,0.4c0.3-0.1,0.5-0.3,0.7-0.5c0.6-0.6,1.1-1.2,1.7-1.7
						c0.1-0.1,0,0,0,0c0.1,0,0.1-0.1,0.2-0.1c0.1-0.1,0.2-0.1,0.3-0.2c0.1-0.1,0.2-0.1,0.3-0.2c-0.2,0.1,0,0,0,0c0.2-0.1-0.1,0,0,0
						c0.1,0,0.2,0,0.3,0c0.1,0-0.1,0,0,0c0.1,0,0.1,0,0.2,0c0.2,0.1,0.4,0.1,0.6,0.2C78.3,59.9,79.4,60.4,80,59.4
						c0.6-1-1-1.9-1.6-0.9c0,0.1-0.1,0.1,0.1-0.1c0.1-0.1,0.2-0.2,0.3-0.2c0.1,0,0.2,0,0.1,0c0.1,0,0.2,0,0,0c-0.1,0-0.1,0-0.2-0.1
						c-0.3-0.1-0.6-0.2-0.9-0.3c-0.8-0.3-1.6-0.4-2.4,0c-1.2,0.6-2.2,1.7-3.2,2.7c-0.1,0.1,0.2-0.1,0,0c0,0-0.1,0-0.1,0.1
						c0-0.1,0.3-0.1,0.3-0.1c0.1,0,0.2,0.1,0.3,0.1c0.2,0,0.3,0.1,0.4,0.3c0,0,0.1,0.2,0.1,0.1c0-0.1,0,0.2,0,0.1c0-0.1,0-0.1,0-0.2
						c0-0.1,0-0.1,0-0.2c0-0.2,0,0.2,0,0c0.1-0.3,0.1-0.6,0.2-0.9c0,0,0.1-0.2,0.1-0.1c0,0.1,0-0.1,0.1-0.1c0.1-0.2,0.2-0.3,0.3-0.5
						c0.1-0.1,0.2-0.3,0.3-0.4c0-0.1,0.1-0.1,0.1-0.2c0,0,0-0.1,0.1-0.1c0.1-0.1,0,0,0,0c0.2-0.3,0.4-0.5,0.7-0.7
						c0.1-0.1,0.1-0.1,0.2-0.2c0,0,0.1-0.1,0,0c0,0,0.1,0,0.1-0.1c0.1-0.1,0.3-0.2,0.4-0.3c0.1,0,0.1-0.1,0.2-0.1
						c0.2-0.1-0.1,0,0.1,0c0.2-0.1,0.3-0.1,0.5-0.1c0,0,0.1,0,0,0c-0.1,0,0,0,0.1,0c0.1,0,0.2,0,0.3,0c0,0,0.3,0,0.2,0
						c-0.1,0,0,0,0,0c0.1,0,0.1,0,0.2,0c0.1,0,0.2,0.1,0.3,0.1c0,0,0.1,0.1,0.1,0c-0.1,0,0.1,0,0.1,0c0.1,0,0.2,0.2,0.1,0
						c0,0,0.2,0.2,0.1,0.1c-0.1-0.1,0,0,0,0c0,0.1,0.1,0.1,0.1,0.2c0,0,0.1,0.3,0.1,0.1c0.1,0.2,0.1,0.4,0.2,0.6c0,0,0,0.1,0,0
						c0-0.1,0,0.1,0,0.1c0,0.1,0,0.2,0,0.3c0,0,0,0.1,0,0.1c0-0.1,0-0.1,0,0c0,0.1-0.1,0.3,0,0.1c-0.2,0.4-0.1,1,0.3,1.2
						C79.2,60,79.8,59.9,80,59.4z"/>
				</g>
			</g>
		</g>
		<g>
			<g>
				<path class="st9" d="M44.1,58.2c-0.4-0.8,0-2.5,0.9-2.9c3.1-1.5,5.8,2.7,5.8,4.9c0,1.3-1.5-1.5-3.5-2.4
					C46.2,57.2,44.4,58.8,44.1,58.2z"/>
			</g>
			<g>
				<g>
					<path class="st9" d="M44.9,57.7C44.9,57.9,44.9,57.8,44.9,57.7C44.9,57.6,44.8,57.5,44.9,57.7c0-0.3,0-0.5,0-0.6
						c0,0.2,0,0,0-0.1c0-0.1,0-0.2,0.1-0.2c0-0.1,0.1-0.2,0.1-0.2c-0.1,0.2,0.1-0.1,0.1-0.2c0-0.1,0.1-0.1,0.1-0.2
						c-0.1,0.1,0,0,0.1,0c0.1-0.1-0.1,0,0,0c0,0,0.2-0.1,0.2-0.1c-0.1,0,0.1,0,0.2-0.1c0.1,0,0.2-0.1,0.3-0.1c0.1,0,0.2,0,0.1,0
						c0.1,0,0.2,0,0.3,0c0.1,0,0.2,0,0.2,0c0,0,0.1,0,0.1,0c0,0-0.2,0-0.1,0c0.2,0,0.3,0.1,0.5,0.1c0,0,0.1,0,0.1,0c0,0-0.1-0.1,0,0
						c0.1,0,0.1,0.1,0.2,0.1c0.1,0.1,0.3,0.2,0.4,0.3c0,0,0.1,0.1,0.1,0.1c0,0-0.1-0.1,0,0c0.1,0.1,0.1,0.1,0.2,0.2
						c0.1,0.1,0.3,0.2,0.4,0.4c0.1,0.1,0.2,0.2,0.3,0.4c0.1,0.1,0,0,0,0c0,0,0,0.1,0.1,0.1c0.1,0.1,0.1,0.2,0.2,0.2
						c0.2,0.3,0.4,0.6,0.5,0.9c0,0.1,0.1,0.1,0.1,0.2c-0.1-0.1,0,0,0,0.1c0.1,0.1,0.1,0.3,0.1,0.4c0,0.1,0.1,0.3,0.1,0.4
						c0,0.1,0,0.2,0,0c0,0.1,0,0.1,0,0.2c0,0.1,0,0.1,0,0.2c0,0.2,0-0.1,0-0.1c0,0.1,0.1-0.2,0.2-0.3c0.1-0.1,0.5-0.2,0.7-0.2
						c0.2,0,0,0,0.2,0c0.2,0,0.1,0,0,0c-0.1-0.1,0.1,0.1,0.1,0c-0.1-0.1-0.2-0.2-0.3-0.3c-0.2-0.2-0.4-0.4-0.6-0.6
						c-0.6-0.6-1.1-1.1-1.8-1.5c-0.8-0.5-1.7-0.6-2.6-0.3c-0.3,0.1-0.7,0.3-1,0.4c-0.1,0-0.3,0.1-0.4,0.1c0,0,0.2,0,0,0
						c0.1,0,0.2,0,0.2,0.1c0.1,0,0.2,0.1,0.2,0.2C44.9,57.8,44.9,57.8,44.9,57.7c-0.6-1-2.1-0.1-1.6,0.9c0.5,0.9,1.5,0.6,2.2,0.3
						c0.4-0.2,0.8-0.3,1.2-0.4c-0.2,0,0,0,0.1,0c0.1,0,0.3,0,0.1,0c0,0,0.1,0,0.1,0c0,0-0.1-0.1,0,0c0.1,0.1,0.2,0.1,0.3,0.2
						c0.1,0.1,0.2,0.1,0.3,0.2c0,0,0.2,0.2,0.1,0.1c0.2,0.1,0.4,0.3,0.5,0.5c0.3,0.3,0.6,0.6,0.9,0.9c0.5,0.5,1.1,1.2,1.8,1
						c0.9-0.3,0.8-1.4,0.7-2.1c-0.2-0.8-0.5-1.6-0.9-2.2c-0.9-1.5-2.5-2.9-4.3-2.9c-1.1,0-2.2,0.4-2.8,1.4c-0.6,1-0.7,2.2-0.3,3.2
						c0.2,0.4,0.9,0.6,1.2,0.3C45,58.7,45.1,58.2,44.9,57.7z"/>
				</g>
			</g>
		</g>
		<g>
			<path class="st3" d="M77.9,49.8c-0.2-0.8-0.8-1.4-1.6-1.5c-0.2-0.1-0.4-0.2-0.6-0.2c-1.3-0.1-3.1,0.6-3.7,1.9
				c-0.8,1.9,1.3,3,2.9,2.9C76.4,52.8,78.3,51.6,77.9,49.8z"/>
		</g>
		<g>
			<path class="st3" d="M51.3,48.6c-0.6-0.3-1.4-0.7-2.1-0.6c-0.8,0-1.4,0.4-1.7,1c-0.4,0.4-0.5,0.9-0.6,1.5c0,0.9,0.7,1.7,1.5,2.1
				c1.2,0.7,3.3,0.9,4.4-0.2C54.2,51.1,52.6,49.2,51.3,48.6z"/>
		</g>
		<g>
			<g>
				<path class="st9" d="M44.5,71c0.8,1.6,1.6,3.1,2.8,4.4c1.5,1.7,3.5,2.8,5.7,3.3c2.2,0.5,4.7,0.6,6.8-0.2
					c1.8-0.7,2.9-2.1,3.6-3.9c0.4-1.1-1.3-1.6-1.7-0.5c-1.4,3.6-5.7,3.6-8.9,2.7c-3.4-1-5.2-3.7-6.7-6.7C45.5,69,44,70,44.5,71
					L44.5,71z"/>
			</g>
		</g>
		<g>
			<g>
				<path class="st9" d="M61.7,74.8c0.7,2,2,3.4,4,4c2.1,0.7,5,0.8,7.1,0.1c3.7-1.3,6.2-4.9,7.5-8.5c0.4-1.1-1.4-1.6-1.7-0.5
					c-1,2.9-2.9,5.7-5.7,7c-1.7,0.8-4,0.7-5.8,0.3c-1.7-0.4-3-1.2-3.5-2.9C63,73.2,61.3,73.7,61.7,74.8L61.7,74.8z"/>
			</g>
		</g>
		<g>
			<g>
				<path class="st10" d="M56.1,86.4c2.1,0.9,4.3,1.8,6.6,1.9c2.1,0.1,4.1-0.6,5.7-1.9c0.9-0.8-0.4-2-1.3-1.3
					c-2.9,2.5-7.1,1.1-10.1-0.2c-0.4-0.2-1-0.1-1.2,0.3C55.5,85.6,55.6,86.2,56.1,86.4L56.1,86.4z"/>
			</g>
		</g>
		<g>
			<g>
				<path class="st2" d="M37.3,53.8c3-2.9,6.5-5,9.6-7.7c0.9-0.8-0.4-2-1.3-1.3c-3.1,2.7-6.6,4.8-9.6,7.7
					C35.2,53.4,36.5,54.6,37.3,53.8L37.3,53.8z"/>
			</g>
		</g>
		<g>
			<g>
				<path class="st2" d="M89.1,52.3c-2.8-3-5.8-5.9-9.5-7.9c-1-0.6-1.9,1-0.9,1.6c3.5,1.9,6.4,4.7,9.1,7.6
					C88.6,54.4,89.9,53.1,89.1,52.3L89.1,52.3z"/>
			</g>
		</g>
	</g>
</g>
</svg>
