<?xml version="1.0" encoding="utf-8"?>
<!-- Generator: Adobe Illustrator 26.0.3, SVG Export Plug-In . SVG Version: 6.00 Build 0)  -->
<svg version="1.1" id="Layer_1" xmlns="http://www.w3.org/2000/svg" xmlns:xlink="http://www.w3.org/1999/xlink" x="0px" y="0px"
	 viewBox="0 0 400 400" style="enable-background:new 0 0 400 400;" xml:space="preserve">
<style type="text/css">
	.st0{fill:#FFB999;}
	.st1{fill:none;}
	.st2{fill:#AC93B8;}
	.st3{fill:#FFFFFF;}
	.st4{fill:#7177A9;}
</style>
<rect x="-3.5" y="-3.5" class="st0" width="407" height="407"/>
<g>
	<path class="st1" d="M571.9,129.1c7.4,0,13.5-6.1,13.5-13.5c0-6.8-5-12.3-11.5-13.3c-1,9.1-3.8,17.7-7.9,25.5
		C567.8,128.7,569.8,129.1,571.9,129.1z"/>
	<path class="st0" d="M561.9,134.7c3,1.6,6.4,2.5,10,2.5c11.9,0,21.5-9.6,21.5-21.5c0-11-8.3-20.1-19-21.3c0-0.1,0-0.1,0-0.2h-144
		c0,26.4,14.2,49.5,35.4,62h-29.9c-3,0-5.5,2.5-5.5,5.5s2.5,5.5,5.5,5.5h134c3,0,5.5-2.5,5.5-5.5s-2.5-5.5-5.5-5.5H539
		C548.1,150.7,556,143.4,561.9,134.7z M585.4,115.6c0,7.4-6.1,13.5-13.5,13.5c-2.1,0-4.1-0.5-5.8-1.4c4.1-7.8,6.8-16.4,7.9-25.5
		C580.4,103.3,585.4,108.9,585.4,115.6z"/>
	<path class="st2" d="M574.2,89.1c0-10.9-2.5-21.3-6.8-30.6l0.2,0.1l5.2-26.6l2.5-13c1.2-6-4.6-11.1-10.5-9.1l-12.6,4.3l-23.4,8
		c-8.3-3.3-17.3-5.1-26.7-5.1c-9.5,0-18.5,1.9-26.8,5.2l-23.6-8.1l-12.6-4.3c-5.8-2-11.6,3.1-10.5,9.1l2.5,13l5.2,26.6l0.8-0.7
		c-4.5,9.4-7.1,20-7.1,31.1H574.2z M517.3,59.2l24.5-7.5c1.1-0.3,2.2,0.3,2.5,1.3c0.3,1.1-0.3,2.2-1.3,2.5l-24.5,7.5
		c-0.2,0.1-0.4,0.1-0.6,0.1c-0.9,0-1.6-0.6-1.9-1.4C515.6,60.7,516.2,59.6,517.3,59.2z M514.9,70.3c0.1-1.1,1.1-1.9,2.2-1.7
		l16.5,2.1c1.1,0.1,1.9,1.1,1.7,2.2c-0.1,1-1,1.8-2,1.8c-0.1,0-0.2,0-0.2,0l-16.5-2.1C515.6,72.4,514.8,71.4,514.9,70.3z
		 M497.9,60.1h3.9h3.9c1.5,0,2.5,1.7,1.7,3l-2,3.4l-2,3.4c-0.8,1.3-2.7,1.3-3.5,0l-2-3.4l-2-3.4C495.4,61.8,496.3,60.1,497.9,60.1z
		 M489.4,70.3c0.1,1.1-0.6,2.1-1.7,2.2l-16.5,2.1c-0.1,0-0.2,0-0.2,0c-1,0-1.9-0.7-2-1.8c-0.1-1.1,0.6-2.1,1.7-2.2l16.5-2.1
		C488.2,68.5,489.2,69.3,489.4,70.3z M488.3,61.7c-0.3,0.9-1.1,1.4-1.9,1.4c-0.2,0-0.4,0-0.6-0.1l-24.5-7.5
		c-1.1-0.3-1.7-1.4-1.3-2.5c0.3-1.1,1.4-1.7,2.5-1.3l24.5,7.5C488,59.6,488.6,60.7,488.3,61.7z"/>
	<path class="st3" d="M498.1,66.6l2,3.4c0.8,1.3,2.7,1.3,3.5,0l2-3.4l2-3.4c0.8-1.3-0.2-3-1.7-3h-3.9h-3.9c-1.5,0-2.5,1.7-1.7,3
		L498.1,66.6z"/>
	<path class="st3" d="M460,53.1c-0.3,1.1,0.3,2.2,1.3,2.5l24.5,7.5c0.2,0.1,0.4,0.1,0.6,0.1c0.9,0,1.6-0.6,1.9-1.4
		c0.3-1.1-0.3-2.2-1.3-2.5l-24.5-7.5C461.4,51.4,460.3,52,460,53.1z"/>
	<path class="st3" d="M487.1,68.6l-16.5,2.1c-1.1,0.1-1.9,1.1-1.7,2.2c0.1,1,1,1.8,2,1.8c0.1,0,0.2,0,0.2,0l16.5-2.1
		c1.1-0.1,1.9-1.1,1.7-2.2C489.2,69.3,488.2,68.5,487.1,68.6z"/>
	<path class="st3" d="M517.9,63.1c0.2,0,0.4,0,0.6-0.1l24.5-7.5c1.1-0.3,1.7-1.4,1.3-2.5c-0.3-1.1-1.4-1.6-2.5-1.3l-24.5,7.5
		c-1.1,0.3-1.7,1.4-1.3,2.5C516.2,62.6,517,63.1,517.9,63.1z"/>
	<path class="st3" d="M516.7,72.6l16.5,2.1c0.1,0,0.2,0,0.2,0c1,0,1.9-0.7,2-1.8c0.1-1.1-0.6-2.1-1.7-2.2l-16.5-2.1
		c-1.1-0.1-2.1,0.6-2.2,1.7C514.8,71.4,515.6,72.4,516.7,72.6z"/>
</g>
<g>
	<path class="st1" d="M317.9,270.4c12.8,0,23.3-10.4,23.3-23.3c0-11.6-8.6-21.3-19.8-23c-1.8,15.7-6.5,30.5-13.6,43.9
		C310.9,269.5,314.3,270.4,317.9,270.4z"/>
	<path class="st4" d="M300.7,279.9c5.1,2.7,11,4.3,17.2,4.3c20.4,0,37-16.6,37-37c0-19-14.3-34.6-32.7-36.8c0-0.1,0-0.2,0-0.3H74.1
		c0,45.5,24.5,85.2,61,106.8H83.6c-5.2,0-9.5,4.2-9.5,9.5c0,5.2,4.2,9.5,9.5,9.5h230.9c5.2,0,9.5-4.2,9.5-9.5c0-5.2-4.2-9.5-9.5-9.5
		h-53.2C276.9,307.6,290.4,294.9,300.7,279.9z M341.2,247.1c0,12.8-10.4,23.3-23.3,23.3c-3.6,0-7-0.9-10.1-2.3
		c7.1-13.4,11.8-28.2,13.6-43.9C332.6,225.8,341.2,235.5,341.2,247.1z"/>
	<path class="st2" d="M321.9,201.4c0-18.9-4.2-36.7-11.8-52.7l0.3,0.3l9-45.9l4.4-22.5c2-10.4-8-19.1-18-15.7l-21.6,7.4l-40.3,13.8
		c-14.2-5.7-29.7-8.8-46-8.8c-16.4,0-32,3.2-46.3,8.9l-40.6-14l-21.6-7.4c-10-3.4-20,5.3-18,15.7l4.4,22.5l9,45.9l1.3-1.1
		c-7.8,16.2-12.2,34.4-12.2,53.6H321.9z M223.8,149.9L266,137c1.8-0.6,3.7,0.5,4.3,2.3c0.6,1.8-0.5,3.7-2.3,4.3l-42.2,12.9
		c-0.3,0.1-0.7,0.2-1,0.2c-1.5,0-2.8-1-3.3-2.4C221,152.4,222,150.5,223.8,149.9z M219.7,169c0.2-1.9,2-3.2,3.8-3l28.4,3.5
		c1.9,0.2,3.2,2,3,3.8c-0.2,1.7-1.7,3-3.4,3c-0.1,0-0.3,0-0.4,0l-28.4-3.5C220.8,172.7,219.5,170.9,219.7,169z M190.3,151.5h6.8h6.8
		c2.7,0,4.3,2.9,3,5.2l-3.4,5.9l-3.4,5.9c-1.3,2.3-4.6,2.3-6,0l-3.4-5.9l-3.4-5.9C186,154.3,187.7,151.5,190.3,151.5z M175.7,169
		c0.2,1.9-1.1,3.6-3,3.8l-28.4,3.5c-0.1,0-0.3,0-0.4,0c-1.7,0-3.2-1.3-3.4-3c-0.2-1.9,1.1-3.6,3-3.8l28.4-3.5
		C173.8,165.8,175.5,167.2,175.7,169z M173.9,154.2c-0.5,1.5-1.8,2.4-3.3,2.4c-0.3,0-0.7,0-1-0.2l-42.2-12.9
		c-1.8-0.6-2.8-2.5-2.3-4.3c0.6-1.8,2.5-2.8,4.3-2.3l42.2,12.9C173.4,150.5,174.4,152.4,173.9,154.2z"/>
</g>
<g>
	<path class="st4" d="M-352,189.5l14.2-32h7.3l14.3,32h-7.8l-11.7-28.2h2.9l-11.7,28.2H-352z M-344.8,182.6l2-5.6h16.4l2,5.6H-344.8
		z"/>
	<path class="st4" d="M-303,189.8c-2.3,0-4.4-0.5-6.3-1.6c-1.9-1.1-3.3-2.5-4.4-4.4c-1.1-1.9-1.6-4.1-1.6-6.7c0-2.6,0.5-4.8,1.6-6.7
		c1.1-1.9,2.5-3.3,4.4-4.4c1.9-1,3.9-1.6,6.3-1.6c2.1,0,3.9,0.5,5.4,1.4c1.6,0.9,2.8,2.3,3.6,4.2c0.9,1.9,1.3,4.2,1.3,7.1
		c0,2.9-0.4,5.2-1.2,7.1c-0.8,1.9-2,3.3-3.5,4.2C-298.9,189.4-300.8,189.8-303,189.8z M-301.7,184c1.2,0,2.2-0.3,3.2-0.8
		c0.9-0.5,1.7-1.3,2.3-2.4c0.6-1,0.8-2.2,0.8-3.6c0-1.4-0.3-2.6-0.8-3.7c-0.6-1-1.3-1.8-2.3-2.3c-0.9-0.5-2-0.8-3.2-0.8
		c-1.2,0-2.3,0.3-3.2,0.8c-0.9,0.5-1.7,1.3-2.3,2.3c-0.6,1-0.8,2.2-0.8,3.7c0,1.4,0.3,2.6,0.8,3.6c0.6,1,1.3,1.8,2.3,2.4
		C-304,183.7-302.9,184-301.7,184z M-295.3,189.5v-5l0.1-7.3l-0.5-7.3v-14.3h7.1v33.9H-295.3z"/>
	<path class="st4" d="M-271.4,189.8c-2.3,0-4.4-0.5-6.3-1.6c-1.9-1.1-3.3-2.5-4.4-4.4c-1.1-1.9-1.6-4.1-1.6-6.7
		c0-2.6,0.5-4.8,1.6-6.7c1.1-1.9,2.5-3.3,4.4-4.4c1.9-1,3.9-1.6,6.3-1.6c2.1,0,3.9,0.5,5.4,1.4c1.6,0.9,2.8,2.3,3.6,4.2
		c0.9,1.9,1.3,4.2,1.3,7.1c0,2.9-0.4,5.2-1.2,7.1c-0.8,1.9-2,3.3-3.5,4.2C-267.3,189.4-269.2,189.8-271.4,189.8z M-270.1,184
		c1.2,0,2.2-0.3,3.2-0.8c0.9-0.5,1.7-1.3,2.3-2.4c0.6-1,0.8-2.2,0.8-3.6c0-1.4-0.3-2.6-0.8-3.7c-0.6-1-1.3-1.8-2.3-2.3
		c-0.9-0.5-2-0.8-3.2-0.8c-1.2,0-2.3,0.3-3.2,0.8c-0.9,0.5-1.7,1.3-2.3,2.3c-0.6,1-0.8,2.2-0.8,3.7c0,1.4,0.3,2.6,0.8,3.6
		c0.6,1,1.3,1.8,2.3,2.4C-272.4,183.7-271.3,184-270.1,184z M-263.7,189.5v-5l0.1-7.3l-0.5-7.3v-14.3h7.1v33.9H-263.7z"/>
	<path class="st4" d="M-236.9,189.5v-32h13.8c2.9,0,5.3,0.5,7.4,1.4c2.1,0.9,3.7,2.3,4.8,4c1.1,1.7,1.7,3.8,1.7,6.2
		c0,2.4-0.6,4.4-1.7,6.2c-1.1,1.7-2.7,3.1-4.8,4s-4.5,1.4-7.4,1.4h-9.7l3.3-3.3v12.1H-236.9z M-229.5,178.1l-3.3-3.5h9.3
		c2.3,0,4-0.5,5.1-1.5c1.1-1,1.7-2.3,1.7-4.1c0-1.8-0.6-3.1-1.7-4.1c-1.1-1-2.8-1.5-5.1-1.5h-9.3l3.3-3.5V178.1z"/>
	<path class="st4" d="M-189,164.5c1.9,0,3.7,0.4,5.2,1.2c1.5,0.8,2.7,2,3.6,3.6c0.9,1.6,1.3,3.6,1.3,6.1v14.1h-7.1v-13
		c0-2-0.4-3.4-1.3-4.4c-0.9-0.9-2.1-1.4-3.7-1.4c-1.1,0-2.1,0.2-3,0.7c-0.9,0.5-1.6,1.2-2.1,2.2c-0.5,1-0.8,2.2-0.8,3.7v12.1h-7.1
		v-33.9h7.1v16.1l-1.6-2.1c0.9-1.6,2.1-2.9,3.8-3.8C-193,165-191.1,164.5-189,164.5z"/>
	<path class="st4" d="M-160.5,189.8c-2.6,0-4.9-0.5-7-1.6s-3.6-2.6-4.8-4.5c-1.2-1.9-1.8-4.1-1.8-6.5c0-2.5,0.6-4.7,1.8-6.6
		c1.2-1.9,2.8-3.4,4.8-4.5c2-1.1,4.3-1.6,7-1.6c2.6,0,4.9,0.5,6.9,1.6c2,1.1,3.6,2.6,4.8,4.5c1.2,1.9,1.7,4.1,1.7,6.6
		c0,2.4-0.6,4.6-1.7,6.5c-1.2,1.9-2.8,3.4-4.8,4.5C-155.6,189.3-157.9,189.8-160.5,189.8z M-160.5,184c1.2,0,2.3-0.3,3.2-0.8
		c0.9-0.5,1.7-1.3,2.2-2.4c0.5-1,0.8-2.2,0.8-3.6c0-1.4-0.3-2.6-0.8-3.7c-0.5-1-1.3-1.8-2.2-2.3c-0.9-0.5-2-0.8-3.2-0.8
		s-2.3,0.3-3.2,0.8s-1.7,1.3-2.3,2.3c-0.6,1-0.8,2.2-0.8,3.7c0,1.4,0.3,2.6,0.8,3.6c0.6,1,1.3,1.8,2.3,2.4
		C-162.8,183.7-161.7,184-160.5,184z"/>
	<path class="st4" d="M-145.2,170.9v-5.5h17v5.5H-145.2z M-132.2,189.8c-2.9,0-5.1-0.7-6.8-2.2c-1.6-1.5-2.4-3.7-2.4-6.6v-21.6h7.1
		v21.5c0,1,0.3,1.8,0.8,2.4c0.5,0.6,1.3,0.8,2.2,0.8c1.1,0,2.1-0.3,2.9-0.9l1.9,5c-0.7,0.5-1.6,0.9-2.6,1.2
		C-130.1,189.7-131.1,189.8-132.2,189.8z"/>
	<path class="st4" d="M-111.5,189.8c-2.6,0-4.9-0.5-7-1.6s-3.6-2.6-4.8-4.5c-1.2-1.9-1.8-4.1-1.8-6.5c0-2.5,0.6-4.7,1.8-6.6
		c1.2-1.9,2.8-3.4,4.8-4.5c2-1.1,4.3-1.6,7-1.6c2.6,0,4.9,0.5,6.9,1.6c2,1.1,3.6,2.6,4.8,4.5c1.2,1.9,1.7,4.1,1.7,6.6
		c0,2.4-0.6,4.6-1.7,6.5c-1.2,1.9-2.8,3.4-4.8,4.5S-108.9,189.8-111.5,189.8z M-111.5,184c1.2,0,2.3-0.3,3.2-0.8
		c0.9-0.5,1.7-1.3,2.2-2.4c0.5-1,0.8-2.2,0.8-3.6c0-1.4-0.3-2.6-0.8-3.7c-0.5-1-1.3-1.8-2.2-2.3c-0.9-0.5-2-0.8-3.2-0.8
		s-2.3,0.3-3.2,0.8s-1.7,1.3-2.3,2.3c-0.6,1-0.8,2.2-0.8,3.7c0,1.4,0.3,2.6,0.8,3.6c0.6,1,1.3,1.8,2.3,2.4
		C-113.8,183.7-112.7,184-111.5,184z"/>
	<path class="st4" d="M-240.1,232.9v-8.3h32.2v8.3H-240.1z M-228.4,244.4v-31.3h8.7v31.3H-228.4z"/>
</g>
<g>
	<path class="st4" d="M521,359.5l14.2-32h7.3l14.3,32h-7.8l-11.7-28.2h2.9l-11.7,28.2H521z M528.2,352.6l2-5.6h16.4l2,5.6H528.2z"/>
	<path class="st4" d="M570.1,359.8c-2.3,0-4.4-0.5-6.3-1.6c-1.9-1.1-3.3-2.5-4.4-4.4c-1.1-1.9-1.6-4.1-1.6-6.7
		c0-2.6,0.5-4.8,1.6-6.7c1.1-1.9,2.5-3.3,4.4-4.4c1.9-1,3.9-1.6,6.3-1.6c2.1,0,3.9,0.5,5.4,1.4c1.6,0.9,2.8,2.3,3.6,4.2
		c0.9,1.9,1.3,4.2,1.3,7.1c0,2.9-0.4,5.2-1.2,7.1c-0.8,1.9-2,3.3-3.5,4.2C574.1,359.4,572.2,359.8,570.1,359.8z M571.3,354
		c1.2,0,2.2-0.3,3.2-0.8c0.9-0.5,1.7-1.3,2.3-2.4s0.8-2.2,0.8-3.6c0-1.4-0.3-2.6-0.8-3.7c-0.6-1-1.3-1.8-2.3-2.3s-2-0.8-3.2-0.8
		c-1.2,0-2.3,0.3-3.2,0.8c-0.9,0.5-1.7,1.3-2.3,2.3c-0.6,1-0.8,2.2-0.8,3.7c0,1.4,0.3,2.6,0.8,3.6s1.3,1.8,2.3,2.4
		C569,353.7,570.1,354,571.3,354z M577.7,359.5v-5l0.1-7.3l-0.5-7.3v-14.3h7.1v33.9H577.7z"/>
	<path class="st4" d="M601.7,359.8c-2.3,0-4.4-0.5-6.3-1.6s-3.3-2.5-4.4-4.4c-1.1-1.9-1.6-4.1-1.6-6.7c0-2.6,0.5-4.8,1.6-6.7
		c1.1-1.9,2.5-3.3,4.4-4.4c1.9-1,3.9-1.6,6.3-1.6c2.1,0,3.9,0.5,5.4,1.4c1.6,0.9,2.8,2.3,3.6,4.2c0.9,1.9,1.3,4.2,1.3,7.1
		c0,2.9-0.4,5.2-1.2,7.1s-2,3.3-3.5,4.2S603.8,359.8,601.7,359.8z M602.9,354c1.2,0,2.2-0.3,3.2-0.8c0.9-0.5,1.7-1.3,2.3-2.4
		c0.6-1,0.8-2.2,0.8-3.6c0-1.4-0.3-2.6-0.8-3.7c-0.6-1-1.3-1.8-2.3-2.3c-0.9-0.5-2-0.8-3.2-0.8c-1.2,0-2.3,0.3-3.2,0.8
		s-1.7,1.3-2.3,2.3c-0.6,1-0.8,2.2-0.8,3.7c0,1.4,0.3,2.6,0.8,3.6c0.6,1,1.3,1.8,2.3,2.4C600.6,353.7,601.7,354,602.9,354z
		 M609.3,359.5v-5l0.1-7.3l-0.5-7.3v-14.3h7.1v33.9H609.3z"/>
	<path class="st4" d="M651.4,360c-2.5,0-4.8-0.4-6.9-1.2s-4-2-5.5-3.4c-1.6-1.5-2.8-3.2-3.6-5.3c-0.9-2-1.3-4.2-1.3-6.6
		c0-2.4,0.4-4.6,1.3-6.6c0.9-2,2.1-3.8,3.7-5.3c1.6-1.5,3.4-2.6,5.5-3.4c2.1-0.8,4.4-1.2,6.9-1.2c2.8,0,5.3,0.5,7.5,1.4
		c2.2,1,4.1,2.4,5.6,4.2l-4.8,4.4c-1.1-1.2-2.3-2.2-3.7-2.8c-1.3-0.6-2.8-0.9-4.4-0.9c-1.5,0-2.9,0.2-4.1,0.7
		c-1.2,0.5-2.3,1.2-3.2,2.1c-0.9,0.9-1.6,2-2.1,3.2c-0.5,1.2-0.8,2.6-0.8,4.2s0.3,2.9,0.8,4.2c0.5,1.2,1.2,2.3,2.1,3.2
		s2,1.6,3.2,2.1c1.2,0.5,2.6,0.7,4.1,0.7c1.6,0,3-0.3,4.4-0.9c1.3-0.6,2.6-1.6,3.7-2.9l4.8,4.4c-1.5,1.9-3.4,3.3-5.6,4.2
		C656.8,359.5,654.2,360,651.4,360z"/>
	<path class="st4" d="M676.5,359.8c-1.9,0-3.6-0.3-4.9-1c-1.4-0.7-2.4-1.5-3.2-2.7c-0.7-1.1-1.1-2.4-1.1-3.8c0-1.5,0.4-2.7,1.1-3.8
		c0.7-1.1,1.8-2,3.4-2.6c1.6-0.6,3.6-0.9,6.1-0.9h6.5v4.2h-5.8c-1.7,0-2.8,0.3-3.4,0.8c-0.6,0.5-0.9,1.2-0.9,2.1
		c0,0.9,0.4,1.6,1.1,2.2c0.7,0.5,1.7,0.8,2.9,0.8c1.2,0,2.3-0.3,3.2-0.8c0.9-0.6,1.6-1.4,2.1-2.5l1.1,3.3c-0.5,1.6-1.5,2.8-2.8,3.6
		C680.4,359.4,678.7,359.8,676.5,359.8z M684,359.5v-4.8l-0.5-1.1V345c0-1.5-0.5-2.7-1.4-3.6c-0.9-0.9-2.4-1.3-4.3-1.3
		c-1.3,0-2.6,0.2-3.9,0.6c-1.3,0.4-2.3,1-3.2,1.7l-2.6-5c1.3-0.9,3-1.7,4.8-2.2c1.9-0.5,3.8-0.8,5.8-0.8c3.7,0,6.7,0.9,8.7,2.6
		c2.1,1.8,3.1,4.5,3.1,8.3v14H684z"/>
	<path class="st4" d="M694.2,340.9v-5.5h17v5.5H694.2z M707.2,359.8c-2.9,0-5.1-0.7-6.8-2.2c-1.6-1.5-2.4-3.7-2.4-6.6v-21.6h7.1
		v21.5c0,1,0.3,1.8,0.8,2.4c0.5,0.6,1.3,0.8,2.2,0.8c1.1,0,2.1-0.3,2.9-0.9l1.9,5c-0.7,0.5-1.6,0.9-2.6,1.2
		C709.3,359.7,708.2,359.8,707.2,359.8z"/>
	<path class="st4" d="M601.5,402.9v-8.3h32.2v8.3H601.5z M613.2,414.4v-31.3h8.7v31.3H613.2z"/>
</g>
<text transform="matrix(1 0 0 1 -274.2786 45.6031)"><tspan x="0" y="0" class="st4" style="font-family:'Montserrat-Bold'; font-size:45.67px;">Add Cat</tspan><tspan x="76" y="63" class="st4" style="font-family:'Montserrat-Bold'; font-size:67.67px; letter-spacing:1;">+</tspan></text>
</svg>
