<?xml version="1.0" encoding="utf-8"?>
<!-- Generator: Adobe Illustrator 26.0.3, SVG Export Plug-In . SVG Version: 6.00 Build 0)  -->
<svg version="1.1" id="Layer_1" xmlns="http://www.w3.org/2000/svg" xmlns:xlink="http://www.w3.org/1999/xlink" x="0px" y="0px"
	 viewBox="0 0 400 400" style="enable-background:new 0 0 400 400;" xml:space="preserve">
<style type="text/css">
	.st0{fill:#FFFFFF;}
</style>
<g>
	<path class="st0" d="M190.4,1.4c6.6,0,13.3,0,19.9,0c0.6,0.1,1.1,0.3,1.7,0.3c4.4,0.1,8.7,0.6,13,1.2c12.1,1.5,24,4,35.6,7.7
		c19.3,6.1,37.2,15,53.9,26.5c13.4,9.3,25.4,20.1,36.1,32.3c7.3,8.3,13.9,17.2,19.7,26.6c9.7,15.7,17.2,32.5,22.3,50.3
		c2.6,9,4.5,18,5.7,27.3c0.6,4.8,1.3,9.5,1.3,14.4c0,0.6,0.2,1.3,0.3,1.9c0,7.5,0,15.1,0,22.6c-0.1,0.7-0.3,1.4-0.3,2.1
		c0,3.3-0.4,6.6-0.8,9.9c-1.2,10.6-3.3,20.9-6.2,31.2c-5,17.7-12.3,34.4-21.9,50c-8.8,14.4-19.3,27.4-31.4,39.1
		c-6.6,6.4-13.7,12.4-21.1,17.9c-12.2,8.9-25.2,16.3-39.1,22.3c-14.2,6.1-28.8,10.4-44,13.1c-0.8,0.1-1.7,0.3-2.5,0.4
		c-0.7,0.1-1.1-0.3-1.2-1c-0.1-0.8-0.1-1.7-0.1-2.5c0-44.2,0-88.3,0-132.5c0-0.4,0-0.8,0-1.2c0-0.3,0-0.5,0-0.8
		c0.1-1.3,0.4-1.6,1.6-1.7c0.7,0,1.4,0,2.1,0c12.9,0,25.8,0,38.6,0c0.6,0,1.2,0,1.8,0c2.3,0,2.4-0.1,2.8-2.3c0.6-3.7,1.1-7.3,1.7-11
		c2.1-13.4,4.1-26.9,6.2-40.3c0.1-0.8,0.3-1.7,0.3-2.5c0.1-0.9-0.2-1.3-1.2-1.4c-0.7-0.1-1.4,0-2.1,0c-15.8,0-31.6,0-47.4,0
		c-0.7,0-1.3,0-2,0c-2.3,0-2.4-0.2-2.5-2.4c0-0.1,0-0.1,0-0.2c0-11.9,0-23.8,0-35.7c0-3.5,0.5-6.9,1.5-10.2
		c1.3-4.6,3.6-8.8,7.1-12.2c2.8-2.7,6.1-4.6,9.8-5.9c4-1.4,8.1-2.1,12.2-2.2c7.9-0.1,15.9,0,23.8,0c0.7,0,1.3,0,1.9,0
		c0.9-0.1,1.3-0.4,1.4-1.3c0.1-0.6,0.1-1.2,0.1-1.8c0-14.3,0-28.6,0-42.9c0-0.5,0-0.9,0-1.4c-0.1-1.2-0.3-1.5-1.4-1.8
		c-0.3-0.1-0.5-0.1-0.8-0.2c-5.5-0.7-11.1-1.4-16.6-2.1c-3.6-0.4-7.3-0.7-10.9-0.9c-4.3-0.3-8.7-0.5-13-0.6
		c-5.5-0.1-10.9,0.3-16.3,1.1c-8.6,1.2-16.9,3.7-24.6,7.7c-12.9,6.7-22.3,16.7-28.3,29.9c-5,10.7-7.2,22.1-7.6,33.8
		c-0.1,1.9-0.1,3.9-0.1,5.9c0,13.3,0,26.5,0,39.8c0,0.8,0,1.7-0.1,2.5c-0.1,0.6-0.4,0.9-1,1c-0.8,0.1-1.6,0.1-2.3,0.1
		c-14.5,0-29,0-43.5,0c-0.7,0-1.4,0-2.1,0c-1,0.1-1.4,0.4-1.5,1.4c0,0.5,0,0.9,0,1.4c0,17.3,0,34.6,0,51.9c0,0.5,0,1,0.1,1.6
		c0.1,0.8,0.5,1.2,1.3,1.2c0.7,0.1,1.4,0.1,2.1,0.1c14.4,0,28.9,0,43.3,0c0.7,0,1.4,0,2.1,0c1.4,0.1,1.7,0.4,1.8,1.8
		c0,0.7,0,1.4,0,2.1c0,44,0,87.9,0,131.9c0,0.6,0,1.2,0,1.8c0,2.2-0.7,2.3-2.4,1.9c-4.8-1-9.6-1.8-14.3-3
		c-19.4-4.7-37.7-12.2-54.8-22.5c-16.3-9.8-30.9-21.6-43.8-35.5c-5-5.4-9.7-11-14.1-16.9c-8.7-11.7-16-24.1-22-37.4
		c-10.2-22.9-16-46.8-17.2-71.9c-0.1-1.7-0.1-3.4-0.7-5c0-3.4,0-6.8,0-10.1c0.6-1.6,0.6-3.2,0.6-4.8c0.2-5.8,0.8-11.5,1.6-17.3
		c1.6-11.9,4.3-23.5,8-34.9c3.7-11.4,8.5-22.4,14.2-32.9c7.8-14.4,17.2-27.7,28.3-39.8c6.6-7.1,13.5-13.8,21.1-20
		c18.9-15.4,39.9-27,63-34.8c10.9-3.7,22-6.3,33.3-8c6.2-0.9,12.4-1.7,18.6-1.9C189.3,1.7,189.9,1.5,190.4,1.4z"/>
</g>
</svg>
