<?xml version="1.0" encoding="utf-8"?>
<!-- Generator: Adobe Illustrator 26.0.3, SVG Export Plug-In . SVG Version: 6.00 Build 0)  -->
<svg version="1.1" id="Layer_1" xmlns="http://www.w3.org/2000/svg" xmlns:xlink="http://www.w3.org/1999/xlink" x="0px" y="0px"
	 viewBox="0 0 400 400" style="enable-background:new 0 0 400 400;" xml:space="preserve">
<style type="text/css">
	.st0{fill:#FFB999;}
	.st1{fill:#AC93B8;}
</style>
<g>
	<path class="st0" d="M400,188.3c0,7.8,0,15.6,0,23.4c-0.2,1.4-0.5,2.7-0.7,4.1c-1,7.2-1.5,14.5-2.9,21.6
		c-7.6,39.8-25.7,74.3-54.2,103c-29.9,30.2-65.8,49.2-107.7,56.4c-7.5,1.3-15.2,2.1-22.8,3.1c-7.8,0-15.6,0-23.4,0
		c-5.3-0.6-10.6-1.2-15.8-1.9c-39.4-5.6-74.3-21.3-104.1-47.7c-35.2-31-57.1-69.7-65.2-116C1.8,226.9,1,219.3,0,211.7
		c0-7.8,0-15.6,0-23.4c0.2-1.4,0.5-2.7,0.7-4.1c1-7.2,1.5-14.5,2.9-21.6c7.6-39.8,25.7-74.3,54.2-103
		c29.9-30.2,65.8-49.2,107.7-56.4c7.5-1.3,15.2-2.1,22.8-3.1c7.8,0,15.6,0,23.4,0c5.3,0.6,10.6,1.2,15.8,1.9
		c39.4,5.6,74.3,21.3,104.1,47.7c35.2,31,57.1,69.7,65.2,116C398.2,173.1,399,180.7,400,188.3z M199.9,328.3
		c0.8-0.7,1.3-1.1,1.8-1.5c23.8-22.2,47.6-44.4,71.3-66.7c13.3-12.5,26.7-24.9,36.7-40.3c17.9-27.4,21-55.6,5.1-85.1
		c-14.9-27.4-45-42.3-75.8-37.3c-13.2,2.2-25.1,7.4-36.1,14.8c-2,1.4-3.6,1.5-5.6,0.1c-2.8-1.9-5.7-3.6-8.6-5.3
		c-26.6-15-61.4-14.3-85.9,6.2c-23,19.3-33.5,53.5-24.3,82c5.5,17,15.2,31.4,27.6,43.9c15.5,15.6,31.6,30.6,47.5,45.8
		C168.8,299.4,184.3,313.7,199.9,328.3z"/>
	<path class="st1" d="M199.9,295.8c-4.2-3.9-8.2-7.6-12.2-11.3c-21.1-19.9-42.4-39.7-63.2-59.9c-8.8-8.5-16.1-18.3-21.3-29.6
		c-12.9-28.2,1.8-63.6,31-72.8c16.5-5.2,32.1-1.6,46.6,7.4c4.4,2.7,9.1,5.2,13.2,8.3c4.2,3.2,7.4,3.1,11.9,0.2
		c8.4-5.4,17-10.9,26.2-14.5c27-10.6,55.2,2.5,65.6,29.5c7.5,19.5,3.9,37.5-7.9,53.9c-6.7,9.3-14.5,18.2-22.7,26.2
		c-21.6,20.8-43.7,41-65.6,61.4C201.1,294.9,200.7,295.2,199.9,295.8z"/>
</g>
<g>
	<path class="st1" d="M840.7-132c-7.8,0-15.6,0-23.4,0c-5.3-0.6-10.6-1.2-15.8-1.9c-39.4-5.6-74.3-21.3-104.1-47.7
		c-35.2-31-57.1-69.7-65.2-116c-1.3-7.5-2.1-15.1-3.1-22.7c0-7.8,0-15.6,0-23.4c0.2-1.4,0.5-2.7,0.7-4.1c1-7.2,1.5-14.5,2.9-21.6
		c7.6-39.8,25.7-74.3,54.2-103c29.9-30.2,65.8-49.2,107.7-56.4c7.5-1.3,15.2-2.1,22.8-3.1c7.8,0,15.6,0,23.4,0
		c5.3,0.6,10.6,1.2,15.8,1.9c39.4,5.6,74.3,21.3,104.1,47.7c35.2,31,57.1,69.7,65.2,116c1.3,7.5,2.1,15.1,3.1,22.7
		c0,7.8,0,15.6,0,23.4c-0.2,1.4-0.5,2.7-0.7,4.1c-1,7.2-1.5,14.5-2.9,21.6c-7.6,39.8-25.7,74.3-54.2,103
		c-29.9,30.2-65.8,49.2-107.7,56.4C855.9-133.8,848.3-133,840.7-132z M829.2-508.6c-97.3-0.2-176.7,79.1-176.8,176.5
		c-0.1,97.1,78.9,176.3,176.2,176.7c97.2,0.3,176.7-78.9,176.9-176.3C1005.8-428.9,926.6-508.4,829.2-508.6z"/>
	<path class="st1" d="M828.9-203.7c-21.2-19.8-42.2-39.2-63-59c-12.6-12-25.2-24.1-37-37c-12.5-13.6-21.4-29.5-24.1-48.2
		c-4-28.4,5.8-52,26.9-70.8c23.9-21.3,59.2-21.4,85.8-6.4c2.8,1.6,5.7,3.2,8.3,5.1c2.3,1.7,4,1.4,6.2-0.1
		c13.5-9.1,28.2-14.9,44.8-15.3c29.9-0.8,52.2,12.5,66.7,38.1c16.5,29.2,12.9,57.6-5,85c-9.9,15.2-23.1,27.5-36.1,39.8
		c-23.9,22.5-47.9,44.8-71.9,67.2C830.2-204.8,829.7-204.4,828.9-203.7z M829-236.3c0.6-0.5,1.2-0.8,1.6-1.2
		c22-20.5,44.1-40.9,65.9-61.6c11.6-11.1,22.4-22.9,29.2-37.7c11.3-24.5,1.7-55.6-21.6-68.8c-16.4-9.3-33.3-8.2-49.7,0
		c-7.9,3.9-15.2,8.9-22.7,13.7c-2.1,1.3-3.5,1.3-5.5,0c-5.3-3.5-10.8-6.8-16.2-10.2c-14.5-8.9-30.1-12.6-46.6-7.6
		c-26.2,8.1-41.8,38.8-33.9,65.3c4.4,14.6,13,26.5,23.6,36.7c24.4,23.8,49.5,46.9,74.3,70.3C827.9-237.1,828.4-236.8,829-236.3z"/>
</g>
</svg>
