<?xml version="1.0" encoding="utf-8"?>
<!-- Generator: Adobe Illustrator 26.0.3, SVG Export Plug-In . SVG Version: 6.00 Build 0)  -->
<svg version="1.1" id="Layer_1" xmlns="http://www.w3.org/2000/svg" xmlns:xlink="http://www.w3.org/1999/xlink" x="0px" y="0px"
	 viewBox="0 0 400 400" style="enable-background:new 0 0 400 400;" xml:space="preserve">
<style type="text/css">
	.st0{fill:#AC93B8;}
</style>
<g>
	<path class="st0" d="M211.7,400c-7.8,0-15.6,0-23.4,0c-5.3-0.6-10.6-1.2-15.8-1.9c-39.4-5.6-74.3-21.3-104.1-47.7
		c-35.2-31-57.1-69.7-65.2-116C1.8,226.9,1,219.3,0,211.7c0-7.8,0-15.6,0-23.4c0.2-1.4,0.5-2.7,0.7-4.1c1-7.2,1.5-14.5,2.9-21.6
		c7.6-39.8,25.7-74.3,54.2-103c29.9-30.2,65.8-49.2,107.7-56.4c7.5-1.3,15.2-2.1,22.8-3.1c7.8,0,15.6,0,23.4,0
		c5.3,0.6,10.6,1.2,15.8,1.9c39.4,5.6,74.3,21.3,104.1,47.7c35.2,31,57.1,69.7,65.2,116c1.3,7.5,2.1,15.1,3.1,22.7
		c0,7.8,0,15.6,0,23.4c-0.2,1.4-0.5,2.7-0.7,4.1c-1,7.2-1.5,14.5-2.9,21.6c-7.6,39.8-25.7,74.3-54.2,103
		c-29.9,30.2-65.8,49.2-107.7,56.4C226.9,398.2,219.3,399,211.7,400z M200.2,23.4c-97.3-0.2-176.7,79.1-176.8,176.5
		c-0.1,97.1,78.9,176.3,176.2,176.7c97.2,0.3,176.7-78.9,176.9-176.3C376.8,103.1,297.6,23.6,200.2,23.4z"/>
	<path class="st0" d="M199.9,328.3c-21.2-19.8-42.2-39.2-63-59c-12.6-12-25.2-24.1-37-37c-12.5-13.6-21.4-29.5-24.1-48.2
		c-4-28.4,5.8-52,26.9-70.8C126.8,92.1,162,92,188.6,107c2.8,1.6,5.7,3.2,8.3,5.1c2.3,1.7,4,1.4,6.2-0.1
		c13.5-9.1,28.2-14.9,44.8-15.3c29.9-0.8,52.2,12.5,66.7,38.1c16.5,29.2,12.9,57.6-5,85c-9.9,15.2-23.1,27.5-36.1,39.8
		c-23.9,22.5-47.9,44.8-71.9,67.2C201.2,327.2,200.7,327.6,199.9,328.3z M200,295.7c0.6-0.5,1.2-0.8,1.6-1.2
		c22-20.5,44.1-40.9,65.9-61.6c11.6-11.1,22.4-22.9,29.2-37.7c11.3-24.5,1.7-55.6-21.6-68.8c-16.4-9.3-33.3-8.2-49.7,0
		c-7.9,3.9-15.2,8.9-22.7,13.7c-2.1,1.3-3.5,1.3-5.5,0c-5.3-3.5-10.8-6.8-16.2-10.2c-14.5-8.9-30.1-12.6-46.6-7.6
		c-26.2,8.1-41.8,38.8-33.9,65.3c4.4,14.6,13,26.5,23.6,36.7c24.4,23.8,49.5,46.9,74.3,70.3C198.9,294.9,199.4,295.2,200,295.7z"/>
</g>
</svg>
