<?xml version="1.0" encoding="utf-8"?>
<!-- Generator: Adobe Illustrator 26.0.3, SVG Export Plug-In . SVG Version: 6.00 Build 0)  -->
<svg version="1.1" id="Layer_1" xmlns="http://www.w3.org/2000/svg" xmlns:xlink="http://www.w3.org/1999/xlink" x="0px" y="0px"
	 viewBox="0 0 400 400" style="enable-background:new 0 0 400 400;" xml:space="preserve">
<style type="text/css">
	.st0{fill:#FFFFFF;}
</style>
<g>
	<path class="st0" d="M0,205.5c0-3.6,0-7.3,0-10.9c0.1-1.1,0.3-2.2,0.3-3.3c0.2-4.9,0.6-9.8,1.2-14.7c0.9-7.6,2.2-15.1,3.9-22.5
		c4.3-18.2,11-35.4,20.1-51.7c14.2-25.3,33-46.5,56.4-63.7c17.5-12.9,36.6-22.6,57.3-29.2c9.5-3,19.1-5.4,28.9-6.9
		c4.7-0.7,9.5-1.3,14.2-1.8c3.8-0.4,7.5-0.5,11.3-0.7c0.4,0,0.7-0.1,1.1-0.2c3.6,0,7.3,0,10.9,0c0.3,0.1,0.6,0.1,0.9,0.1
		c7.5,0.2,14.9,0.9,22.4,2c7.9,1.1,15.7,2.7,23.4,4.8c25.7,7,49.1,18.5,70.1,34.9c31.3,24.4,53.5,55.2,66.7,92.7
		c6.4,18.2,10,37,10.7,56.3c0,0.3,0.1,0.6,0.2,0.9c0,5.5,0,11.1,0,16.6c-0.1,0.3-0.1,0.7-0.2,1c-0.1,1.5-0.1,3.1-0.2,4.6
		c-0.4,5.8-1,11.6-1.9,17.4c-1.4,8.7-3.3,17.3-5.8,25.8c-8.1,27.1-21.3,51.5-39.8,73c-24,27.9-53.5,47.8-88.4,59.6
		c-12.3,4.2-24.8,7-37.7,8.7c-5.7,0.7-11.4,1.2-17.1,1.4c-0.4,0-0.7,0.1-1.1,0.2c-5.1,0-10.3,0-15.4,0c-0.3-0.1-0.7-0.1-1-0.2
		c-4.9-0.2-9.8-0.6-14.7-1.2c-7.5-0.9-15-2.2-22.4-3.9c-19.8-4.6-38.4-12-55.8-22.5c-39.8-23.9-68.3-57.5-85.2-100.8
		c-7.8-20.1-12-41-12.9-62.6C0.3,207.7,0.1,206.6,0,205.5z M96,200c0,14.5,0,29,0,43.5c0,3.8,0.3,7.6,1,11.4
		c2.5,13.4,8.8,24.8,19,34c11.5,10.3,25.1,15.4,40.6,15.4c29.1,0,58.3,0,87.4,0c4.1,0,8.1-0.4,12.1-1.1
		c21.6-4.3,39.2-20.1,45.6-41.2c1.8-5.9,2.7-11.9,2.7-18c0-10.1,0-20.2,0-30.3c0-19,0-38,0-57c0-3.8-0.3-7.6-1-11.4
		c-2.8-15.1-10.3-27.4-22.3-36.8c-10.8-8.4-23.2-12.6-36.9-12.6c-11.1,0-22.3,0-33.4,0c-18.1,0-36.1,0-54.2,0
		c-4.4,0-8.8,0.4-13.2,1.4c-18.1,4.2-31.6,14.4-40.5,30.7c-4.8,8.8-6.9,18.4-6.9,28.4C96,170.9,96,185.5,96,200z"/>
	<path class="st0" d="M200.1,115.3c15.2,0,30.3,0,45.5,0c10.3,0,19.3,3.4,26.8,10.4c6.7,6.2,10.7,14,12,23.1
		c0.3,1.9,0.4,3.8,0.4,5.6c0,30.4,0,60.9,0,91.3c0,16.1-9.3,29-21.6,35.1c-5.5,2.7-11.4,4-17.5,4c-18.8,0-37.6,0-56.3,0
		c-11.8,0-23.6,0-35.3,0c-10.1-0.1-19-3.6-26.4-10.5c-6.7-6.2-10.6-13.9-11.9-22.9c-0.2-1.7-0.4-3.5-0.4-5.2c0-30.7,0-61.4,0-92.1
		c0-18.1,12.5-33.7,30.1-37.7c3-0.7,6.1-1,9.2-1C169.9,115.3,185,115.3,200.1,115.3z M200.1,253.5c29.5,0,53.4-23.9,53.4-53.4
		c0-29.5-23.8-53.4-53.4-53.4c-29.5,0-53.4,23.9-53.5,53.4C146.7,229.5,170.6,253.5,200.1,253.5z M255.8,157.5
		c7,0,12.7-5.7,12.7-12.7c0-7-5.7-12.7-12.7-12.7c-7-0.1-12.7,5.6-12.8,12.7C243.1,151.8,248.8,157.5,255.8,157.5z"/>
	<path class="st0" d="M200.2,165.3c19.2,0,34.7,15.6,34.7,34.7c0,19.2-15.6,34.7-34.7,34.7c-19.2,0-34.7-15.5-34.7-34.7
		C165.4,180.9,181,165.3,200.2,165.3z"/>
</g>
</svg>
