<?xml version="1.0" encoding="utf-8"?>
<!-- Generator: Adobe Illustrator 26.0.2, SVG Export Plug-In . SVG Version: 6.00 Build 0)  -->
<svg version="1.1" id="Layer_1" xmlns="http://www.w3.org/2000/svg" xmlns:xlink="http://www.w3.org/1999/xlink" x="0px" y="0px"
	 viewBox="0 0 124.33 118.97" style="enable-background:new 0 0 124.33 118.97;" xml:space="preserve">
<style type="text/css">
	.st0{fill:none;}
	.st1{fill:#FD9F69;}
</style>
<g>
	<path class="st0" d="M24.67,34.77l18.49,5.66c0.15,0.04,0.3,0.07,0.44,0.07c0.65,0,1.24-0.42,1.44-1.07c0.24-0.8-0.2-1.64-1-1.88
		l-18.49-5.66c-0.8-0.24-1.64,0.2-1.88,1C23.42,33.68,23.87,34.53,24.67,34.77z"/>
	<path class="st0" d="M52.42,43.07l1.49,2.57c0.58,1.01,2.03,1.01,2.61,0l1.49-2.57l1.49-2.57c0.58-1.01-0.15-2.26-1.31-2.26h-2.97
		h-2.97c-1.16,0-1.89,1.26-1.31,2.26L52.42,43.07z"/>
	<path class="st0" d="M118.29,80.11c0-5.1-3.77-9.32-8.66-10.06c-0.78,6.88-2.84,13.37-5.94,19.23c1.34,0.65,2.83,1.02,4.41,1.02
		C113.72,90.29,118.29,85.72,118.29,80.11z"/>
	<path class="st0" d="M67.35,40.5c0.15,0,0.3-0.02,0.44-0.07l18.49-5.66c0.8-0.24,1.25-1.09,1-1.88c-0.24-0.8-1.09-1.24-1.88-1
		l-18.49,5.66c-0.8,0.24-1.25,1.09-1,1.88C66.11,40.08,66.7,40.5,67.35,40.5z"/>
	<path class="st0" d="M66.42,47.61l12.44,1.55c0.06,0.01,0.13,0.01,0.19,0.01c0.75,0,1.4-0.56,1.5-1.32
		c0.1-0.83-0.48-1.58-1.31-1.68l-12.44-1.55c-0.83-0.1-1.58,0.48-1.68,1.31C65.01,46.76,65.59,47.51,66.42,47.61z"/>
	<path class="st0" d="M31.71,46.17c-0.83,0.1-1.41,0.86-1.31,1.68c0.1,0.76,0.75,1.32,1.5,1.32c0.06,0,0.12,0,0.19-0.01l12.44-1.55
		c0.83-0.1,1.41-0.86,1.31-1.68c-0.1-0.83-0.86-1.41-1.68-1.31L31.71,46.17z"/>
	<path class="st1" d="M86.28,85.05c-1.42,0-2.59,1.09-2.73,2.94h5.48C88.97,86.01,87.67,85.05,86.28,85.05z"/>
	<path class="st1" d="M100.57,94.46c2.25,1.19,4.82,1.87,7.54,1.87c8.95,0,16.22-7.28,16.22-16.22c0-8.31-6.28-15.17-14.34-16.1
		c0-0.04,0-0.08,0-0.12H1.34c0,19.92,10.73,37.32,26.71,46.78H5.49c-2.29,0-4.15,1.86-4.15,4.15s1.86,4.15,4.15,4.15H106.6
		c2.29,0,4.15-1.86,4.15-4.15s-1.86-4.15-4.15-4.15H83.28C90.17,106.59,96.08,101.05,100.57,94.46z M109.64,70.05
		c4.89,0.74,8.66,4.96,8.66,10.06c0,5.62-4.57,10.19-10.19,10.19c-1.58,0-3.07-0.37-4.41-1.02
		C106.8,83.42,108.86,76.93,109.64,70.05z M26.01,93.34c2.24,0,3.6-1.28,4.12-3.54h3.79c-0.76,4.12-3.6,6.84-7.8,6.84
		c-4.74,0-8.37-3.24-8.37-9.46c0-6.13,3.24-9.87,8.43-9.87c4.53,0,7.39,2.89,7.74,6.54h-3.79c-0.52-2.04-2.13-3.27-3.93-3.27
		c-3.14,0-4.61,2.43-4.61,6.38C21.59,90.97,23.06,93.34,26.01,93.34z M48.09,96.01h-3.3c-0.11-0.33-0.19-0.79-0.22-1.2
		c-0.84,0.93-2.26,1.55-4.06,1.55c-3.05,0-4.47-1.5-4.47-3.68c0-3.87,2.59-4.31,6.16-4.8c1.77-0.25,2.26-0.6,2.26-1.53
		c0-0.87-0.87-1.39-2.26-1.39c-1.61,0-2.26,0.79-2.43,1.99h-3.3c0.05-2.78,1.58-4.72,5.89-4.72c4.25,0,5.73,1.91,5.73,5.29V96.01z
		 M62.18,85.11h-7.42v5.51c0,1.69,0.6,2.67,2.04,2.67c1.42,0,2.07-0.95,2.07-2.62v-3.49h3.3V91c0,2.84-1.64,5.37-5.43,5.37
		c-3.93,0-5.48-2.51-5.48-5.4v-12h3.49v3.63h7.42V85.11z M78.62,81.07h-9.11v4.12h7.96v3.19h-7.96v7.63h-3.79v-18.1h12.9V81.07z
		 M86.44,93.56c1.14,0,2.15-0.57,2.4-1.5h3.65c-0.82,2.75-3.03,4.31-5.89,4.31c-4.47,0-6.71-2.45-6.71-7.31
		c0-4.14,2.37-6.82,6.49-6.82s6.3,2.67,6.3,7.99h-9.24C83.55,92.25,84.69,93.56,86.44,93.56z"/>
	<path class="st1" d="M39.58,92.33c0,1.01,0.6,1.5,1.72,1.5c1.83,0,3.19-1.34,3.22-2.92l0.03-1.47c-0.36,0.35-0.98,0.55-2.29,0.79
		C40.23,90.62,39.58,91.19,39.58,92.33z"/>
	<path class="st1" d="M109.85,60.11c0-8.26-1.85-16.09-5.15-23.1l0.13,0.11l3.92-20.1l1.92-9.83c0.89-4.56-3.49-8.37-7.89-6.86
		l-9.48,3.26L75.66,9.66c-6.23-2.49-13.02-3.87-20.13-3.87c-7.16,0-13.99,1.4-20.25,3.92L17.48,3.59L8,0.34
		C3.61-1.17-0.77,2.64,0.12,7.2l1.92,9.83l3.92,20.1l0.57-0.49C3.11,43.74,1.2,51.7,1.2,60.11H109.85z M66.91,37.54l18.49-5.66
		c0.79-0.24,1.64,0.2,1.88,1c0.24,0.8-0.2,1.64-1,1.88l-18.49,5.66c-0.15,0.04-0.3,0.07-0.44,0.07c-0.65,0-1.24-0.42-1.44-1.07
		C65.66,38.63,66.11,37.79,66.91,37.54z M66.79,44.62l12.44,1.55c0.83,0.1,1.41,0.86,1.31,1.68c-0.1,0.76-0.74,1.32-1.5,1.32
		c-0.06,0-0.13,0-0.19-0.01l-12.44-1.55c-0.83-0.1-1.41-0.86-1.31-1.68C65.21,45.1,65.97,44.52,66.79,44.62z M52.24,38.23h2.97h2.97
		c1.16,0,1.89,1.26,1.31,2.26l-1.49,2.57l-1.49,2.57c-0.58,1.01-2.03,1.01-2.61,0l-1.49-2.57l-1.49-2.57
		C50.36,39.49,51.08,38.23,52.24,38.23z M45.84,45.93c0.1,0.83-0.48,1.58-1.31,1.68l-12.44,1.55c-0.06,0.01-0.13,0.01-0.19,0.01
		c-0.75,0-1.4-0.56-1.5-1.32c-0.1-0.83,0.48-1.58,1.31-1.68l12.44-1.55C44.98,44.52,45.73,45.1,45.84,45.93z M23.67,32.89
		c0.24-0.8,1.09-1.25,1.88-1l18.49,5.66c0.8,0.24,1.25,1.09,1,1.88c-0.2,0.65-0.8,1.07-1.44,1.07c-0.15,0-0.29-0.02-0.44-0.07
		l-18.49-5.66C23.87,34.53,23.42,33.68,23.67,32.89z"/>
</g>
</svg>
