<?xml version="1.0" encoding="utf-8"?>
<!-- Generator: Adobe Illustrator 26.0.3, SVG Export Plug-In . SVG Version: 6.00 Build 0)  -->
<svg version="1.1" id="Layer_1" xmlns="http://www.w3.org/2000/svg" xmlns:xlink="http://www.w3.org/1999/xlink" x="0px" y="0px"
	 viewBox="0 0 400 400" style="enable-background:new 0 0 400 400;" xml:space="preserve">
<style type="text/css">
	.st0{fill:#FFFFFF;}
	.st1{fill:none;}
	.st2{fill:#AC93B8;}
	.st3{fill:#FFB999;}
</style>
<g>
	<g>
		<rect x="142.9" y="112" class="st0" width="93" height="102.6"/>
	</g>
	<g>
		<g>
			<g>
				<path class="st0" d="M341.8,303.2c-6,0-11.7-1.3-17.2-4l-7.6-3.7l4-7.5c9.3-17.6,15.2-36.6,17.4-56.4l1-8.4l8.4,1.3
					c19.2,2.9,33.6,19.7,33.6,39.1C381.4,285.5,363.6,303.2,341.8,303.2z M339.8,286.8c0.7,0.1,1.3,0.1,2,0.1
					c12.8,0,23.3-10.4,23.3-23.3c0-8.5-4.8-16.2-11.9-20.2C350.6,258.5,346.1,273,339.8,286.8z"/>
			</g>
			<g>
				<path class="st0" d="M337.1,391.7h-312c-11.6,0-21-9.4-21-21s9.4-21,21-21h43.8C52.5,336.5,38.6,320.3,28,302
					c-15.6-26.7-23.8-57.3-23.8-88.4v-8.2h351.6v1.7c25.7,6.3,44.2,29.4,44.2,56.5c0,32.1-26.1,58.2-58.2,58.2
					c-7,0-13.9-1.3-20.5-3.8c-8.7,11.7-18.9,22.4-30.3,31.7h46.1c11.6,0,21,9.4,21,21S348.7,391.7,337.1,391.7z M25.1,366.1
					c-2.6,0-4.7,2.1-4.7,4.7c0,2.6,2.1,4.7,4.7,4.7h312c2.6,0,4.7-2.1,4.7-4.7c0-2.6-2.1-4.7-4.7-4.7H235.4l25.6-15.2
					c20.1-11.9,37.6-28.3,50.8-47.6l4.1-6l6.4,3.4c6.1,3.2,12.6,4.8,19.5,4.8c23.1,0,41.9-18.8,41.9-41.9c0-21.3-15.9-39.1-37-41.6
					l-2.7-0.3H20.7c2.8,53,32.2,102,78.2,129.2l25.6,15.2H25.1z M341.8,303.2c-6,0-11.7-1.3-17.2-4l-7.6-3.7l4-7.5
					c9.3-17.6,15.2-36.6,17.4-56.4l1-8.4l8.4,1.3c19.2,2.9,33.6,19.7,33.6,39.1C381.4,285.5,363.6,303.2,341.8,303.2z M339.8,286.8
					c0.7,0.1,1.3,0.1,2,0.1c12.8,0,23.3-10.4,23.3-23.3c0-8.5-4.8-16.2-11.9-20.2C350.6,258.5,346.1,273,339.8,286.8z"/>
			</g>
			<g>
				<path class="st0" d="M355.3,210.1H3.7v-8.2c0-24.5,4.9-48.1,14.6-70.3L0.5,40.2c-1.9-9.5,1.4-19,8.7-25.3
					c7.3-6.4,17.1-8.3,26.3-5.1l81.3,27.9c20.1-7.7,41.1-11.6,62.7-11.6c21.4,0,42.3,3.8,62.3,11.4l80.9-27.8
					c9.2-3.1,19-1.2,26.3,5.1c7.3,6.4,10.6,15.8,8.7,25.3l-17.6,90.2c10.1,22.6,15.2,46.7,15.2,71.6V210.1z M20.2,193.8h318.6
					c-1-20.8-6-40.8-14.9-59.7l-16.5-35l19,16.5l15.3-78.5c1-5.4-2-8.7-3.4-9.9c-1.4-1.2-5.1-3.8-10.3-2l-86.6,29.7l-2.8-1.1
					c-18.9-7.5-38.8-11.4-59.1-11.4c-20.5,0-40.5,3.9-59.5,11.5l-2.8,1.1l-87-29.9c-5.2-1.8-8.9,0.8-10.3,2
					c-1.4,1.2-4.4,4.5-3.4,9.9l15.3,78.5l20.9-18.2L35.6,133C26.4,152.2,21.3,172.6,20.2,193.8z M252.1,176.3c-0.5,0-1,0-1.6-0.1
					l-38.4-4.8c-7-0.9-12-7.3-11.1-14.3l0,0c0.6-4.6,3.5-8.3,7.4-10.1c-2.2-1.6-3.8-3.9-4.7-6.6c-2.1-6.8,1.7-13.9,8.5-16l0,0
					l57-17.5c3.3-1,6.7-0.7,9.7,0.9c3,1.6,5.2,4.3,6.3,7.6c2.1,6.8-1.7,13.9-8.5,16l-51.5,15.8l28.3,3.5c7,0.9,12,7.3,11.1,14.3
					C264,171.5,258.6,176.3,252.1,176.3z M217,140.1L217,140.1C217,140.1,217,140.1,217,140.1L217,140.1z M106.6,176.3
					c-6.4,0-11.9-4.8-12.7-11.2c-0.9-7,4.1-13.4,11.1-14.3l28.3-3.5l-51.5-15.8c-6.8-2.1-10.6-9.2-8.5-16c1-3.3,3.2-6,6.2-7.6
					c3-1.6,6.5-1.9,9.8-0.9l57,17.5c6.8,2.1,10.6,9.2,8.5,16h0c-0.8,2.7-2.5,5-4.7,6.6c3.9,1.8,6.9,5.5,7.4,10.1l0,0
					c0.9,7-4.1,13.4-11.1,14.3l-38.4,4.8C107.6,176.3,107.1,176.3,106.6,176.3z M178.6,167.8c-4.6,0-8.8-2.5-11.1-6.4l-9.2-15.9
					c-2.3-3.9-2.3-8.9,0-12.8c2.3-4,6.5-6.4,11.1-6.4h18.3c4.6,0,8.8,2.5,11.1,6.4c2.3,4,2.3,8.9,0,12.8l-9.2,15.9
					C187.4,165.3,183.1,167.8,178.6,167.8z M175.4,142.6l3.1,5.4l3.1-5.4H175.4z"/>
			</g>
		</g>
		<g>
			<g>
				<path class="st0" d="M85,326.7c-20.8,0-34.9-15.4-34.9-38.3c0-24.1,13.7-39.6,35-39.6c17.7,0,31.2,11.6,32.8,28.2l0.9,8.9H91.4
					l-1.6-6.2c-0.7-2.6-2.4-4.3-4.6-4.3c-2,0-6.5,0-6.5,12.2c0,12.2,4.5,12.2,5.9,12.2c2.3,0,4.1-0.4,5.2-5l1.5-6.3h28.4l-1.8,9.6
					C114.6,315.8,102,326.7,85,326.7z"/>
			</g>
			<g>
				<path class="st0" d="M130.9,325.8c-13.6,0-22.4-7.8-22.4-19.9c0-4.1,0.7-7.4,1.9-10.1h-0.6l0.2-8.3c0.1-6.9,3-23,26.9-23
					c17,0,26.4,8.9,26.4,25v35.2h-24C136.6,325.4,133.8,325.8,130.9,325.8z M136.7,288.4L136.7,288.4L136.7,288.4z"/>
			</g>
			<g>
				<path class="st0" d="M182.7,325.8c-15.6,0-25.6-10-25.6-25.4V254h27.4v11.6h23.7v34.9C208.2,315.7,198,325.8,182.7,325.8z
					 M184.7,301.2L184.7,301.2L184.7,301.2z"/>
			</g>
			<g>
				<polygon class="st0" points="231.6,324.7 203.2,324.7 203.2,250.6 260.6,250.6 260.6,277 257,277 257,300.3 231.6,300.3 				"/>
			</g>
			<g>
				<path class="st0" d="M278,325.8c-18.8,0-29.6-11.5-29.6-31.5c0-17.9,11.6-29.9,28.9-29.9c8.3,0,27.2,3.1,28.2,31.3h2.2l-2.2,7.3
					v3.2h-0.9C301,318.3,290.8,325.8,278,325.8z"/>
			</g>
		</g>
	</g>
	<g>
		<g>
			<g>
				<path class="st1" d="M341.8,295.1c17.3,0,31.4-14.1,31.4-31.4c0-15.7-11.6-28.8-26.7-31c-2.4,21.2-8.8,41.3-18.3,59.3
					C332.3,293.9,336.9,295.1,341.8,295.1z"/>
			</g>
			<g>
				<path class="st2" d="M318.5,308c7,3.7,14.9,5.8,23.3,5.8c27.6,0,50.1-22.5,50.1-50.1c0-25.6-19.4-46.8-44.3-49.7
					c0-0.1,0-0.2,0-0.4H12.3c0,61.5,33.1,115.2,82.4,144.4H25.1c-7.1,0-12.8,5.7-12.8,12.8c0,7.1,5.7,12.8,12.8,12.8h312
					c7.1,0,12.8-5.7,12.8-12.8c0-7.1-5.7-12.8-12.8-12.8h-72C286.4,345.4,304.7,328.3,318.5,308z M373.2,263.7
					c0,17.3-14.1,31.4-31.4,31.4c-4.9,0-9.5-1.2-13.6-3.1c9.6-18.1,15.9-38.1,18.3-59.3C361.6,234.9,373.2,247.9,373.2,263.7z"/>
			</g>
			<g>
				<path class="st3" d="M347.2,201.9c0-25.5-5.7-49.6-15.9-71.3l0.4,0.3l12.1-62l5.9-30.3c2.7-14.1-10.8-25.8-24.3-21.2l-29.2,10
					l-54.5,18.7c-19.2-7.7-40.2-11.9-62.1-11.9c-22.1,0-43.2,4.3-62.5,12.1L62.1,27.5l-29.2-10C19.3,12.8,5.8,24.6,8.5,38.7L14.4,69
					l12.1,62l1.7-1.5c-10.5,21.9-16.4,46.5-16.4,72.4H347.2z M214.6,132.3l57-17.5c2.4-0.7,5.1,0.6,5.8,3.1c0.8,2.5-0.6,5.1-3.1,5.8
					l-57,17.5c-0.5,0.1-0.9,0.2-1.4,0.2c-2,0-3.8-1.3-4.5-3.3C210.8,135.7,212.2,133,214.6,132.3z M209.1,158.2
					c0.3-2.6,2.6-4.4,5.2-4l38.4,4.8c2.6,0.3,4.4,2.6,4,5.2c-0.3,2.4-2.3,4.1-4.6,4.1c-0.2,0-0.4,0-0.6,0l-38.4-4.8
					C210.6,163.1,208.8,160.7,209.1,158.2z M169.4,134.4h9.2h9.2c3.6,0,5.8,3.9,4,7l-4.6,7.9l-4.6,7.9c-1.8,3.1-6.3,3.1-8.1,0
					l-4.6-7.9l-4.6-7.9C163.6,138.3,165.8,134.4,169.4,134.4z M149.6,158.2c0.3,2.6-1.5,4.9-4,5.2l-38.4,4.8c-0.2,0-0.4,0-0.6,0
					c-2.3,0-4.3-1.7-4.6-4.1c-0.3-2.6,1.5-4.9,4-5.2l38.4-4.8C147,153.8,149.3,155.6,149.6,158.2z M147.1,138.1
					c-0.6,2-2.5,3.3-4.5,3.3c-0.5,0-0.9-0.1-1.4-0.2l-57-17.5c-2.5-0.8-3.8-3.4-3.1-5.8c0.8-2.5,3.3-3.8,5.8-3.1l57,17.5
					C146.5,133,147.9,135.7,147.1,138.1z"/>
			</g>
		</g>
		<g>
			<g>
				<path class="st3" d="M109.9,296.7c-2.4,13.1-11.5,21.8-24.9,21.8c-15.1,0-26.7-10.4-26.7-30.2c0-19.6,10.4-31.5,26.9-31.5
					c14.4,0,23.6,9.2,24.7,20.9H97.8c-1.7-6.5-6.8-10.4-12.5-10.4c-10,0-14.7,7.7-14.7,20.4c0,12.8,4.7,20.4,14.1,20.4
					c7.1,0,11.5-4.1,13.1-11.3H109.9z"/>
			</g>
			<g>
				<path class="st3" d="M144.6,316.5c-0.3-1-0.6-2.5-0.7-3.8c-2.7,3-7.2,5-13,5c-9.7,0-14.3-4.8-14.3-11.7
					c0-12.3,8.3-13.7,19.7-15.3c5.7-0.8,7.2-1.9,7.2-4.9c0-2.8-2.8-4.4-7.2-4.4c-5.1,0-7.2,2.5-7.7,6.3H118c0.2-8.9,5-15,18.8-15
					c13.6,0,18.3,6.1,18.3,16.9v27H144.6z M143.8,295.6c-1.1,1.1-3.1,1.7-7.3,2.5c-6.4,1.2-8.5,3-8.5,6.7c0,3.2,1.9,4.8,5.5,4.8
					c5.8,0,10.2-4.3,10.3-9.3L143.8,295.6z"/>
			</g>
			<g>
				<path class="st3" d="M189.5,288.4H200v12.2c0,9-5.2,17.1-17.3,17.1c-12.5,0-17.5-8-17.5-17.2v-38.3h11.1v11.6H200v8h-23.7v17.6
					c0,5.4,1.9,8.5,6.5,8.5c4.5,0,6.6-3,6.6-8.3V288.4z"/>
			</g>
			<g>
				<path class="st3" d="M223.4,292.2v24.4h-12.1v-57.7h41.1v10.1h-29V282h25.4v10.2H223.4z"/>
			</g>
			<g>
				<path class="st3" d="M267.9,298.1c0.3,6.4,4,10.6,9.6,10.6c3.7,0,6.9-1.8,7.7-4.8h11.7c-2.6,8.8-9.7,13.7-18.8,13.7
					c-14.3,0-21.4-7.8-21.4-23.3c0-13.2,7.6-21.7,20.7-21.7c13.1,0,20.1,8.5,20.1,25.5H267.9z M285.7,291c-0.2-6.3-4.3-9.4-8.8-9.4
					c-4.5,0-8.3,3.5-8.7,9.4H285.7z"/>
			</g>
		</g>
	</g>
</g>
</svg>
