<?xml version="1.0" encoding="utf-8"?>
<!-- Generator: Adobe Illustrator 26.0.3, SVG Export Plug-In . SVG Version: 6.00 Build 0)  -->
<svg version="1.1" id="Layer_1" xmlns="http://www.w3.org/2000/svg" xmlns:xlink="http://www.w3.org/1999/xlink" x="0px" y="0px"
	 viewBox="0 0 124.3 119" style="enable-background:new 0 0 124.3 119;" xml:space="preserve">
<style type="text/css">
	.st0{fill:none;}
	.st1{fill:#AC93B8;}
	.st2{fill:#FFB999;}
</style>
<g>
	<g>
		<path class="st0" d="M108.1,90.3c5.6,0,10.2-4.6,10.2-10.2c0-5.1-3.8-9.3-8.7-10.1c-0.8,6.9-2.8,13.4-5.9,19.2
			C105,89.9,106.5,90.3,108.1,90.3z"/>
		<path class="st1" d="M100.6,94.5c2.3,1.2,4.8,1.9,7.5,1.9c8.9,0,16.2-7.3,16.2-16.2c0-8.3-6.3-15.2-14.3-16.1c0,0,0-0.1,0-0.1H1.3
			c0,19.9,10.7,37.3,26.7,46.8H5.5c-2.3,0-4.1,1.9-4.1,4.1c0,2.3,1.9,4.1,4.1,4.1h101.1c2.3,0,4.1-1.9,4.1-4.1
			c0-2.3-1.9-4.1-4.1-4.1H83.3C90.2,106.6,96.1,101.1,100.6,94.5z M118.3,80.1c0,5.6-4.6,10.2-10.2,10.2c-1.6,0-3.1-0.4-4.4-1
			c3.1-5.9,5.2-12.3,5.9-19.2C114.5,70.8,118.3,75,118.3,80.1z"/>
		<path class="st2" d="M109.8,60.1c0-8.3-1.9-16.1-5.2-23.1l0.1,0.1l3.9-20.1l1.9-9.8c0.9-4.6-3.5-8.4-7.9-6.9l-9.5,3.3L75.7,9.7
			c-6.2-2.5-13-3.9-20.1-3.9c-7.2,0-14,1.4-20.3,3.9L17.5,3.6L8,0.3C3.6-1.2-0.8,2.6,0.1,7.2L2,17L6,37.1l0.6-0.5
			c-3.4,7.1-5.3,15.1-5.3,23.5H109.8z M66.9,37.5l18.5-5.7c0.8-0.2,1.6,0.2,1.9,1c0.2,0.8-0.2,1.6-1,1.9l-18.5,5.7
			c-0.1,0-0.3,0.1-0.4,0.1c-0.6,0-1.2-0.4-1.4-1.1C65.7,38.6,66.1,37.8,66.9,37.5z M65.1,45.9c0.1-0.8,0.9-1.4,1.7-1.3l12.4,1.5
			c0.8,0.1,1.4,0.9,1.3,1.7c-0.1,0.8-0.7,1.3-1.5,1.3c-0.1,0-0.1,0-0.2,0l-12.4-1.5C65.6,47.5,65,46.8,65.1,45.9z M52.2,38.2h3h3
			c1.2,0,1.9,1.3,1.3,2.3L58,43.1l-1.5,2.6c-0.6,1-2,1-2.6,0l-1.5-2.6l-1.5-2.6C50.4,39.5,51.1,38.2,52.2,38.2z M45.8,45.9
			c0.1,0.8-0.5,1.6-1.3,1.7l-12.4,1.5c-0.1,0-0.1,0-0.2,0c-0.8,0-1.4-0.6-1.5-1.3c-0.1-0.8,0.5-1.6,1.3-1.7l12.4-1.5
			C45,44.5,45.7,45.1,45.8,45.9z M45,39.4c-0.2,0.6-0.8,1.1-1.4,1.1c-0.1,0-0.3,0-0.4-0.1l-18.5-5.7c-0.8-0.2-1.2-1.1-1-1.9
			c0.2-0.8,1.1-1.2,1.9-1L44,37.5C44.8,37.8,45.3,38.6,45,39.4z"/>
	</g>
	<g>
		<path class="st2" d="M33,90.8c-0.8,4.3-3.7,7.1-8.1,7.1c-4.9,0-8.7-3.4-8.7-9.8c0-6.3,3.4-10.2,8.7-10.2c4.7,0,7.6,3,8,6.8H29
			c-0.5-2.1-2.2-3.4-4.1-3.4c-3.2,0-4.8,2.5-4.8,6.6c0,4.1,1.5,6.6,4.6,6.6c2.3,0,3.7-1.3,4.3-3.7H33z"/>
		<path class="st2" d="M44.2,97.2C44.1,96.9,44,96.4,44,96c-0.9,1-2.3,1.6-4.2,1.6c-3.2,0-4.6-1.5-4.6-3.8c0-4,2.7-4.5,6.4-5
			c1.8-0.3,2.3-0.6,2.3-1.6c0-0.9-0.9-1.4-2.3-1.4c-1.7,0-2.3,0.8-2.5,2.1h-3.4c0.1-2.9,1.6-4.9,6.1-4.9c4.4,0,5.9,2,5.9,5.5v8.8
			H44.2z M44,90.5c-0.4,0.4-1,0.6-2.4,0.8c-2.1,0.4-2.8,1-2.8,2.2c0,1,0.6,1.6,1.8,1.6c1.9,0,3.3-1.4,3.3-3L44,90.5z"/>
		<path class="st2" d="M58.8,88.1h3.4v3.9c0,2.9-1.7,5.6-5.6,5.6c-4.1,0-5.7-2.6-5.7-5.6V79.6h3.6v3.7h7.7V86h-7.7v5.7
			c0,1.7,0.6,2.8,2.1,2.8c1.5,0,2.1-1,2.1-2.7V88.1z"/>
		<path class="st2" d="M69.8,89.4v7.9h-3.9V78.5h13.3v3.3h-9.4v4.3H78v3.3H69.8z"/>
		<path class="st2" d="M84.2,91.3c0.1,2.1,1.3,3.4,3.1,3.4c1.2,0,2.2-0.6,2.5-1.6h3.8c-0.8,2.8-3.1,4.5-6.1,4.5
			c-4.6,0-6.9-2.5-6.9-7.6c0-4.3,2.5-7,6.7-7c4.3,0,6.5,2.8,6.5,8.3H84.2z M89.9,89c-0.1-2.1-1.4-3-2.8-3c-1.5,0-2.7,1.1-2.8,3H89.9
			z"/>
	</g>
</g>
</svg>
