<?xml version="1.0" encoding="utf-8"?>
<!-- Generator: Adobe Illustrator 26.0.3, SVG Export Plug-In . SVG Version: 6.00 Build 0)  -->
<svg version="1.1" id="Layer_1" xmlns="http://www.w3.org/2000/svg" xmlns:xlink="http://www.w3.org/1999/xlink" x="0px" y="0px"
	 viewBox="0 0 400 400" style="enable-background:new 0 0 400 400;" xml:space="preserve">
<style type="text/css">
	.st0{fill:#FFFFFF;}
</style>
<g>
	<path class="st0" d="M0,205.5c0-3.6,0-7.3,0-10.9c0.1-1.1,0.3-2.1,0.3-3.2c0.2-5.7,0.7-11.4,1.5-17.1c1-7.6,2.4-15.1,4.2-22.5
		c5.1-20.7,13.4-40,24.7-58C44,72.8,60.5,54.8,80.3,40c17-12.8,35.6-22.6,55.8-29.4C146.4,7,157,4.4,167.8,2.7
		c4.9-0.8,9.7-1.4,14.6-1.8c3.8-0.3,7.5-0.5,11.3-0.7c0.4,0,0.7-0.1,1.1-0.2c3.6,0,7.3,0,10.9,0c0.4,0.1,0.8,0.1,1.1,0.2
		c7.4,0.3,14.7,0.9,22.1,2c8.7,1.2,17.2,3,25.6,5.4c28.1,8,53.3,21.4,75.4,40.4c28.1,24.1,48.2,53.8,60,89
		c5.9,17.5,9.3,35.5,9.9,53.9c0,0.3,0.1,0.6,0.2,0.9c0,5.5,0,11.1,0,16.6c-0.1,0.3-0.2,0.7-0.2,1c0,3.8-0.4,7.6-0.8,11.4
		c-0.8,7.7-2,15.3-3.7,22.9c-4.6,20.5-12.2,39.9-23,58c-19.6,32.8-46.3,58.2-80.2,75.9c-19.9,10.4-41.1,17.2-63.4,20.4
		c-6.6,1-13.3,1.6-20,1.8c-0.3,0-0.6,0.1-1,0.1c-5.1,0-10.3,0-15.4,0c-0.3-0.1-0.6-0.1-1-0.2c-6-0.2-11.9-0.8-17.9-1.6
		c-8.1-1.1-16.2-2.7-24.1-4.7c-15.7-4.1-30.8-10.1-45-17.9c-18.9-10.4-35.7-23.4-50.4-39.2c-16.8-18-29.9-38.4-39.1-61.1
		C6.1,254,1.3,231.7,0.3,208.7C0.3,207.6,0.1,206.5,0,205.5z M117.7,231.4c2.6,7.9,6.8,14.6,12.7,20.2c8.9,8.4,19.6,12.7,31.9,13.3
		c-5.1,4.1-10.6,7.5-16.4,10.4c-17.1,8.4-35.1,11.4-54.1,9.4c0,0.1,0.1,0.2,0.1,0.2c0.2,0.2,0.5,0.3,0.7,0.5
		c19.7,12.5,41.3,19.3,64.6,20.7c7.8,0.5,15.7,0.2,23.5-0.6c6.9-0.7,13.7-1.9,20.3-3.6c26.1-6.8,48-20.3,65.7-40.5
		c13.3-15.2,22.8-32.5,28.8-51.7c3.2-10.2,5.2-20.7,5.9-31.4c0.3-4.6,0.3-9.3,0.2-14c0-0.8,0.2-1.3,0.9-1.8
		c8.7-6.5,16.2-14.2,22.4-23.1c0.2-0.3,0.4-0.6,0.5-0.8c-4.4,1.7-8.8,3.3-13.2,4.5c-4.5,1.2-9,2.1-13.6,2.6c3.2-2.1,6.1-4.4,8.8-7.1
		c2.7-2.7,5.1-5.7,7.1-8.9c2-3.2,3.6-6.6,4.6-10.2c-0.5,0.2-0.9,0.4-1.3,0.6c-8.8,5-18.2,8.5-28.2,10.7c-0.6,0.1-1.1,0-1.5-0.5
		c-12.1-11.9-26.6-16.6-43.2-13.7c-14.2,2.5-25,10.3-32.6,22.6c-3.7,6-5.8,12.5-6.5,19.5c-0.4,4-0.4,8,0.2,12
		c0.2,1.3,0.5,2.7,0.7,4.1c-10.4-0.5-20.5-2.1-30.5-5c-27.5-7.9-50.3-23.1-68.6-45.2c-2.6,4.5-4.4,9.2-5.4,14.2
		c-1.6,7.9-1.4,15.7,0.9,23.5c3.3,11,9.7,19.7,19,26.3c-7.6-0.1-14.6-2.2-21.3-5.8c0,11.6,3.5,21.8,10.6,30.7
		c7.2,8.9,16.4,14.5,27.6,17.1C132,232.5,125,232.8,117.7,231.4z"/>
</g>
</svg>
